<svg display="block" fill="none" preserveAspectRatio="none" viewBox="0 0 626.025 148.208" xmlns="http://www.w3.org/2000/svg"><g fill="#009f89"><path d="m1.23072 1.52422c-2.58899 4.69507-.275998 9.49108-.359005 14.63108-.104981 6.328.781005 12.012 3.343015 17.835 2.42896 5.524 5.24695 11.048 7.97997 16.4349 2.662 5.2531 6.333 8.7211 10.4931 12.7821 4.1429 4.0459 6.9229 9.0929 11.604 12.6179 5.0479 3.8011 10.8349 7.0251 16.5189 9.7571 5.732 2.753 11.706 4.466 17.687 6.536 6.508 2.25 11.938 4.3009 18.859 4.455 2.881.064 5.51 1.158 8.348 1.548 2.924.4019 5.8183.139 8.7093.823 6.462 1.5297 12.434 1.3467 19.094 1.3457 6.953-.002 13.937.212 20.884-.057 7.099-.2737 13.762-2.2707 20.897-2.0647 6.442.185 12.033-1.5771 18.359-2.247 6.802-.7211 13.692-.193 20.496.1749 14.432.7801 28.945.3481 43.395.354 8.487.0041 16.311.735 24.564 2.8461 7.306 1.8677 14.737 3.5967 20.584 8.6597 10.811 9.361 16.634 23.109 17.077 37.269.124 3.969 6.307 3.986 6.182 0-.356-11.401-3.686-22.66-10.312-32.024-6.887-9.733-15.566-15.4837-26.999-18.5817-5.877-1.593-11.792-3.155-17.85-3.8821-6.987-.838-14.12-.4709-21.146-.4699-14.152 0-28.221-.126-42.359-.713-5.908-.245-11.855-.2751-17.703.724-3.038.519-5.929 1.583-9.023 1.7669-4.088.2431-8.175-.4149-12.264-.0389-2.643.243-5.127 1.061-7.736 1.498-3.807.638-7.696.601-11.543.611-7.118.0179-14.241-.116-21.358-.002-3.618.059-6.755.138-10.297-.755-2.01-.5071-3.925-.9911-5.996-1.1321-3.4783-.2359-6.4653-.6879-9.8583-1.416-3.3299-.7149-6.641.0431-9.962-.7039-6.105-1.3741-12.23-4.1031-18.1799-6.063-6.9241-2.282-13.2801-5.642-19.526-9.355-5.9671-3.548-9.7021-7.724-14.1131-12.984-2.345-2.798-5.26-4.9671-7.725-7.637-2.244-2.428-3.728-5.223-5.156-8.182-3.034-6.2831-7.09103-12.874-8.87997-19.62-.99304-3.7361-.896-7.209-.88501-11.031.01001-2.623-1.75098-8.33105-.50501-10.59008 1.922-3.48596-3.41504-6.60791-5.33899-3.12z"/><path d="m619.394 4.64421c1.139 2.06409-.451 6.40309-.518 8.73799-.087 2.9661.263 5.9291-.078 8.8891-.812 7.0539-4.755 12.969-7.669 19.264-2.572 5.557-4.859 10.4209-9.386 14.673-4.546 4.27-7.932 9.8729-12.661 13.84-10.084 8.461-22.802 12.311-34.894 16.6989-3.22 1.1681-6.41 2.604-9.765 3.359-2.805.631-5.496.0611-8.298.412-3.4.4261-6.434 1.5231-9.912 1.6811-2.669.1209-5.003.5019-7.605 1.159-6.367 1.606-13.508.747-20.056.75-7.608.0039-15.616.657-23.143-.604-2.608-.437-5.092-1.2561-7.736-1.498-3.51-.323-7.003.133-10.514.0739-6.12-.1009-12.014-2.2769-18.181-2.583-13.507-.671-27.264.776-40.807.772-14.154-.0039-28.574-1.0749-42.454 2.1941-13.133 3.0919-24.36 6.839-33.082 17.6807-8.038 9.993-12.219 22.318-12.618 35.081-.125 3.979 6.057 3.975 6.182 0 .403-12.89 5.211-25.416 14.328-34.674 9.116-9.258 24.687-12.8697 37.327-13.9018 15.107-1.2319 30.563.0501 45.716-.209 6.196-.1049 12.373-.692 18.569-.8209 2.837-.0591 5.685-.058 8.517.1599 4.191.322 8.064 1.641 12.19 2.2051 6.454.8829 12.716-.1061 19.181 1.14 6.842 1.3187 13.729 1.1727 20.67 1.1697 6.819-.003 13.671.253 20.484.13 2.538-.046 4.634-.4597 7.071-1.1047 3.363-.8901 6.595-.729 10.006-1.198 2.83-.3891 5.477-1.484 8.348-1.548 3.27-.073 5.921-.033 9.112-.962 6.662-1.939 13.48-4.366 19.96-6.824 10.509-3.986 22.72-9.799 29.863-18.77 4.066-5.1081 9.43-9.224 13.219-14.471 3.881-5.374 6.155-11.9551 9.189-17.8191 3.078-5.9509 5.097-12.099 5.199-18.849.057-3.7649.094-7.1499.689-10.87498.414-2.59497.19-4.13196-1.105-6.47901-1.922-3.48388-7.263-.36999-5.338 3.12z"/></g></svg>