<svg preserveAspectRatio="none" width="100%" height="100%" overflow="visible" style="display: block;" viewBox="0 0 45.2393 43.6203" fill="none" xmlns="http://www.w3.org/2000/svg">
<path id="&#227;&#131;&#145;&#227;&#130;&#185; 184" fill-rule="evenodd" clip-rule="evenodd" d="M22.6726 43.567C20.1146 43.5711 18.0225 43.7251 15.6046 42.735C12.6865 41.542 10.5786 39.9401 7.97848 38.0901C5.20553 36.1161 2.54855 35.2771 1.32455 31.2801C0.5975 28.9031 -0.348423 25.4881 0.129483 22.9861C1.2706 17.0091 4.32956 12.2221 7.02353 7.08804C10.0075 1.40005 15.3475 0.249049 20.7256 0.243067C23.0645 0.241114 26.0245 -0.264989 28.3236 0.189112C31.2995 0.776026 33.6106 3.36502 35.9605 5.37612C37.6096 6.78701 40.0405 7.52212 41.3806 9.36807C42.1566 10.438 42.5715 11.843 43.1815 13.0381C45.0305 16.666 45.1676 18.0441 45.1685 22.3781C45.1695 25.2641 45.6146 28.2051 44.2606 30.776C42.9586 33.2481 40.2456 36.8891 38.2385 38.4461C34.3346 41.474 29.2485 44.0241 22.6726 43.567Z" fill="currentColor"/>
</svg>
