<svg display="block" fill="none" preserveAspectRatio="none" viewBox="0 0 311.016 5.01704" xmlns="http://www.w3.org/2000/svg"><path clip-rule="evenodd" d="m307.486 4.76411c.22-.01306.453-.02502.637-.01806l.445.13305.198-.08801c.124.03699.247.07398.371.11096.549-.01294 1.137-.09802 1.854.11499.008-.02197.016-.04394.025-.06591-.427-.37-.694-.79102-1.233-1.10108-.579.21399-1.65-.04895-2.373-.04993-.013 0-.028 0-.041-.00109l-.035-.01001c-.04-.01197-.082-.00696-.117.00903-.998-.00598-2.143-.04297-3.096-.02893-.703.01001-1.307-.297-2.027-.31299-.591-.01404-1.458.16296-2.053.19189-.186.00806-.179-.14794-.271-.1549-.958-.068-2.223-.052-3.19-.07508-.304-.06591-.609-.13293-.914-.19995-1.097-.03503-2.373-.20007-3.461-.229-.516-.01404-1.001-.30896-1.532-.31201-.081 0-.348.08801-.445.08703l-.445-.13305c-.041.03698-.083.07299-.124.10901-.396.02404-.617-.17298-1.013-.15601-.12.005-.302.16797-.397.17407-.139-.06604-.279-.13208-.419-.198-.203-.01403-.831.1189-1.039.12793-.223-.06604-.445-.13195-.667-.19897-.075.05102-.149.10193-.223.15295-.346-.03003-.692-.06091-1.038-.09094-.534.00501-1.364.02795-1.905.01697l-.444-.13294c-.101-.0061-.268.06897-.446.08692l-.543-.08997c-.093.01294-.305.16797-.397.17395-.197-.05896-.395-.11792-.592-.177-.075.05103-.149.10205-.224.15308-.365.03393-.935-.18103-1.334-.17908-.262.0011-.766.05505-1.014.06299-.231-.04492-.462-.08899-.692-.13391-.569.01098-1.302.156-1.88.17102-.124-.03711-.247-.0741-.371-.11109-.098-.00097-.361.08606-.445.08606-.415.00403-.628-.17407-1.013-.156-.262.01196-.615.16601-.891.17297-.332.00806-.695-.18701-1.013-.15698-.116.01196-.311.15393-.471.15295-.508-.00403-.992-.25696-1.483-.224-.124.00806-.223.18201-.322.19702-.461-.08898-.922-.17895-1.384-.26794-.557.00891-1.221.1239-1.78.12695-.507.00196-.777-.22802-1.31-.24499-.306-.01001-.789.04504-1.088.04101-.256-.052-.511-.104-.766-.156-1.549-.021-3.27.03393-4.798.03003-.197-.05908-.395-.11804-.592-.177-.17.0039-.478.16198-.644.17395-.481.03601-.987-.22706-1.483-.224-.565.00305-1.246.13098-1.781.12695-.255-.052-.51-.104-.766-.15601-.03.00208-.351.09302-.445.08704-.165-.07397-.329-.14795-.494-.22095-.163 0-.32.21094-.495.21802-.198-.05908-.395-.11804-.593-.177l-.198.08691c-.14-.06592-.28-.13293-.42-.19897l-.198.08703c-.197-.05896-.395-.11804-.593-.177-1.326.05298-2.842-.27307-4.178-.297-.426-.00805-.661-.172969-1.087-.179072-.204-.001953-.563.068112-.767.064082-.148-.044063-.296-.088985-.445-.133052-.155.013062-.399.187012-.569.196042-.338-.052-.675-.104001-1.013-.156979-.041.036987-.083.072999-.124.109989-.198-.059086-.395-.118046-.593-.177006-.184.004028-.45.163936-.644.172976-.098-.02906-.197-.058962-.296-.088015-.149.005981-.47.106075-.619.108035l-.444-.133059-.124.109009c-.165 0-.33-.00098-.495-.00098-.049.05799-.099.11707-.149.17505-.197-.05908-.395-.11804-.593-.177-.304.00598-.839.16394-1.138.172-.148-.04407-.296-.08899-.444-.13306-.236-.00403-.64-.02295-.915.01904-.075.052-.149.10303-.223.15296-.03.00305-.491-.14893-.692-.13294-.179.01392-.528.14698-.718.151-.463.01294-.897-.268063-1.384-.267086-.211.001098-.638.101076-.866.107056-.44.01404-.756-.177003-1.186-.134034-1.462.143064-3.139-.012939-4.649.073974-.124-.03699-.247-.073974-.371-.110961-.228-.005005-.642.041992-.841.041992-.172-.052002-.345-.103027-.518-.155029-.168.011108-.522.151001-.718.151001-.305-.065918-.609-.132935-.914-.199951-.863.077026-2.065-.057007-3.215-.009034-.197-.05896-.395-.11792-.592-.177002-.254-.005981-.548.134034-.792.129029-.272-.080933-.544-.161988-.815-.243042-.227.001098-.611.110107-.866.107055-.406-.005004-.61-.170044-1.014-.156982-.066.00293-.247.12793-.297.130981l-.444-.131958c-.067.000977-.248.125977-.298.130005-.123-.037109-.247-.074096-.37-.111084-.661-.020019-1.331-.227905-2.052-.246948-.17-.004028-.481.096924-.618.108032l-.371-.110107c-.089.012085-.178.202026-.248.218017-.173-.050903-.346-.102905-.519-.154907-.256-.004028-.686.085938-.94.084961-.329-.073974-.658-.148071-.988-.222046-.041.036011-.082.072998-.124.109009-.248.040039-.627.044067-.841.041992-.23-.044922-.461-.088989-.692-.133911-.121.014893-.305.154907-.47.152954-.222-.067016-.445-.133056-.667-.199951-.196-.0010986-.614.046997-.841.041992-.123-.0371092-.247-.0740965-.37-.1110838-.075.0510254-.149.1020508-.223.1530758-.149-.044067-.297-.0889889-.445-.1330563-.116.0880123-.231.1750493-.347.2619633-.247.006103-.003-.2609867-.321-.2419437-.016.0439457-.033.0880127-.05.1319577-.331.031983-.753-.2089841-1.087-.1789548-.557.0489502-1.32.1469728-1.88.1700438-.181-.030029-.362-.059082-.544-.0891112-.194.0140382-.458.1680912-.643.1740722-.231-.045044-.461-.089966-.692-.134033-.152.019043-.485.165039-.644.174072l-.592-.177002c-.1.008911-.274.165894-.397.17395-.098-.030029-.197-.05896-.296-.088989-.204.010986-.514.142944-.718.151978-.395.016967-.718-.134034-1.112-.113037-.074.004028-.238.123046-.297.131103-.157-.023071-.313-.045044-.47-.067017-.058.007935-.224.128907-.297.130005-.173-.051025-.346-.103027-.519-.155029-.217-.005005-.734-.052002-.989-.002075-.074.051025-.149.102051-.223.153076-.148-.045044-.296-.088989-.445-.133057-.255.002076-.681.08606-.94.085083-.123-.036987-.247-.074096-.37-.111084-2.692.06604-5.578-.182006-8.135-.088989-.363-.05896-.725-.1190184-1.088-.1779783-.786.0040283-1.794.0770263-2.597.1020503-.33.010987-.539-.1510005-.864-.11206011-.075.05102541-.149.10205111-.224.15307611-.518.063965-.941-.1170654-1.458-.0700683-.227.0209963-.572.1779783-.817.1950683-.124-.037109-.247-.074097-.371-.111084-.085.000977-.314.104981-.371.109009-.123-.036987-.247-.073975-.37-.110962-.145.005005-.4.119018-.545.130005l-.222-.06604c-.226.020019-.482.218994-.669.23999l-.518-.155029c-.084 0-.347.085083-.446.086059-.099-.030029-.197-.05896-.296-.088989-.913.032959-1.995.161011-2.894.234009-.322.025024-.569-.098023-.89-.046997-.074.051025-.149.101928-.223.152954-.333.073974-.629-.059937-.989-.00293-.075.050904-.149.101929-.223.152954l-.396-.045044c-.041.036988-.083.072998-.124.109986-.124-.036988-.247-.073975-.371-.110962-.103.011963-.269.170044-.396.174072-.148-.044067-.296-.088013-.444-.133057-.272.004029-.651.140992-.891.173951-.446.059082-.825-.07898-1.237-.003907-.041.036989-.082.072999-.124.109009-.098-.02905-.197-.05908-.296-.088013-.18.003907-.457.099003-.619.107913-.098-.02991-.197-.05896-.296-.08899-.13.01098-.267.16101-.396.17505-.182-.03003-.363-.06006-.544-.08997l-.198.08801c-.239-.02307-.478-.04602-.717-.06811l-.124.10901-.618-.11096c-.286-.00403-.751.05505-1.014.06298-.23-.04492-.461-.08996-.692-.13403-.141.00403-.403.125-.544.13001-1.336.04602-2.665.02307-3.982.05505-.404.00903-.608-.16199-1.013-.15698-.554.00695-1.271.04602-1.83.03894-.491-.00598-.78-.16199-1.26-.156985-.167.000977-.416.117065-.545.130005-.565.05701-1.094-.160034-1.681-.135986-.789.030029-1.816.177006-2.622.167966-.148-.04492-.296-.08899-.444-.132932-.555-.010987-1.249.090942-1.781.125972-.346.02295-.757-.129024-1.112-.112056-.144.006106-.401.123046-.545.130006-.402.01709-.705-.131959-1.112-.11292-.125.00598-.295.16394-.397.17395l-.444-.13293c-.208.005-.576.1239-.792.13-.383.00989-.557-.1051-.89-.04712-.041.03711-.083.07313-.124.11011-.373.047-1.06-.16406-1.261-.1571-.789.02502-1.796.078-2.596.10205-.443.01306-.86-.14295-1.286-.09204-.074.052-.149.10302-.223.15405-.231-.04504-.461-.08997-.692-.13403-.128.005-.29.16003-.396.17407-.334.04394-.51-.12109-.865-.11206-1.9.052-4.107-.06604-6.009-.03894-.552.00793-.903-.180055-1.434-.13501-1.973.16394-4.339-.029054-6.355.0039-.148-.044917-.296-.088984-.444-.13293-.31.005005-.85.16602-1.138.172-.091-.052-.181-.10303-.272-.154055-.079-.001953-.35.087036-.445.086059-.124-.036987-.247-.073974-.371-.110962-.962.014893-2.133.037964-3.091.100952-.371-.036987-.742-.074951-1.112-.113037-.077.003052-.426.031983-.52.065064-.017.043945-.033.088009-.05.130979-.178.03601-.281-.175047-.345-.176023-.066-.000977-.248.127073-.298.130983-.376.03003-.559-.142946-.939-.135011-.729.017089-1.644.165041-2.374.169071-.256-.052006-.511-.104008-.766-.15601-.259.001953-.731.062988-1.014.062988-.231-.043945-.462-.088989-.692-.133056-.042.03601-.083.072998-.124.109009-.173-.050904-.346-.102906-.519-.154908-.955-.023071-2.01.112915-2.894.232907-.239-.021969-.478-.044918-.717-.067013-.297.011108-.742.122073-1.039.128053l-.618-.110963c-.127.010986-.29.159913-.396.173953-.348.04602-.555-.07495-.89-.04602-.134.01098-.354.13598-.47.15197-.157-.02197-.313-.04492-.47-.06689-.077.00696-.234.12097-.297.13098-.074-.02197-.148-.04504-.222-.06702-.042.03699-.083.073-.124.10999-.36.03503-.549-.07996-.89-.047-.192.01905-.444.16407-.644.17395-.181-.0299-.362-.05993-.544-.08899-.11.01709-.265.16602-.396.17408-.231-.04407-.461-.08899-.692-.13306-.074.05102-.149.10205-.223.15308l-.222-.06702c-.236.02197-.631.09192-.866.10693-.345.02197-.548-.13598-.939-.13391-.235.00098-.645.09192-.866.10693l-.791-.08996c-.133.00793-.338.15295-.47.15295-.066-.04492-.132-.08899-.198-.13293-.389-.0221-.879.04993-1.261.06299l-.544-.09009c-.325.02099-.891.24609-1.262.2821-.099-.02905-.198-.05908-.296-.08899-.072.00489-.241.125-.298.13099-.098-.02906-.197-.05909-.296-.08802l-.124.10901c-.214.03894-.333-.04504-.569-.02405-.072.00696-.24.125-.297.13099-.099-.02894-.198-.05896-.296-.08802-.358.04102-.859.1991-1.237.21607l-.791-.08997c-.042.03589-.083.073-.124.10889-.099-.02991-.198-.05896-.297-.08899-.436.04907-1.042.19104-1.484.21606-.099-.03003-.198-.05896-.297-.08899-.054.00599-.226.12793-.297.13099-.123-.03699-.247-.07398-.37-.11097-.114.00891-.414.12696-.545.13001-.123-.03711-.247-.0741-.37-.11011-.832.01709-1.768.17908-2.622.16809-.33-.0741-.659-.14905-.988-.22302-.728-.02307-1.754-.07898-2.448-.07202-.149-.04505-.297-.08899-.445-.13294-.185.00598-.449.15894-.643.17395-.182-.03003-.363-.06006-.544-.08996-.527.01892-1.249.13598-1.781.12695-.066-.04394-.132-.08801-.197-.13196-.225-.01501-.574.05091-.767.06299-.239-.02197-.478-.04504-.717-.06799-2.104.15295-4.326.39294-6.357.66296-.394.052-.676-.05701-1.064-.02502-.647.05298-1.439.18005-2.078.25708-.156-.0221-.313-.04407-.469-.06702-.48.03296-1.101.10791-1.608.10498-.123-.03601-.247-.073-.37-.10998-.342.02197-.893.13098-1.213.15002-.686.03992-1.583-.12708-2.249-.16003-.486-.09705-.972-.193-1.458-.29004-.137-.07898-.322-.32996-.617-.32996-.132-.00098-.338.146-.471.15198-.123-.03699-.247-.07398-.37-.11096-.076.00195-.296.10693-.371.10901-.149-.04505-.297-.08912-.445-.13306-.766.05603-1.687.27905-2.424.30005-.124-.03699-.247-.0741-.371-.11109-.149.00403-.469.10401-.619.10804-.23-.04395-.461-.08899-.691-.13294-.537-.00403-1.217.13599-1.781.12598l-.445-.13306c-.641.00403-1.455.04102-2.151.01599-.223-.06592-.445-.13293-.667-.19897-.112-.00403-.407.06701-.52.06396-.148-.04394-.296-.08801-.444-.13293-2.676.00696-5.739-.30908-8.382-.30908-.28-.05896-.56-.11792-.84-.17798-.047.00403-.232.13-.297.13098-.305-.06592-.61-.13294-.914-.19995-.107.00903-.344.14905-.471.15295-.23-.04492-.461-.08996-.692-.13391-.078.00293-.293.10498-.371.10901-.438.01697-.81-.16907-1.261-.15808-.14.00403-.404.12805-.544.13098l-.445-.13293c-.205-.00696-.465.08898-.618.10803-.206-.03809-.412-.07508-.618-.11206-.22.00903-.532.19397-.743.21704-.098-.02905-.197-.05908-.296-.08801-.205.01196-.513.14196-.718.151-.384.01696-.658-.10804-1.038-.08997-.63.02893-1.429.16296-2.053.19092-.328.01599-.463-.10498-.79102-.08899-.43097.01904-1.09399.10998-1.534.12707-.33697-.052-.67498-.1051-1.013-.1571-.07898.00207-.29101.10303-.37097.10901-.59503.047-1.25104.04199-1.83002.03906-.15503-.03406-.31103-.06799-.466-.10205-.02203-.08398-.086-.15796-.18402-.18701-.151-.04492-.315.0271-.36597.16101l-.01001.026-.01202.01099c-.23096-.04493-.46198-.08899-.69196-.13391-.125.00598-.36602.14502-.471.15295-.28003-.05994-.56-.11902-.84003-.17798-.07398.00501-.237.12293-.297.13098-.30096.04004-.54199-.09094-.81598-.02502-.353025.08606-.689023.34204-1.065.41406.00799561.0509.0159912.10291.0249634.15393.9580076.73206 1.9290166.35401 2.9410366.29407.25501.052.51099.1029.76599.15491.029 0 .06202-.00293.09198-.00293l.62403-.03699c.36999-.03308.74597-.07398 1.065-.08606.099.02905.198.05908.29596.08801.78204-.03296 1.75806-.16394 2.54803-.18994.206.03699.41199.07398.61799.11194.32501-.03198.875-.14392 1.21202-.151.422-.00904.651.14197 1.038.09106.059-.00805.224-.12805.297-.13098.124.03699.247.07398.371.11096.19-.00805.51-.13904.718-.15197.37.03796.741.07592 1.112.11291.48-.01892 1.093-.18298 1.558-.19299.149.04406.297.08899.445.13305l.124-.109c.229-.02405.473.00097.668-.02002.181.02905.362.05896.544.08898.481-.00292 1.122.01001 1.582-.03894.312-.03405.526.14002.865.11194.052-.005.23-.12793.298-.13098.313.04505.626.08899.939.13403.074-.05102.148-.10205.223-.15307.28.05908.56.11902.84.1781 1.831-.05811 4.232.21191 5.86.21399.304.06701.609.13391.914.19995.61-.03503 1.465-.10303 2.102-.104.329.07397.659.14904.988.22302.699.02099 1.624.23694 2.324.182.041-.03698.083-.07299.124-.10998.329.07495.659.14893.988.22302.912-.05603 1.952-.21802 2.944-.14612.181.01404.404.23706.741.22205.041-.03601.082-.073.124-.10901.148.04407.296.08801.444.13306.13-.01502.359-.19007.496-.219.379-.078.715.09998 1.137.04798.122-.01599.305-.15503.47-.15296.505.00696.949.3949 1.334.39893.254.00305.472-.21094.669-.23999.593.10498 1.186.20898 1.779.31299.497.01904 1.088.15002 1.607.11401.236-.01599.604-.11401.866-.10706.173.05103.345.10303.518.15503.083 0 .348-.08801.446-.08691.148.04492.296.08899.444.13293.106-.00793.345-.14794.471-.15197.123.03698.247.07397.37.11096.263-.00903.628-.15503.891-.17297.524-.03699 1.005.13793 1.533.09204.7-.06202 1.546-.15601 2.226-.21302.157.02198.313.04395.47.06702.041-.03699.083-.073.124-.10999.123.03699.247.07398.37.11097.075-.05103.149-.10205.223-.15308l.396.04504c.139-.02404.349-.19604.495-.21801.567-.08496 1.087.07605 1.657-.01697.158-.026.569-.19495.743-.21802.263.03101.527.06104.791.08997.284-.01599.718-.14295.965-.1499.148.04394.296.08789.444.13293.076-.00195.295-.10596.371-.10901.231.04407.462.08899.692.13306.546 0 1.275-.17603 1.806-.19202.148.04395.297.08899.445.13294.304-.00599.777-.11695 1.113-.10694.198.05896.395.11804.593.17798.192.00403.5-.08997.692-.08594.305.0669.61.13294.915.19995.212.00794.598-.05395.767-.06396l.444.13293c.681-.00903 1.53-.12097 2.201-.14697.432-.01697.694.13294 1.113.11304.465-.02307 1.101-.15906 1.558-.19299.157.02197.313.04394.47.06689.074-.0509.149-.10193.223-.15295.439-.068.821.12304 1.285.09106 1.253-.08606 2.627-.34802 3.884-.45007.438-.03504.94-.01099 1.336-.04004.123.03711.247.07409.37.11108.157-.01806.451-.16699.644-.17407.436-.01502.778.16504 1.186.13501 1.551-.11401 3.308-.12195 4.823-.31592.182.02991.363.05994.544.08997.273-.01697.65-.20398.916-.23902.288.03699.577.07495.865.11206.561-.0321 1.284-.29101 1.856-.32409.675-.03894 1.321.09399 1.978.00598.06-.00794.222-.125.297-.13098.181.03003.362.05908.544.08899.075-.00391.237-.12195.297-.13098.314-.04297.497.04907.816.02502.544-.04199 1.201-.12195 1.781-.12695.098.0299.197.05896.296.08899.076-.00403.296-.10804.371-.10901.173.052.346.10302.519.15503.701.01892 1.555.13989 2.275.09399 4.235-.27002 8.753-.03101 13.081-.11609.478-.01001.779.15808 1.261.15698.43-.00195 1.041-.07397 1.434-.08398.313.04504.626.09009.939.13403 2.001-.073 4.324.06702 6.355-.00403.605-.02099 1.138.21204 1.755.15906 1.103-.09497 2.396-.18103 3.537-.18799.256.05201.511.10401.766.15601.189-.00501.512-.1471.718-.151.435-.01001.763.15295 1.186.13391 3.509-.14893 7.442-.16492 10.758-.29797.386-.016.887.19006 1.26.15698 2.144-.18897 4.71.10205 6.924.01904.231.04505.461.08997.692.13403.203-.005.515-.14209.718-.151.099.02893.197.05896.296.08802.294-.01209.757-.1211 1.039-.12903.124.03699.247.07397.371.11096.066-.00293.248-.12695.297-.13098.148.04504.296.08899.445.13306.217-.00306.582-.1211.791-.12903.231.04394.462.08899.692.13293.382.00305.914-.10791 1.287-.12793.098.03003.197.05896.296.08899.055-.00598.226-.125.297-.13098.358-.02808.62.09595.964.06897.203-.01697.516-.14905.718-.15198.173.052.346.10401.519.15503.418-.0061.951-.19702 1.336-.25903.148.04394.296.08801.444.13293.212-.005.522-.13501.718-.15198.157.02198.313.04505.47.06702.483-.05896 1.038-.23804 1.509-.281.264.03002.527.06005.791.08996.285-.03894.684-.20093.99-.21692.099.02991.198.05994.296.08899.071-.00403.243-.125.297-.13098.24.02295.478.04492.717.06799 1.133-.09204 2.446-.19006 3.587-.31909.208-.02392.293.11707.371.11109.176-.01404.328-.210087.495-.218022.066.043942.132.088012.197.131962.208-.00403.575-.117924.792-.130009.099.03003.198.060059.296.088989.075-.0509.149-.101928.223-.152954.24.02295.478.045044.717.067994 1.016-.067994 2.008.06506 3.116.05298.75-.00904 1.725-.00196 2.498-.058962.4-.030029.657.170042 1.087.177982.279.00598.668-.08594.94-.08496.124.03698.247.07397.371.11096.397-.00794.956-.10303 1.36-.10596.503.05298 1.005.10596 1.508.15796.397-.00305.973-.07495 1.36-.10596.47.06702.939.13501 1.409.20191.157-.00391.441-.10889.618-.10791l.618.11096c.146-.01904.425-.18298.57-.19605.23.04505.461.08912.692.13404.185-.00794.479-.15894.643-.17395.124.03698.247.07397.371.11096.159-.00403.533-.07898.692-.08594.099.02991.198.05896.297.08899.768-.06799 1.664-.146 2.399-.234985.394-.048096.818.116945 1.212.068965.275-.033076.747-.118037 1.039-.128047.181.029053.362.059082.543.088989.812-.057983 1.827-.213012 2.647-.234009.123.036988.247.074097.371.111084.195 0 .497-.085083.692-.086059.206.036987.412.073974.618.110962.947-.007935 2.165-.015991 3.141-.01294.23.045044.461.089966.691.13403.227-.0011.599-.046994.841-.041989l.371.110959c.183-.00903.406-.235959.421-.239987.074-.016968 1.186.265017 1.384.266967.529.00598 1.258-.04297 1.756-.06103.412.07507.823.14904 1.235.22302 1.386-.03894 2.961.07202 4.352.057.412.07398.824.14808 1.236.22205.227-.00403.639-.09997.866-.10705.23.04504.461.08898.692.13403.175.00097.463-.10706.618-.10803.198.05908.395.11804.593.177.438 0 1.085-.06897 1.509-.06201l.444.13305c.486.01001 1.26.01001 1.731.00501.148.04492.297.08899.445.13293.955-.01001 2.145-.0039 3.066-.03491.521-.01709.86.13696 1.36.11292.077-.00293.294-.10596.371-.10791.123.03698.247.07397.371.11096.315.00293.867-.01404 1.162-.01905.123.03699.247.07398.37.11109.074-.00305.239-.12403.297-.13111.317-.03991.516.125.866.11207.159-.00599.419-.10804.618-.10804.099.03003.198.05909.297.08899 1.999-.08301 4.156-.18298 6.133-.28991.439-.02405.741.151 1.187.13501.437-.01612 1.075-.10206 1.533-.12806l.445.13294c.19-.00098.637-.04395.841-.0409.123.03699.247.07398.37.11097.788-.01099 1.863.14196 2.67.13903.148.04395.297.08789.445.13294.24-.00195.775-.06494 1.014-.06299.247.07398.494.14697.741.22095.222.00708.602-.04993.841-.0409.148.04395.296.08789.445.13294.847-.00501 1.909.10303 2.769.09497.255.052.51.104.766.15601.781-.01795 1.786-.03699 2.572-.03699.28.06006.559.11902.84.17908.328-.01307.896-.12806 1.212-.15101l.444.13294c.221.00696.58-.05994.767-.06397.124.03699.247.07398.371.11097.746.00598 1.591-.11304 2.349-.10303.231.04504.461.08899.692.13403.334.00403.826-.02502 1.162-.01904.28.06006.56.11902.84.1781.075-.0011.297-.10706.372-.10901.465-.00708.942.20593 1.409.2019.571-.00598 1.374-.07092 1.929-.0819.405-.00904.594.16992 1.013.156.134-.005.336-.14807.47-.15198.436-.01306.664.17591 1.088.17798.761.00501 1.748-.06604 2.497-.05798.33.07397.659.14795.989.22192.016-.04394.033-.08801.05-.13196.263.03003.527.05994.79.08997.695-.08899 1.665-.13599 2.375-.16894.099.0299.198.05993.296.08898.078-.00305.294-.10705.372-.10803.473-.01294.892.13306 1.359.11304 3.2-.13709 6.546.10901 9.891.24695.403.09607.807.19299 1.21.28906.88.00391 1.936.0719 2.843.11792.33.07397.659.14807.989.22205.308.01599.769.01403 1.063.02502.148.04395.296.08899.445.13294 2.691-.15394 5.722.31604 8.48.26501.502-.00903.938.14905 1.424.18701z" fill="#1a1311" fill-rule="evenodd"/></svg>