<svg preserveAspectRatio="none" width="100%" height="100%" overflow="visible" style="display: block;" viewBox="0 0 311.016 5.01704" fill="none" xmlns="http://www.w3.org/2000/svg">
<path id="&#227;&#131;&#145;&#227;&#130;&#185; 154" fill-rule="evenodd" clip-rule="evenodd" d="M307.486 4.76411C307.706 4.75105 307.939 4.73909 308.123 4.74605L308.568 4.8791L308.766 4.79109C308.89 4.82808 309.013 4.86507 309.137 4.90205C309.686 4.88911 310.274 4.80403 310.991 5.01704C310.999 4.99507 311.007 4.9731 311.016 4.95113C310.589 4.58113 310.322 4.16011 309.783 3.85005C309.204 4.06404 308.133 3.8011 307.41 3.80012C307.397 3.80012 307.382 3.80012 307.369 3.79903L307.334 3.78902C307.294 3.77705 307.252 3.78206 307.217 3.79805C306.219 3.79207 305.074 3.75508 304.121 3.76912C303.418 3.77913 302.814 3.47212 302.094 3.45613C301.503 3.44209 300.636 3.61909 300.041 3.64802C299.855 3.65608 299.862 3.50008 299.77 3.49312C298.812 3.42512 297.547 3.44112 296.58 3.41804C296.276 3.35213 295.971 3.28511 295.666 3.21809C294.569 3.18306 293.293 3.01802 292.205 2.98909C291.689 2.97505 291.204 2.68013 290.673 2.67708C290.592 2.67708 290.325 2.76509 290.228 2.76411L289.783 2.63106C289.742 2.66804 289.7 2.70405 289.659 2.74007C289.263 2.76411 289.042 2.56709 288.646 2.58406C288.526 2.58906 288.344 2.75203 288.249 2.75813C288.11 2.69209 287.97 2.62605 287.83 2.56013C287.627 2.5461 286.999 2.67903 286.791 2.68806C286.568 2.62202 286.346 2.55611 286.124 2.48909C286.049 2.54011 285.975 2.59102 285.901 2.64204C285.555 2.61201 285.209 2.58113 284.863 2.5511C284.329 2.55611 283.499 2.57905 282.958 2.56807L282.514 2.43513C282.413 2.42903 282.246 2.5041 282.068 2.52205L281.525 2.43208C281.432 2.44502 281.22 2.60005 281.128 2.60603C280.931 2.54707 280.733 2.48811 280.536 2.42903C280.461 2.48006 280.387 2.53108 280.312 2.58211C279.947 2.61604 279.377 2.40108 278.978 2.40303C278.716 2.40413 278.212 2.45808 277.964 2.46602C277.733 2.4211 277.502 2.37703 277.272 2.33211C276.703 2.34309 275.97 2.48811 275.392 2.50313C275.268 2.46602 275.145 2.42903 275.021 2.39204C274.923 2.39107 274.66 2.4781 274.576 2.4781C274.161 2.48213 273.948 2.30403 273.563 2.3221C273.301 2.33406 272.948 2.48811 272.672 2.49507C272.34 2.50313 271.977 2.30806 271.659 2.33809C271.543 2.35005 271.348 2.49202 271.188 2.49104C270.68 2.48701 270.196 2.23408 269.705 2.26704C269.581 2.2751 269.482 2.44905 269.383 2.46406C268.922 2.37508 268.461 2.28511 267.999 2.19612C267.442 2.20503 266.778 2.32002 266.219 2.32307C265.712 2.32503 265.442 2.09505 264.909 2.07808C264.603 2.06807 264.12 2.12312 263.821 2.11909C263.565 2.06709 263.31 2.01509 263.055 1.96309C261.506 1.94209 259.785 1.99702 258.257 1.99312C258.06 1.93404 257.862 1.87508 257.665 1.81612C257.495 1.82002 257.187 1.9781 257.021 1.99007C256.54 2.02608 256.034 1.76301 255.538 1.76607C254.973 1.76912 254.292 1.89705 253.757 1.89302C253.502 1.84102 253.247 1.78902 252.991 1.73701C252.961 1.73909 252.64 1.83003 252.546 1.82405C252.381 1.75008 252.217 1.6761 252.052 1.6031C251.889 1.6031 251.732 1.81404 251.557 1.82112C251.359 1.76204 251.162 1.70308 250.964 1.64412L250.766 1.73103C250.626 1.66511 250.486 1.5981 250.346 1.53206L250.148 1.61909C249.951 1.56013 249.753 1.50105 249.555 1.44209C248.229 1.49507 246.713 1.16902 245.377 1.14509C244.951 1.13704 244.716 0.972121 244.29 0.966018C244.086 0.964065 243.727 1.03413 243.523 1.0301C243.375 0.986037 243.227 0.941115 243.078 0.897048C242.923 0.91011 242.679 1.08406 242.509 1.09309C242.171 1.04109 241.834 0.989089 241.496 0.936111C241.455 0.973098 241.413 1.00911 241.372 1.0461C241.174 0.987014 240.977 0.928054 240.779 0.869094C240.595 0.873122 240.329 1.03303 240.135 1.04207C240.037 1.01301 239.938 0.983108 239.839 0.954055C239.69 0.960036 239.369 1.06013 239.22 1.06209L238.776 0.929031L238.652 1.03804C238.487 1.03804 238.322 1.03706 238.157 1.03706C238.108 1.09505 238.058 1.15413 238.008 1.21211C237.811 1.15303 237.613 1.09407 237.415 1.03511C237.111 1.04109 236.576 1.19905 236.277 1.20711C236.129 1.16304 235.981 1.11812 235.833 1.07405C235.597 1.07002 235.193 1.0511 234.918 1.09309C234.843 1.14509 234.769 1.19612 234.695 1.24605C234.665 1.2491 234.204 1.09712 234.003 1.11311C233.824 1.12703 233.475 1.26009 233.285 1.26411C232.822 1.27705 232.388 0.996047 231.901 0.997024C231.69 0.998122 231.263 1.0981 231.035 1.10408C230.595 1.11812 230.279 0.927077 229.849 0.970046C228.387 1.11311 226.71 0.957107 225.2 1.04402C225.076 1.00703 224.953 0.970046 224.829 0.933059C224.601 0.928054 224.187 0.975051 223.988 0.975051C223.816 0.923049 223.643 0.872024 223.47 0.820022C223.302 0.83113 222.948 0.971023 222.752 0.971023C222.447 0.905105 222.143 0.838088 221.838 0.771072C220.975 0.848098 219.773 0.714065 218.623 0.762038C218.426 0.703078 218.228 0.644118 218.031 0.585036C217.777 0.579055 217.483 0.71907 217.239 0.714065C216.967 0.633132 216.695 0.552077 216.424 0.471023C216.197 0.472121 215.813 0.58113 215.558 0.578078C215.152 0.573074 214.948 0.408034 214.544 0.421096C214.478 0.424026 214.297 0.549026 214.247 0.552077L213.803 0.420119C213.736 0.421096 213.555 0.546096 213.505 0.550124C213.382 0.513015 213.258 0.476028 213.135 0.43904C212.474 0.419021 211.804 0.211135 211.083 0.192092C210.913 0.188064 210.602 0.289016 210.465 0.300124L210.094 0.190017C210.005 0.202102 209.916 0.392043 209.846 0.408034C209.673 0.357131 209.5 0.305129 209.327 0.253127C209.071 0.249099 208.641 0.339065 208.387 0.338088C208.058 0.264114 207.729 0.190017 207.399 0.116042C207.358 0.152053 207.317 0.18904 207.275 0.225051C207.027 0.26509 206.648 0.269118 206.434 0.267043C206.204 0.222121 205.973 0.178054 205.742 0.133132C205.621 0.148025 205.437 0.288039 205.272 0.286086C205.05 0.21907 204.827 0.15303 204.605 0.086135C204.409 0.0850364 203.991 0.133132 203.764 0.128127C203.641 0.0910178 203.517 0.0540305 203.394 0.0170432C203.319 0.0680686 203.245 0.119094 203.171 0.170119C203.022 0.126052 202.874 0.0811301 202.726 0.0370627C202.61 0.125075 202.495 0.212112 202.379 0.299026C202.132 0.305129 202.376 0.0380393 202.058 0.0570823C202.042 0.101028 202.025 0.145095 202.008 0.18904C201.677 0.221023 201.255 -0.0199441 200.921 0.0100852C200.364 0.0590354 199.601 0.157058 199.041 0.180129C198.86 0.1501 198.679 0.121047 198.497 0.0910178C198.303 0.105056 198.039 0.259109 197.854 0.26509C197.623 0.220046 197.393 0.175124 197.162 0.131057C197.01 0.1501 196.677 0.296096 196.518 0.305129L195.926 0.128127C195.826 0.137038 195.652 0.294021 195.529 0.302077C195.431 0.272048 195.332 0.243117 195.233 0.213088C195.029 0.224074 194.719 0.356032 194.515 0.365066C194.12 0.382033 193.797 0.231032 193.403 0.252029C193.329 0.256057 193.165 0.375075 193.106 0.383132C192.949 0.360061 192.793 0.338088 192.636 0.316115C192.578 0.32405 192.412 0.445022 192.339 0.44612C192.166 0.395095 191.993 0.343093 191.82 0.291091C191.603 0.286086 191.086 0.239089 190.831 0.289016C190.757 0.340041 190.682 0.391067 190.608 0.442092C190.46 0.397048 190.312 0.353103 190.163 0.309035C189.908 0.311111 189.482 0.395095 189.223 0.394118C189.1 0.357131 188.976 0.320022 188.853 0.283034C186.161 0.349074 183.275 0.101028 180.718 0.194045C180.355 0.135085 179.993 0.0750266 179.63 0.0160667C178.844 0.020095 177.836 0.093093 177.033 0.118117C176.703 0.129104 176.494 -0.0328835 176.169 0.00605689C176.094 0.0570823 176.02 0.108108 175.945 0.159133C175.427 0.223098 175.004 0.0420676 174.487 0.0890647C174.26 0.110061 173.915 0.267043 173.67 0.284133C173.546 0.247024 173.423 0.210036 173.299 0.173049C173.214 0.174026 172.985 0.27803 172.928 0.282058C172.805 0.245071 172.681 0.208083 172.558 0.171096C172.413 0.176101 172.158 0.290114 172.013 0.301101L171.791 0.235061C171.565 0.25508 171.309 0.454055 171.122 0.475051L170.604 0.320022C170.52 0.320022 170.257 0.405105 170.158 0.406081C170.059 0.376052 169.961 0.347121 169.862 0.317092C168.949 0.350051 167.867 0.478103 166.968 0.551101C166.646 0.576125 166.399 0.453078 166.078 0.504104C166.004 0.555129 165.929 0.606032 165.855 0.657058C165.522 0.731032 165.226 0.597121 164.866 0.654128C164.791 0.705032 164.717 0.756057 164.643 0.807082L164.247 0.762038C164.206 0.799026 164.164 0.835036 164.123 0.872024C163.999 0.835036 163.876 0.798049 163.752 0.761062C163.649 0.773025 163.483 0.931106 163.356 0.935134C163.208 0.891067 163.06 0.847121 162.912 0.802077C162.64 0.806106 162.261 0.943069 162.021 0.976028C161.575 1.03511 161.196 0.897048 160.784 0.972121C160.743 1.00911 160.702 1.04512 160.66 1.08113C160.562 1.05208 160.463 1.02205 160.364 0.993117C160.184 0.997024 159.907 1.09212 159.745 1.10103C159.647 1.07112 159.548 1.04207 159.449 1.01204C159.319 1.02302 159.182 1.17305 159.053 1.18709C158.871 1.15706 158.69 1.12703 158.509 1.09712L158.311 1.18513C158.072 1.16206 157.833 1.13911 157.594 1.11702L157.47 1.22603L156.852 1.11507C156.566 1.11104 156.101 1.17012 155.838 1.17805C155.608 1.13313 155.377 1.08809 155.146 1.04402C155.005 1.04805 154.743 1.16902 154.602 1.17403C153.266 1.22005 151.937 1.1971 150.62 1.22908C150.216 1.23811 150.012 1.06709 149.607 1.0721C149.053 1.07905 148.336 1.11812 147.777 1.11104C147.286 1.10506 146.997 0.94905 146.517 0.954055C146.35 0.955032 146.101 1.07112 145.972 1.08406C145.407 1.14107 144.878 0.924026 144.291 0.948074C143.502 0.978103 142.475 1.12508 141.669 1.11604C141.521 1.07112 141.373 1.02705 141.225 0.983108C140.67 0.972121 139.976 1.07405 139.444 1.10908C139.098 1.13203 138.687 0.980056 138.332 0.997024C138.188 1.00313 137.931 1.12007 137.787 1.12703C137.385 1.14412 137.082 0.995071 136.675 1.01411C136.55 1.02009 136.38 1.17805 136.278 1.18806L135.834 1.05513C135.626 1.06013 135.258 1.17903 135.042 1.18513C134.659 1.19502 134.485 1.08003 134.152 1.13801C134.111 1.17512 134.069 1.21114 134.028 1.24812C133.655 1.29512 132.968 1.08406 132.767 1.09102C131.978 1.11604 130.971 1.16902 130.171 1.19307C129.728 1.20613 129.311 1.05012 128.885 1.10103C128.811 1.15303 128.736 1.20405 128.662 1.25508C128.431 1.21004 128.201 1.16511 127.97 1.12105C127.842 1.12605 127.68 1.28108 127.574 1.29512C127.24 1.33906 127.064 1.17403 126.709 1.18306C124.809 1.23506 122.602 1.11702 120.7 1.14412C120.148 1.15205 119.797 0.964065 119.266 1.00911C117.293 1.17305 114.927 0.980056 112.911 1.01301C112.763 0.968093 112.615 0.924026 112.467 0.88008C112.157 0.885085 111.617 1.0461 111.329 1.05208C111.238 1.00008 111.148 0.94905 111.057 0.898025C110.978 0.896072 110.707 0.985061 110.612 0.984084C110.488 0.947097 110.365 0.91011 110.241 0.873122C109.279 0.888015 108.108 0.911086 107.15 0.974074C106.779 0.937087 106.408 0.899123 106.038 0.861037C105.961 0.864089 105.612 0.89302 105.518 0.926101C105.501 0.970046 105.485 1.01411 105.468 1.05708C105.29 1.09309 105.187 0.882033 105.123 0.881057C105.057 0.88008 104.875 1.00813 104.825 1.01204C104.449 1.04207 104.266 0.869094 103.886 0.877029C103.157 0.894118 102.242 1.04207 101.512 1.0461C101.256 0.994094 101.001 0.942092 100.746 0.89009C100.487 0.892043 100.015 0.953078 99.732 0.953078C99.501 0.909133 99.27 0.864089 99.04 0.820022C98.998 0.856032 98.957 0.89302 98.916 0.929031C98.743 0.878127 98.57 0.826125 98.397 0.774123C97.442 0.751052 96.387 0.887038 95.503 1.00703C95.264 0.985061 95.025 0.962112 94.786 0.940017C94.489 0.951125 94.044 1.06209 93.747 1.06807L93.129 0.957107C93.002 0.968093 92.839 1.11702 92.733 1.13106C92.385 1.17708 92.178 1.05611 91.843 1.08504C91.709 1.09602 91.489 1.22102 91.373 1.23701C91.216 1.21504 91.06 1.19209 90.903 1.17012C90.826 1.17708 90.669 1.29109 90.606 1.3011C90.532 1.27913 90.458 1.25606 90.384 1.23408C90.342 1.27107 90.301 1.30708 90.26 1.34407C89.9 1.3791 89.711 1.26411 89.37 1.29707C89.178 1.31612 88.926 1.46114 88.726 1.47102C88.545 1.44112 88.364 1.41109 88.182 1.38203C88.072 1.39912 87.917 1.54805 87.786 1.55611C87.555 1.51204 87.325 1.46712 87.094 1.42305C87.02 1.47407 86.945 1.5251 86.871 1.57613L86.649 1.50911C86.413 1.53108 86.018 1.60103 85.783 1.61604C85.438 1.63801 85.235 1.48006 84.844 1.48213C84.609 1.48311 84.199 1.57405 83.978 1.58906L83.187 1.4991C83.054 1.50703 82.849 1.65205 82.717 1.65205C82.651 1.60713 82.585 1.56306 82.519 1.51912C82.13 1.49702 81.64 1.56905 81.258 1.58211L80.714 1.49202C80.389 1.51301 79.823 1.73811 79.452 1.77412C79.353 1.74507 79.254 1.71504 79.156 1.68513C79.084 1.69002 78.915 1.81013 78.858 1.81612C78.76 1.78706 78.661 1.75703 78.562 1.7281L78.438 1.83711C78.224 1.87605 78.105 1.79207 77.869 1.81306C77.797 1.82002 77.629 1.93806 77.572 1.94405C77.473 1.91511 77.374 1.88509 77.276 1.85603C76.918 1.89705 76.417 2.05513 76.039 2.0721L75.248 1.98213C75.206 2.01802 75.165 2.05513 75.124 2.09102C75.025 2.06111 74.926 2.03206 74.827 2.00203C74.391 2.0511 73.785 2.19307 73.343 2.21809C73.244 2.18806 73.145 2.15913 73.046 2.1291C72.992 2.13509 72.82 2.25703 72.749 2.26009C72.626 2.2231 72.502 2.18611 72.379 2.14912C72.265 2.15803 71.965 2.27608 71.834 2.27913C71.711 2.24202 71.587 2.20503 71.464 2.16902C70.632 2.18611 69.696 2.3481 68.842 2.33711C68.512 2.26301 68.183 2.18806 67.854 2.11409C67.126 2.09102 66.1 2.03511 65.406 2.04207C65.257 1.99702 65.109 1.95308 64.961 1.90913C64.776 1.91511 64.512 2.06807 64.318 2.08308C64.136 2.05305 63.955 2.02302 63.774 1.99312C63.247 2.01204 62.525 2.1291 61.993 2.12007C61.927 2.07613 61.861 2.03206 61.796 1.98811C61.571 1.9731 61.222 2.03902 61.029 2.0511C60.79 2.02913 60.551 2.00606 60.312 1.98311C58.208 2.13606 55.986 2.37605 53.955 2.64607C53.561 2.69807 53.279 2.58906 52.891 2.62105C52.244 2.67403 51.452 2.8011 50.813 2.87813C50.657 2.85603 50.5 2.83406 50.344 2.81111C49.864 2.84407 49.243 2.91902 48.736 2.91609C48.613 2.88008 48.489 2.84309 48.366 2.80611C48.024 2.82808 47.473 2.93709 47.153 2.95613C46.467 2.99605 45.57 2.82905 44.904 2.7961C44.418 2.69905 43.932 2.6031 43.446 2.50606C43.309 2.42708 43.124 2.1761 42.829 2.1761C42.697 2.17512 42.491 2.3221 42.358 2.32808C42.235 2.29109 42.111 2.2541 41.988 2.21712C41.912 2.21907 41.692 2.32405 41.617 2.32613C41.468 2.28108 41.32 2.23701 41.172 2.19307C40.406 2.2491 39.485 2.47212 38.748 2.49312C38.624 2.45613 38.501 2.41902 38.377 2.38203C38.228 2.38606 37.908 2.48604 37.758 2.49007C37.528 2.44612 37.297 2.40108 37.067 2.35713C36.53 2.3531 35.85 2.49312 35.286 2.48311L34.841 2.35005C34.2 2.35408 33.386 2.39107 32.69 2.36604C32.467 2.30012 32.245 2.23311 32.023 2.16707C31.911 2.16304 31.616 2.23408 31.503 2.23103C31.355 2.18709 31.207 2.14302 31.059 2.0981C28.383 2.10506 25.32 1.78902 22.677 1.78902C22.397 1.73006 22.117 1.6711 21.837 1.61104C21.79 1.61507 21.605 1.74104 21.54 1.74202C21.235 1.6761 20.93 1.60908 20.626 1.54207C20.519 1.5511 20.282 1.69112 20.155 1.69502C19.925 1.6501 19.694 1.60506 19.463 1.56111C19.385 1.56404 19.17 1.66609 19.092 1.67012C18.654 1.68709 18.282 1.50105 17.831 1.51204C17.691 1.51607 17.427 1.64009 17.287 1.64302L16.842 1.51009C16.637 1.50313 16.377 1.59907 16.224 1.61812C16.018 1.58003 15.812 1.54304 15.606 1.50606C15.386 1.51509 15.074 1.70003 14.863 1.7231C14.765 1.69405 14.666 1.66402 14.567 1.63509C14.362 1.64705 14.054 1.77705 13.849 1.78609C13.465 1.80305 13.191 1.67805 12.811 1.69612C12.181 1.72505 11.382 1.85908 10.758 1.88704C10.43 1.90303 10.295 1.78206 9.96698 1.79805C9.53601 1.81709 8.87299 1.90803 8.43298 1.92512C8.09601 1.87312 7.758 1.82002 7.41998 1.76802C7.341 1.77009 7.12897 1.87105 7.04901 1.87703C6.45398 1.92403 5.79797 1.91902 5.21899 1.91609C5.06396 1.88203 4.90796 1.8481 4.75299 1.81404C4.73096 1.73006 4.66699 1.65608 4.56897 1.62703C4.41797 1.58211 4.25397 1.65413 4.203 1.78804L4.19299 1.81404L4.18097 1.82503C3.95001 1.7801 3.71899 1.73604 3.48901 1.69112C3.36401 1.6971 3.12299 1.83614 3.01801 1.84407C2.73798 1.78413 2.45801 1.72505 2.17798 1.66609C2.104 1.6711 1.94098 1.78902 1.88098 1.79707C1.58002 1.83711 1.33899 1.70613 1.065 1.77205C0.711975 1.85811 0.375977 2.11409 0 2.18611C0.00799561 2.23701 0.0159912 2.28902 0.0249634 2.34004C0.982971 3.0721 1.95398 2.69405 2.966 2.63411C3.22101 2.68611 3.47699 2.73701 3.73199 2.78902C3.76099 2.78902 3.79401 2.78609 3.82397 2.78609L4.448 2.7491C4.81799 2.71602 5.19397 2.67512 5.513 2.66304C5.612 2.69209 5.711 2.72212 5.80896 2.75105C6.591 2.71809 7.56702 2.58711 8.35699 2.56111C8.56299 2.5981 8.76898 2.63509 8.97498 2.67305C9.29999 2.64107 9.84998 2.52913 10.187 2.52205C10.609 2.51301 10.838 2.66402 11.225 2.61311C11.284 2.60506 11.449 2.48506 11.522 2.48213C11.646 2.51912 11.769 2.55611 11.893 2.59309C12.083 2.58504 12.403 2.45405 12.611 2.44112C12.981 2.47908 13.352 2.51704 13.723 2.55403C14.203 2.53511 14.816 2.37105 15.281 2.36104C15.43 2.4051 15.578 2.45003 15.726 2.49409L15.85 2.38509C16.079 2.36104 16.323 2.38606 16.518 2.36507C16.699 2.39412 16.88 2.42403 17.062 2.45405C17.543 2.45113 18.184 2.46406 18.644 2.41511C18.956 2.38106 19.17 2.55513 19.509 2.52705C19.561 2.52205 19.739 2.39912 19.807 2.39607C20.12 2.44112 20.433 2.48506 20.746 2.5301C20.82 2.47908 20.894 2.42805 20.969 2.37703C21.249 2.43611 21.529 2.49605 21.809 2.55513C23.64 2.49702 26.041 2.76704 27.669 2.76912C27.973 2.83613 28.278 2.90303 28.583 2.96907C29.193 2.93404 30.048 2.86604 30.685 2.86507C31.014 2.93904 31.344 3.01411 31.673 3.08809C32.372 3.10908 33.297 3.32503 33.997 3.27009C34.038 3.23311 34.08 3.1971 34.121 3.16011C34.45 3.23506 34.78 3.30904 35.109 3.38313C36.021 3.3271 37.061 3.16511 38.053 3.23701C38.234 3.25105 38.457 3.47407 38.794 3.45906C38.835 3.42305 38.876 3.38606 38.918 3.35005C39.066 3.39412 39.214 3.43806 39.362 3.48311C39.492 3.46809 39.721 3.29304 39.858 3.26411C40.237 3.18611 40.573 3.36409 40.995 3.31209C41.117 3.2961 41.3 3.15706 41.465 3.15913C41.97 3.16609 42.414 3.55403 42.799 3.55806C43.053 3.56111 43.271 3.34712 43.468 3.31807C44.061 3.42305 44.654 3.52705 45.247 3.63106C45.744 3.6501 46.335 3.78108 46.854 3.74507C47.09 3.72908 47.458 3.63106 47.72 3.63801C47.893 3.68904 48.065 3.74104 48.238 3.79304C48.321 3.79304 48.586 3.70503 48.684 3.70613C48.832 3.75105 48.98 3.79512 49.128 3.83906C49.234 3.83113 49.473 3.69112 49.599 3.68709C49.722 3.72407 49.846 3.76106 49.969 3.79805C50.232 3.78902 50.597 3.64302 50.86 3.62508C51.384 3.58809 51.865 3.76301 52.393 3.71712C53.093 3.6551 53.939 3.56111 54.619 3.5041C54.776 3.52608 54.932 3.54805 55.089 3.57112C55.13 3.53413 55.172 3.49812 55.213 3.46113C55.336 3.49812 55.46 3.53511 55.583 3.5721C55.658 3.52107 55.732 3.47005 55.806 3.41902L56.202 3.46406C56.341 3.44002 56.551 3.26802 56.697 3.24605C57.264 3.16109 57.784 3.3221 58.354 3.22908C58.512 3.20308 58.923 3.03413 59.097 3.01106C59.36 3.04207 59.624 3.0721 59.888 3.10103C60.172 3.08504 60.606 2.95808 60.853 2.95113C61.001 2.99507 61.149 3.03902 61.297 3.08406C61.373 3.08211 61.592 2.9781 61.668 2.97505C61.899 3.01912 62.13 3.06404 62.36 3.10811C62.906 3.10811 63.635 2.93208 64.166 2.91609C64.314 2.96004 64.463 3.00508 64.611 3.04903C64.915 3.04304 65.388 2.93208 65.724 2.94209C65.922 3.00105 66.119 3.06013 66.317 3.12007C66.509 3.1241 66.817 3.0301 67.009 3.03413C67.314 3.10103 67.619 3.16707 67.924 3.23408C68.136 3.24202 68.522 3.18013 68.691 3.17012L69.135 3.30305C69.816 3.29402 70.665 3.18208 71.336 3.15608C71.768 3.13911 72.03 3.28902 72.449 3.26912C72.914 3.24605 73.55 3.11006 74.007 3.07613C74.164 3.0981 74.32 3.12007 74.477 3.14302C74.551 3.09212 74.626 3.04109 74.7 2.99007C75.139 2.92207 75.521 3.11311 75.985 3.08113C77.238 2.99507 78.612 2.73311 79.869 2.63106C80.307 2.59602 80.809 2.62007 81.205 2.59102C81.328 2.62813 81.452 2.66511 81.575 2.7021C81.732 2.68404 82.026 2.53511 82.219 2.52803C82.655 2.51301 82.997 2.69307 83.405 2.66304C84.956 2.54903 86.713 2.54109 88.228 2.34712C88.41 2.37703 88.591 2.40706 88.772 2.43709C89.045 2.42012 89.422 2.23311 89.688 2.19807C89.976 2.23506 90.265 2.27302 90.553 2.31013C91.114 2.27803 91.837 2.01912 92.409 1.98604C93.084 1.9471 93.73 2.08003 94.387 1.99202C94.447 1.98408 94.609 1.86702 94.684 1.86104C94.865 1.89107 95.046 1.92012 95.228 1.95003C95.303 1.94612 95.465 1.82808 95.525 1.81905C95.839 1.77608 96.022 1.86812 96.341 1.84407C96.885 1.80208 97.542 1.72212 98.122 1.71712C98.22 1.74702 98.319 1.77608 98.418 1.80611C98.494 1.80208 98.714 1.69807 98.789 1.6971C98.962 1.7491 99.135 1.80012 99.308 1.85213C100.009 1.87105 100.863 1.99202 101.583 1.94612C105.818 1.6761 110.336 1.91511 114.664 1.83003C115.142 1.82002 115.443 1.98811 115.925 1.98701C116.355 1.98506 116.966 1.91304 117.359 1.90303C117.672 1.94807 117.985 1.99312 118.298 2.03706C120.299 1.96406 122.622 2.10408 124.653 2.03303C125.258 2.01204 125.791 2.24507 126.408 2.19209C127.511 2.09712 128.804 2.01106 129.945 2.0041C130.201 2.05611 130.456 2.10811 130.711 2.16011C130.9 2.1551 131.223 2.01301 131.429 2.00911C131.864 1.9991 132.192 2.16206 132.615 2.14302C136.124 1.99409 140.057 1.9781 143.373 1.84505C143.759 1.82905 144.26 2.03511 144.633 2.00203C146.777 1.81306 149.343 2.10408 151.557 2.02107C151.788 2.06612 152.018 2.11104 152.249 2.1551C152.452 2.1501 152.764 2.01301 152.967 2.0041C153.066 2.03303 153.164 2.06306 153.263 2.09212C153.557 2.08003 154.02 1.97102 154.302 1.96309C154.426 2.00008 154.549 2.03706 154.673 2.07405C154.739 2.07112 154.921 1.9471 154.97 1.94307C155.118 1.98811 155.266 2.03206 155.415 2.07613C155.632 2.07307 155.997 1.95503 156.206 1.9471C156.437 1.99104 156.668 2.03609 156.898 2.08003C157.28 2.08308 157.812 1.97212 158.185 1.9521C158.283 1.98213 158.382 2.01106 158.481 2.04109C158.536 2.03511 158.707 1.91609 158.778 1.91011C159.136 1.88203 159.398 2.00606 159.742 1.97908C159.945 1.96211 160.258 1.83003 160.46 1.8271C160.633 1.8791 160.806 1.93111 160.979 1.98213C161.397 1.97603 161.93 1.78511 162.315 1.7231C162.463 1.76704 162.611 1.81111 162.759 1.85603C162.971 1.85103 163.281 1.72102 163.477 1.70405C163.634 1.72603 163.79 1.7491 163.947 1.77107C164.43 1.71211 164.985 1.53303 165.456 1.49007C165.72 1.52009 165.983 1.55012 166.247 1.58003C166.532 1.54109 166.931 1.3791 167.237 1.36311C167.336 1.39302 167.435 1.42305 167.533 1.4521C167.604 1.44807 167.776 1.3271 167.83 1.32112C168.07 1.34407 168.308 1.36604 168.547 1.38911C169.68 1.29707 170.993 1.19905 172.134 1.07002C172.342 1.0461 172.427 1.18709 172.505 1.18111C172.681 1.16707 172.833 0.971023 173 0.963088C173.066 1.00703 173.132 1.0511 173.197 1.09505C173.405 1.09102 173.772 0.977126 173.989 0.965041C174.088 0.995071 174.187 1.0251 174.285 1.05403C174.36 1.00313 174.434 0.952102 174.508 0.901076C174.748 0.924026 174.986 0.94612 175.225 0.96907C176.241 0.901076 177.233 1.03413 178.341 1.02205C179.091 1.01301 180.066 1.02009 180.839 0.963088C181.239 0.933059 181.496 1.13313 181.926 1.14107C182.205 1.14705 182.594 1.05513 182.866 1.05611C182.99 1.09309 183.113 1.13008 183.237 1.16707C183.634 1.15913 184.193 1.06404 184.597 1.06111C185.1 1.11409 185.602 1.16707 186.105 1.21907C186.502 1.21602 187.078 1.14412 187.465 1.11311C187.935 1.18013 188.404 1.24812 188.874 1.31502C189.031 1.31111 189.315 1.20613 189.492 1.20711L190.11 1.31807C190.256 1.29903 190.535 1.13509 190.68 1.12202C190.91 1.16707 191.141 1.21114 191.372 1.25606C191.557 1.24812 191.851 1.09712 192.015 1.08211C192.139 1.11909 192.262 1.15608 192.386 1.19307C192.545 1.18904 192.919 1.11409 193.078 1.10713C193.177 1.13704 193.276 1.16609 193.375 1.19612C194.143 1.12813 195.039 1.05012 195.774 0.961135C196.168 0.913039 196.592 1.07808 196.986 1.0301C197.261 0.997024 197.733 0.912063 198.025 0.902053C198.206 0.931106 198.387 0.961135 198.568 0.991042C199.38 0.933059 200.395 0.77803 201.215 0.757033C201.338 0.794021 201.462 0.83113 201.586 0.868117C201.781 0.868117 202.083 0.783034 202.278 0.782058C202.484 0.819045 202.69 0.856032 202.896 0.89302C203.843 0.885085 205.061 0.877029 206.037 0.88008C206.267 0.925124 206.498 0.970046 206.728 1.01411C206.955 1.01301 207.327 0.967116 207.569 0.972121L207.94 1.08308C208.123 1.07405 208.346 0.847121 208.361 0.843093C208.435 0.826125 209.547 1.10811 209.745 1.11006C210.274 1.11604 211.003 1.06709 211.501 1.04903C211.913 1.1241 212.324 1.19807 212.736 1.27205C214.122 1.23311 215.697 1.34407 217.088 1.32905C217.5 1.40303 217.912 1.47713 218.324 1.5511C218.551 1.54707 218.963 1.45113 219.19 1.44405C219.42 1.48909 219.651 1.53303 219.882 1.57808C220.057 1.57905 220.345 1.47102 220.5 1.47005C220.698 1.52913 220.895 1.58809 221.093 1.64705C221.531 1.64705 222.178 1.57808 222.602 1.58504L223.046 1.71809C223.532 1.7281 224.306 1.7281 224.777 1.7231C224.925 1.76802 225.074 1.81209 225.222 1.85603C226.177 1.84602 227.367 1.85213 228.288 1.82112C228.809 1.80403 229.148 1.95808 229.648 1.93404C229.725 1.93111 229.942 1.82808 230.019 1.82613C230.142 1.86311 230.266 1.9001 230.39 1.93709C230.705 1.94002 231.257 1.92305 231.552 1.91804C231.675 1.95503 231.799 1.99202 231.922 2.02913C231.996 2.02608 232.161 1.9051 232.219 1.89802C232.536 1.85811 232.735 2.02302 233.085 2.01009C233.244 2.0041 233.504 1.90205 233.703 1.90205C233.802 1.93208 233.901 1.96114 234 1.99104C235.999 1.90803 238.156 1.80806 240.133 1.70113C240.572 1.67708 240.874 1.85213 241.32 1.83614C241.757 1.82002 242.395 1.73408 242.853 1.70808L243.298 1.84102C243.488 1.84004 243.935 1.79707 244.139 1.80012C244.262 1.83711 244.386 1.8741 244.509 1.91109C245.297 1.9001 246.372 2.05305 247.179 2.05012C247.327 2.09407 247.476 2.13801 247.624 2.18306C247.864 2.18111 248.399 2.11812 248.638 2.12007C248.885 2.19405 249.132 2.26704 249.379 2.34102C249.601 2.3481 249.981 2.29109 250.22 2.30012C250.368 2.34407 250.516 2.38801 250.665 2.43306C251.512 2.42805 252.574 2.53609 253.434 2.52803C253.689 2.58003 253.944 2.63203 254.2 2.68404C254.981 2.66609 255.986 2.64705 256.772 2.64705C257.052 2.70711 257.331 2.76607 257.612 2.82613C257.94 2.81306 258.508 2.69807 258.824 2.67512L259.268 2.80806C259.489 2.81502 259.848 2.74812 260.035 2.74409C260.159 2.78108 260.282 2.81807 260.406 2.85506C261.152 2.86104 261.997 2.74202 262.755 2.75203C262.986 2.79707 263.216 2.84102 263.447 2.88606C263.781 2.89009 264.273 2.86104 264.609 2.86702C264.889 2.92708 265.169 2.98604 265.449 3.04512C265.524 3.04402 265.746 2.93806 265.821 2.93611C266.286 2.92903 266.763 3.14204 267.23 3.13801C267.801 3.13203 268.604 3.06709 269.159 3.05611C269.564 3.04707 269.753 3.22603 270.172 3.21211C270.306 3.20711 270.508 3.06404 270.642 3.06013C271.078 3.04707 271.306 3.23604 271.73 3.23811C272.491 3.24312 273.478 3.17207 274.227 3.18013C274.557 3.2541 274.886 3.32808 275.216 3.40205C275.232 3.35811 275.249 3.31404 275.266 3.27009C275.529 3.30012 275.793 3.33003 276.056 3.36006C276.751 3.27107 277.721 3.22407 278.431 3.19112C278.53 3.22102 278.629 3.25105 278.727 3.2801C278.805 3.27705 279.021 3.17305 279.099 3.17207C279.572 3.15913 279.991 3.30513 280.458 3.28511C283.658 3.14802 287.004 3.39412 290.349 3.53206C290.752 3.62813 291.156 3.72505 291.559 3.82112C292.439 3.82503 293.495 3.89302 294.402 3.93904C294.732 4.01301 295.061 4.08711 295.391 4.16109C295.699 4.17708 296.16 4.17512 296.454 4.18611C296.602 4.23006 296.75 4.2751 296.899 4.31905C299.59 4.16511 302.621 4.63509 305.379 4.58406C305.881 4.57503 306.317 4.73311 306.803 4.77107L307.486 4.76411Z" fill="#1a1311"/>
</svg>
