<svg preserveAspectRatio="none" width="100%" height="100%" overflow="visible" style="display: block;" viewBox="0 0 385.446 486.85" fill="none" xmlns="http://www.w3.org/2000/svg">
<g id="bg">
<path id="&#227;&#131;&#145;&#227;&#130;&#185; 146" fill-rule="evenodd" clip-rule="evenodd" d="M318.865 242.661C319.006 240.861 318.987 239.726 318.99 238.087C318.996 233.866 318.793 232.696 318.689 230.091L318.636 226.31C318.66 224.807 318.894 223.296 318.697 221.795C318.668 221.571 318.62 221.337 318.562 221.096L317.913 174.823C318.296 172.622 318.258 169.449 318.42 168.204C319.036 163.488 318.986 162.162 318.99 159.567C318.99 159.111 318.988 158.701 318.984 158.31H318.99L318.865 149.427C319.006 147.626 318.987 146.492 318.99 144.853C318.996 140.632 318.793 139.462 318.689 136.856L318.636 133.076C318.659 131.573 318.894 130.062 318.697 128.561C318.668 128.337 318.62 128.103 318.562 127.862L317.913 81.5888C318.296 79.3877 318.258 76.2148 318.42 74.9688C319.036 70.2537 318.986 68.9278 318.99 66.3328C318.998 60.5967 318.62 60.5058 318.628 54.7698C318.631 53.1957 318.903 51.6127 318.697 50.0408C318.476 48.3538 317.295 46.1127 317.39 44.3978C317.559 41.3787 315.971 39.0967 315.976 36.0767L313.419 19.9307L308.326 15.2138C308.237 14.0518 307.641 13.6608 306.338 12.7267C305.599 12.1978 304.136 11.3868 303.79 10.9858C302.791 9.82573 302.726 8.95671 300.702 7.83879C297.626 6.13677 293.912 5.7238 287.8 4.56572C281.96 3.45977 273.775 1.8698 266.365 1.55974C263.651 1.44683 260.64 1.7238 257.902 1.60076C255.8 1.50481 254.242 1.20781 252.317 1.09783C247.252 0.807788 241.997 0.558765 236.945 0.316822C233.531 0.153736 230.428 0.374805 227.312 0.599781C222.345 0.535816 218.034 0.0947757 213.061 0.0217777C208.417 -0.0462155 203.461 0.065723 198.79 0.0767093C188.417 0.100757 178.038 0.146778 167.665 0.149829C164.865 0.149829 162.166 0.210743 159.495 0.292774C156.823 0.210743 154.124 0.149829 151.324 0.149829C140.951 0.146778 130.572 0.100757 120.199 0.0767093C115.528 0.065723 110.572 -0.0462155 105.928 0.0217777C100.956 0.0947757 96.6451 0.535816 91.6771 0.599781C88.5611 0.374805 85.4592 0.153736 82.0442 0.316822C76.9922 0.558765 71.7372 0.807788 66.6722 1.09783C64.7472 1.20781 63.1902 1.50481 61.0871 1.60076C58.3492 1.7238 55.3382 1.44683 52.6252 1.55974C45.2151 1.8698 37.0292 3.45977 31.1891 4.56572C25.0771 5.7238 21.3631 6.13677 18.2872 7.83879C16.2632 8.95671 16.1982 9.82573 15.1991 10.9858C14.8542 11.3868 13.3902 12.1978 12.6521 12.7267C11.3482 13.6608 10.7532 14.0518 10.6642 15.2138L5.57018 19.9307L3.01317 36.0767C3.01817 39.0967 1.43016 41.3787 1.59917 44.3978C1.69518 46.1127 0.513168 48.3538 0.29216 50.0408C0.0861663 51.6127 0.359177 53.1957 0.361191 54.7698C0.370163 60.5058 -0.00886544 60.5967 0.000167759 66.3328C0.00315848 68.5898 -0.0338288 69.8887 0.361191 73.2897V128.194C0.337143 128.317 0.308151 128.443 0.29216 128.561C0.0861663 130.133 0.359177 131.716 0.361191 133.289C0.370163 139.025 -0.00886544 139.116 0.000167759 144.853C0.00315848 147.004 -0.0298615 148.289 0.309189 151.351C0.208176 154.116 -0.00685128 155.229 0.000167759 159.567C0.00315848 161.824 -0.0338288 163.123 0.361191 166.525V221.428C0.337143 221.551 0.308151 221.677 0.29216 221.795C0.0861663 223.367 0.359177 224.95 0.361191 226.523C0.370163 232.259 -0.00886544 232.351 0.000167759 238.087C0.00315848 240.238 -0.0298615 241.523 0.309189 244.585C0.208176 247.35 -0.00685128 248.463 0.000167759 252.802C0.00315848 255.058 -0.0338288 256.357 0.361191 259.759V314.662C0.337143 314.785 0.308151 314.911 0.29216 315.029C0.0861663 316.601 0.359177 318.184 0.361191 319.757C0.370163 325.493 -0.00886544 325.585 0.000167759 331.321C0.00315848 333.578 -0.0338288 334.877 0.361191 338.278V340.73L0.636154 340.733C0.650192 340.96 0.663193 341.212 0.675156 341.479C0.504135 342.036 0.356186 342.574 0.29216 343.063C0.0861663 344.635 0.359177 346.218 0.361191 347.791C0.370163 353.528 -0.00886544 353.619 0.000167759 359.355C0.00315848 361.612 -0.0338288 362.911 0.361191 366.312V421.216C0.337143 421.339 0.308151 421.465 0.29216 421.583C0.0861663 423.155 0.359177 424.738 0.361191 426.311C0.370163 432.047 -0.00886544 432.138 0.000167759 437.874C0.00315848 440.131 -0.0338288 441.43 0.361191 444.832V447.283L0.636154 447.287C0.776169 449.542 0.764145 454.038 1.80919 455.157C2.88316 456.31 0.749191 455.824 1.32713 457.051C2.53716 459.62 2.74614 459.642 3.06718 462.236C3.23015 463.554 5.11015 468.113 6.33714 469.346C7.55919 470.575 7.80016 471.661 8.34013 472.914C9.39415 475.357 16.0842 478.584 21.8581 480.634C27.8132 482.748 38.6932 483.787 48.8232 484.671C49.5752 484.737 50.3161 484.801 51.0522 484.862C52.1432 485.049 53.2752 485.185 54.4751 485.235C54.9632 485.255 55.4692 485.252 55.9732 485.252C63.4642 485.809 70.5372 486.141 78.9352 486.212C81.1031 486.316 83.2651 486.418 85.3912 486.518C86.6532 486.577 87.8681 486.58 89.0632 486.559C91.2892 486.679 93.5282 486.794 95.9142 486.828C100.795 486.897 106.003 486.782 110.911 486.77C121.812 486.746 132.72 486.697 143.62 486.695C149.116 486.693 154.26 486.486 159.495 486.302C164.729 486.486 169.874 486.693 175.369 486.695C186.27 486.697 197.177 486.746 208.078 486.77C212.986 486.782 218.195 486.897 223.075 486.828C225.461 486.794 227.7 486.679 229.926 486.559C231.121 486.58 232.337 486.577 233.598 486.518C235.724 486.418 237.887 486.316 240.055 486.212C248.452 486.141 255.526 485.809 263.016 485.252C263.52 485.252 264.026 485.255 264.514 485.235C265.714 485.185 266.846 485.049 267.937 484.862C268.673 484.801 269.414 484.737 270.166 484.671C280.297 483.787 291.177 482.748 297.131 480.634C302.905 478.584 309.595 475.357 310.649 472.914C311.189 471.661 311.43 470.575 312.652 469.346C313.879 468.113 315.759 463.554 315.922 462.236C316.243 459.642 316.453 459.62 317.662 457.051C318.24 455.824 316.106 456.31 317.181 455.157C317.739 454.559 317.994 452.992 318.133 451.321L318.99 451.332L318.865 442.449C319.006 440.648 318.987 439.513 318.99 437.874C318.996 433.654 318.793 432.484 318.689 429.878L318.636 426.098C318.66 424.595 318.894 423.084 318.697 421.583C318.668 421.359 318.62 421.125 318.562 420.884L317.913 374.611C318.296 372.41 318.258 369.237 318.42 367.991C319.036 363.276 318.986 361.95 318.99 359.355C318.998 353.619 318.62 353.528 318.628 347.791C318.63 346.788 318.732 345.781 318.759 344.776L318.99 344.779L318.865 335.895C319.006 334.095 318.987 332.96 318.99 331.321C318.996 327.1 318.793 325.93 318.689 323.325L318.636 319.545C318.659 318.042 318.894 316.53 318.697 315.029C318.668 314.806 318.62 314.571 318.562 314.331L317.913 268.058C318.295 265.857 318.258 262.683 318.42 261.438C319.036 256.722 318.986 255.396 318.99 252.802C318.99 252.345 318.988 251.935 318.984 251.544H318.99L318.865 242.661Z" fill="currentColor"/>
<path id="&#227;&#131;&#145;&#227;&#130;&#185; 147" fill-rule="evenodd" clip-rule="evenodd" d="M385.321 242.661C385.462 240.861 385.443 239.726 385.446 238.087C385.452 233.866 385.249 232.696 385.145 230.091L385.092 226.31C385.116 224.807 385.35 223.296 385.153 221.795C385.124 221.571 385.076 221.337 385.018 221.096L384.369 174.823C384.752 172.622 384.714 169.449 384.876 168.204C385.492 163.488 385.442 162.162 385.446 159.567C385.446 159.111 385.444 158.701 385.44 158.31H385.446L385.321 149.427C385.462 147.626 385.443 146.492 385.446 144.853C385.452 140.632 385.249 139.462 385.145 136.856L385.092 133.076C385.115 131.573 385.35 130.062 385.153 128.561C385.124 128.337 385.076 128.103 385.018 127.862L384.369 81.5888C384.752 79.3877 384.714 76.2148 384.876 74.9688C385.492 70.2537 385.442 68.9278 385.446 66.3328C385.454 60.5967 385.076 60.5058 385.084 54.7698C385.087 53.1957 385.359 51.6127 385.153 50.0408C384.932 48.3538 383.751 46.1127 383.846 44.3978C384.015 41.3787 382.427 39.0967 382.432 36.0767L379.875 19.9307L374.782 15.2138C374.693 14.0518 374.097 13.6608 372.794 12.7267C372.055 12.1978 370.592 11.3868 370.246 10.9858C369.247 9.82573 369.182 8.95671 367.158 7.83879C364.082 6.13677 360.368 5.7238 354.256 4.56572C348.416 3.45977 340.231 1.8698 332.821 1.55974C330.107 1.44683 327.096 1.7238 324.358 1.60076C322.256 1.50481 320.698 1.20781 318.773 1.09783C313.708 0.807788 308.453 0.558765 303.401 0.316822C299.987 0.153736 296.884 0.374805 293.768 0.599781C288.801 0.535816 284.49 0.0947757 279.517 0.0217777C274.873 -0.0462155 269.917 0.065723 265.246 0.0767093C254.873 0.100757 244.494 0.146778 234.121 0.149829C231.321 0.149829 228.622 0.210743 225.951 0.292774C223.279 0.210743 220.58 0.149829 217.78 0.149829C207.407 0.146778 197.028 0.100757 186.655 0.0767093C181.984 0.065723 177.028 -0.0462155 172.384 0.0217777C167.412 0.0947757 163.101 0.535816 158.133 0.599781C155.017 0.374805 151.915 0.153736 148.5 0.316822C143.448 0.558765 138.194 0.807788 133.128 1.09783C131.203 1.20781 129.646 1.50481 127.543 1.60076C124.805 1.7238 121.794 1.44683 119.081 1.55974C111.671 1.8698 103.485 3.45977 97.6451 4.56572C91.5332 5.7238 87.8192 6.13677 84.7431 7.83879C82.7192 8.95671 82.6542 9.82573 81.6551 10.9858C81.3102 11.3868 79.8462 12.1978 79.1081 12.7267C77.8042 13.6608 77.2092 14.0518 77.1202 15.2138L72.0262 19.9307L69.4692 36.0767C69.4742 39.0967 67.8862 41.3787 68.0552 44.3978C68.1512 46.1127 66.9692 48.3538 66.7482 50.0408C66.5422 51.6127 66.8152 53.1957 66.8172 54.7698C66.8262 60.5058 66.4472 60.5967 66.4562 66.3328C66.4592 68.5898 66.4222 69.8887 66.8172 73.2897V128.194C66.7931 128.317 66.7641 128.443 66.7482 128.561C66.5422 130.133 66.8152 131.716 66.8172 133.289C66.8262 139.025 66.4472 139.116 66.4562 144.853C66.4592 147.004 66.4261 148.289 66.7652 151.351C66.6642 154.116 66.4491 155.229 66.4562 159.567C66.4592 161.824 66.4222 163.123 66.8172 166.525V221.428C66.7931 221.551 66.7641 221.677 66.7482 221.795C66.5422 223.367 66.8152 224.95 66.8172 226.523C66.8262 232.259 66.4472 232.351 66.4562 238.087C66.4592 240.238 66.4261 241.523 66.7652 244.585C66.6642 247.35 66.4491 248.463 66.4562 252.802C66.4592 255.058 66.4222 256.357 66.8172 259.759V314.662C66.7931 314.785 66.7641 314.911 66.7482 315.029C66.5422 316.601 66.8152 318.184 66.8172 319.757C66.8262 325.493 66.4472 325.585 66.4562 331.321C66.4592 333.578 66.4222 334.877 66.8172 338.278V340.73L67.0921 340.733C67.1062 340.96 67.1192 341.212 67.1311 341.479C66.9602 342.036 66.8122 342.574 66.7482 343.063C66.5422 344.635 66.8152 346.218 66.8172 347.791C66.8262 353.528 66.4472 353.619 66.4562 359.355C66.4592 361.612 66.4222 362.911 66.8172 366.312V421.216C66.7931 421.339 66.7641 421.465 66.7482 421.583C66.5422 423.155 66.8152 424.738 66.8172 426.311C66.8262 432.047 66.4472 432.138 66.4562 437.874C66.4592 440.131 66.4222 441.43 66.8172 444.832V447.283L67.0921 447.287C67.2322 449.542 67.2201 454.038 68.2652 455.157C69.3392 456.31 67.2052 455.824 67.7832 457.051C68.9931 459.62 69.2021 459.642 69.5232 462.236C69.6861 463.554 71.5661 468.113 72.7931 469.346C74.0152 470.575 74.2561 471.661 74.7962 472.914C75.8501 475.357 82.5401 478.584 88.3142 480.634C94.2691 482.748 105.149 483.787 115.279 484.671C116.031 484.737 116.772 484.801 117.508 484.862C118.599 485.049 119.731 485.185 120.931 485.235C121.419 485.255 121.925 485.252 122.429 485.252C129.92 485.809 136.993 486.141 145.391 486.212C147.559 486.316 149.721 486.418 151.847 486.518C153.109 486.577 154.324 486.58 155.519 486.559C157.745 486.679 159.984 486.794 162.37 486.828C167.251 486.897 172.459 486.782 177.367 486.77C188.268 486.746 199.176 486.697 210.076 486.695C215.572 486.693 220.716 486.486 225.951 486.302C231.185 486.486 236.33 486.693 241.825 486.695C252.726 486.697 263.633 486.746 274.534 486.77C279.442 486.782 284.651 486.897 289.531 486.828C291.917 486.794 294.156 486.679 296.382 486.559C297.577 486.58 298.793 486.577 300.054 486.518C302.18 486.418 304.343 486.316 306.511 486.212C314.908 486.141 321.982 485.809 329.472 485.252C329.976 485.252 330.482 485.255 330.97 485.235C332.17 485.185 333.302 485.049 334.393 484.862C335.129 484.801 335.87 484.737 336.622 484.671C346.753 483.787 357.633 482.748 363.587 480.634C369.361 478.584 376.051 475.357 377.105 472.914C377.645 471.661 377.886 470.575 379.108 469.346C380.335 468.113 382.215 463.554 382.378 462.236C382.699 459.642 382.909 459.62 384.118 457.051C384.696 455.824 382.562 456.31 383.637 455.157C384.195 454.559 384.45 452.992 384.589 451.321L385.446 451.332L385.321 442.449C385.462 440.648 385.443 439.513 385.446 437.874C385.452 433.654 385.249 432.484 385.145 429.878L385.092 426.098C385.116 424.595 385.35 423.084 385.153 421.583C385.124 421.359 385.076 421.125 385.018 420.884L384.369 374.611C384.752 372.41 384.714 369.237 384.876 367.991C385.492 363.276 385.442 361.95 385.446 359.355C385.454 353.619 385.076 353.528 385.084 347.791C385.086 346.788 385.188 345.781 385.215 344.776L385.446 344.779L385.321 335.895C385.462 334.095 385.443 332.96 385.446 331.321C385.452 327.1 385.249 325.93 385.145 323.325L385.092 319.545C385.115 318.042 385.35 316.53 385.153 315.029C385.124 314.806 385.076 314.571 385.018 314.331L384.369 268.058C384.751 265.857 384.714 262.683 384.876 261.438C385.492 256.722 385.442 255.396 385.446 252.802C385.446 252.345 385.444 251.935 385.44 251.544H385.446L385.321 242.661Z" fill="currentColor"/>
</g>
</svg>
