<svg preserveAspectRatio="none" width="100%" height="100%" overflow="visible" style="display: block;" viewBox="0 0 305.699 5.01708" fill="none" xmlns="http://www.w3.org/2000/svg">
<path id="&#227;&#131;&#145;&#227;&#130;&#185; 183" fill-rule="evenodd" clip-rule="evenodd" d="M302.23 4.76403C302.446 4.75109 302.675 4.73912 302.856 4.74608C303.002 4.79003 303.148 4.8341 303.293 4.87902L303.488 4.79113C303.61 4.82811 303.731 4.8651 303.852 4.90209C304.392 4.88903 304.97 4.80407 305.675 5.01708L305.699 4.95104C305.28 4.58104 305.017 4.16002 304.488 3.85009C303.918 4.06408 302.866 3.80101 302.155 3.80004C302.142 3.80004 302.127 3.80004 302.114 3.79906L302.08 3.78905C302.041 3.77709 302 3.78209 301.966 3.79808C300.985 3.7921 299.859 3.75512 298.923 3.76903C298.231 3.77904 297.637 3.47203 296.931 3.45604C296.349 3.44213 295.497 3.61913 294.913 3.64806C294.729 3.65612 294.737 3.50011 294.646 3.49303C293.704 3.42504 292.461 3.44103 291.511 3.41808C291.211 3.35204 290.912 3.28502 290.612 3.21813C289.534 3.18309 288.28 3.01708 287.21 2.98912C286.703 2.97509 286.226 2.68004 285.704 2.67711C285.624 2.67711 285.362 2.76513 285.267 2.76403C285.121 2.72008 284.975 2.67504 284.83 2.63109C284.789 2.6671 284.748 2.70409 284.708 2.7401C284.319 2.76305 284.101 2.56713 283.712 2.5841C283.594 2.5891 283.415 2.75206 283.322 2.75805C283.185 2.69213 283.047 2.62609 282.91 2.56005C282.71 2.54613 282.094 2.67907 281.888 2.6881C281.67 2.62206 281.451 2.55504 281.233 2.48912L281.014 2.64208C280.673 2.61205 280.333 2.58104 279.993 2.55101C279.468 2.55602 278.653 2.57909 278.122 2.5681C277.976 2.52306 277.83 2.47911 277.685 2.43505C277.585 2.42907 277.421 2.50402 277.247 2.52111C277.069 2.49205 276.89 2.46202 276.712 2.43212C276.622 2.44506 276.412 2.60009 276.323 2.60607C276.129 2.54711 275.934 2.48803 275.74 2.42907L275.521 2.58202C275.162 2.61608 274.601 2.40111 274.209 2.40306C273.952 2.40404 273.457 2.45812 273.212 2.46605C272.986 2.42113 272.759 2.37706 272.532 2.33202C271.973 2.34313 271.253 2.48803 270.685 2.50206C270.563 2.46605 270.442 2.42907 270.32 2.39208C270.223 2.3911 269.965 2.47802 269.883 2.47802C269.474 2.48107 269.265 2.30407 268.887 2.32213C268.629 2.3341 268.282 2.48803 268.011 2.49511C267.685 2.50206 267.328 2.30809 267.015 2.33812C266.901 2.35009 266.71 2.49205 266.553 2.49108C266.053 2.48705 265.577 2.23412 265.095 2.26708C264.973 2.27501 264.875 2.44909 264.779 2.4641C264.325 2.37401 263.872 2.28502 263.418 2.19603C262.871 2.20507 262.217 2.32006 261.668 2.32311C261.17 2.32506 260.905 2.09508 260.381 2.07811C260.08 2.0681 259.605 2.12304 259.311 2.11913L258.558 1.96312C257.036 1.94213 255.344 1.99706 253.843 1.99303C253.649 1.93407 253.454 1.87511 253.26 1.81603C253.094 1.82006 252.791 1.97802 252.628 1.9901C252.154 2.02611 251.657 1.76305 251.17 1.7661C250.615 1.76903 249.945 1.89708 249.42 1.89306L248.667 1.73705C248.637 1.73912 248.321 1.83007 248.229 1.82409C248.067 1.75011 247.906 1.67601 247.744 1.60302C247.584 1.60302 247.429 1.81408 247.257 1.82103L246.674 1.64403L246.479 1.73107C246.342 1.66503 246.204 1.59813 246.067 1.53209L245.872 1.61913C245.678 1.56005 245.484 1.50109 245.29 1.44213C243.986 1.49511 242.496 1.16906 241.183 1.14513C240.764 1.13707 240.533 0.972035 240.114 0.966053C239.913 0.9641 239.561 1.03405 239.36 1.03002C239.215 0.986073 239.069 0.941029 238.923 0.897083C238.771 0.910023 238.531 1.0841 238.364 1.09313C238.032 1.04113 237.7 0.989124 237.368 0.936024L237.246 1.04613C237.052 0.987049 236.857 0.928089 236.663 0.869129C236.482 0.873036 236.221 1.03209 236.031 1.0421C235.934 1.01305 235.836 0.983021 235.739 0.95409C235.593 0.960072 235.277 1.06005 235.131 1.06212C234.986 1.01708 234.84 0.973133 234.694 0.929066C234.654 0.965077 234.613 1.00206 234.572 1.03807C234.41 1.03807 234.248 1.0371 234.086 1.0371C234.037 1.09508 233.989 1.15404 233.94 1.21202C233.746 1.15306 233.551 1.09411 233.357 1.03502C233.058 1.04113 232.532 1.19909 232.238 1.20702C232.093 1.16307 231.947 1.11803 231.801 1.07409C231.57 1.07006 231.173 1.05101 230.902 1.09313C230.829 1.14403 230.756 1.19603 230.683 1.24608C230.654 1.24901 230.2 1.09703 230.003 1.11303C229.827 1.12706 229.484 1.26012 229.297 1.26403C228.843 1.27709 228.416 0.995106 227.937 0.997059C227.729 0.998036 227.31 1.09813 227.086 1.10411C226.653 1.11803 226.342 0.927113 225.92 0.970082C224.483 1.11303 222.834 0.95702 221.35 1.04406C221.229 1.00707 221.108 0.970082 220.986 0.933094C220.762 0.928089 220.354 0.975086 220.16 0.975086C219.99 0.923084 219.82 0.871082 219.65 0.820057C219.485 0.831043 219.137 0.971058 218.944 0.971058C218.645 0.905018 218.345 0.838124 218.046 0.771107C217.198 0.848133 216.016 0.7141 214.886 0.762074L214.304 0.585072C214.054 0.57909 213.766 0.719105 213.525 0.7141L212.724 0.471058C212.502 0.472035 212.124 0.581043 211.873 0.578114C211.475 0.573109 211.274 0.40807 210.877 0.421131C210.812 0.424061 210.633 0.549061 210.585 0.552113C210.439 0.508045 210.294 0.4641 210.148 0.420033C210.082 0.421131 209.905 0.546131 209.856 0.550038C209.735 0.51305 209.613 0.476063 209.492 0.439076C208.842 0.419056 208.183 0.211048 207.475 0.192127C207.308 0.188099 207.002 0.289051 206.867 0.300038C206.746 0.26305 206.624 0.226063 206.503 0.190052C206.415 0.202015 206.328 0.392079 206.259 0.40807C206.089 0.357044 205.919 0.305042 205.749 0.253041C205.497 0.249012 205.074 0.3391 204.825 0.338124C204.502 0.264027 204.178 0.190052 203.854 0.116078C203.813 0.152088 203.773 0.189076 203.732 0.225086C203.488 0.265125 203.116 0.269032 202.906 0.267079C202.679 0.222035 202.452 0.178089 202.225 0.133045C202.107 0.14806 201.925 0.288075 201.763 0.286122L201.108 0.0860483C200.915 0.0850718 200.505 0.133045 200.281 0.128041C200.16 0.0910532 200.038 0.0540659 199.917 0.0170786L199.698 0.170033C199.552 0.126087 199.406 0.0810434 199.261 0.0370981C199.147 0.125111 199.033 0.212025 198.919 0.299061C198.677 0.305042 198.916 0.0380747 198.604 0.0571177L198.555 0.189076C198.229 0.221058 197.815 -0.0199087 197.487 0.0101206C196.939 0.0590708 196.19 0.156117 195.639 0.180042C195.461 0.150013 195.282 0.121083 195.104 0.0910532C194.913 0.105091 194.654 0.259022 194.472 0.265125C194.245 0.220082 194.018 0.175038 193.792 0.131092C193.642 0.150013 193.315 0.296131 193.159 0.305042C192.965 0.246083 192.771 0.187123 192.576 0.127064C192.479 0.137074 192.308 0.294056 192.187 0.302113C192.09 0.272083 191.993 0.243031 191.896 0.213124C191.695 0.22411 191.391 0.356068 191.19 0.365101C190.802 0.382069 190.484 0.231068 190.097 0.252064C190.024 0.256092 189.863 0.375111 189.805 0.383045C189.651 0.360096 189.497 0.338124 189.343 0.316029C189.286 0.324085 189.123 0.445057 189.051 0.446034C188.881 0.39513 188.711 0.343128 188.541 0.291126C188.328 0.286122 187.819 0.239125 187.569 0.289051L187.35 0.442127C187.204 0.397083 187.058 0.353016 186.913 0.309071C186.662 0.311024 186.243 0.39513 185.989 0.394032C185.867 0.357044 185.746 0.320057 185.625 0.28307C182.979 0.34911 180.142 0.101063 177.629 0.194081L176.56 0.016102C175.787 0.0201304 174.797 0.0931284 174.007 0.118031C173.682 0.129017 173.477 -0.0329702 173.157 0.00609228L172.938 0.159046C172.429 0.223133 172.012 0.042103 171.504 0.0891001C171.281 0.110096 170.942 0.267079 170.701 0.284046C170.58 0.247059 170.459 0.210072 170.337 0.173084C170.253 0.174061 170.028 0.278065 169.972 0.282093C169.851 0.245106 169.729 0.208119 169.608 0.171131C169.466 0.176014 169.215 0.290028 169.073 0.301014L168.854 0.235096C168.633 0.255116 168.381 0.45409 168.197 0.475086C168.027 0.423084 167.857 0.371083 167.687 0.320057C167.605 0.320057 167.347 0.405018 167.25 0.406117C167.152 0.376087 167.055 0.347035 166.958 0.317127C166.061 0.350086 164.998 0.478016 164.114 0.550038C163.798 0.576039 163.555 0.453114 163.239 0.504017L163.02 0.657093C162.693 0.731068 162.402 0.597035 162.048 0.654041C161.974 0.705067 161.901 0.756092 161.828 0.807118C161.699 0.792103 161.569 0.777088 161.439 0.762074C161.399 0.799061 161.358 0.835072 161.318 0.872059C161.196 0.835072 161.075 0.798084 160.953 0.761097C160.851 0.77306 160.689 0.931019 160.564 0.935047C160.418 0.891102 160.273 0.847035 160.127 0.802113C159.86 0.806019 159.487 0.943104 159.251 0.976063C158.814 1.03502 158.44 0.897083 158.036 0.972035C157.995 1.00902 157.955 1.04503 157.914 1.08104C157.817 1.05211 157.72 1.02208 157.623 0.993031C157.446 0.997059 157.174 1.09203 157.015 1.10106C156.918 1.07103 156.821 1.0421 156.724 1.01207C156.596 1.02306 156.461 1.17308 156.334 1.18712L155.8 1.09703L155.605 1.18505C155.37 1.1621 155.135 1.13903 154.9 1.11705C154.86 1.15306 154.819 1.19005 154.778 1.22606C154.576 1.18908 154.373 1.15209 154.171 1.1151C153.89 1.11107 153.432 1.17003 153.174 1.17711C152.948 1.13305 152.721 1.08812 152.494 1.04406C152.355 1.04808 152.098 1.16906 151.959 1.17406C150.646 1.22008 149.34 1.19713 148.046 1.22911C147.648 1.23803 147.448 1.06713 147.05 1.07213C146.505 1.07909 145.8 1.11803 145.251 1.11107C144.769 1.10509 144.484 0.949085 144.012 0.95409C143.849 0.955067 143.604 1.07103 143.477 1.0841C142.922 1.1411 142.402 0.924061 141.825 0.948109C141.049 0.978016 140.04 1.12511 139.248 1.11608C139.102 1.07103 138.956 1.02709 138.811 0.983021C138.265 0.972035 137.583 1.07409 137.06 1.10912C136.72 1.13207 136.316 0.980091 135.967 0.997059C135.826 1.00304 135.573 1.12011 135.432 1.12706C135.037 1.14403 134.739 0.995106 134.339 1.01403C134.216 1.02013 134.049 1.17809 133.949 1.1881C133.803 1.14403 133.658 1.10009 133.512 1.05504C133.308 1.06005 132.946 1.17907 132.734 1.18505C132.357 1.19506 132.186 1.08007 131.859 1.13805L131.737 1.24804C131.371 1.29503 130.695 1.0841 130.498 1.09105C129.723 1.11608 128.732 1.16906 127.946 1.1931C127.51 1.20604 127.1 1.05004 126.682 1.10106C126.609 1.15306 126.536 1.20409 126.463 1.25512C126.236 1.21007 126.009 1.16503 125.783 1.12108C125.656 1.12609 125.498 1.28112 125.393 1.29503C125.065 1.3391 124.892 1.17406 124.543 1.18309C122.676 1.2351 120.506 1.11705 118.637 1.14403C118.094 1.15209 117.75 0.9641 117.228 1.00902C115.288 1.17308 112.963 0.979115 110.981 1.01305C110.836 0.968128 110.69 0.924061 110.544 0.880116C110.24 0.885121 109.709 1.04613 109.426 1.05211C109.337 1.00011 109.248 0.949085 109.159 0.89806C109.081 0.896107 108.815 0.985096 108.721 0.98412C108.6 0.947132 108.478 0.910023 108.357 0.873036C107.411 0.88805 106.26 0.911122 105.318 0.97411C104.954 0.937123 104.589 0.899037 104.225 0.861073C104.15 0.864124 103.807 0.893055 103.714 0.926014C103.698 0.970082 103.682 1.01403 103.665 1.05712C103.491 1.09313 103.389 0.882069 103.326 0.881092C103.261 0.880116 103.082 1.00805 103.034 1.01207C102.664 1.0421 102.484 0.869129 102.11 0.877064C101.394 0.894032 100.494 1.0421 99.777 1.04613L99.024 0.890125C98.77 0.892079 98.3051 0.953114 98.027 0.953114C97.8 0.909046 97.574 0.864124 97.347 0.820057C97.306 0.856068 97.266 0.893055 97.225 0.929066C97.0551 0.877064 96.885 0.826039 96.715 0.774037C95.777 0.751087 94.74 0.887074 93.871 1.00707C93.636 0.985096 93.401 0.962025 93.166 0.940052C92.874 0.951039 92.436 1.06212 92.145 1.0681C91.942 1.03112 91.74 0.994129 91.538 0.95702C91.412 0.968128 91.252 1.11705 91.1479 1.13109C90.806 1.17711 90.6021 1.05602 90.2729 1.08507C90.142 1.09606 89.925 1.22106 89.811 1.23705C89.657 1.21508 89.5031 1.19213 89.349 1.17003C89.274 1.17711 89.119 1.29113 89.057 1.30101C88.984 1.27904 88.912 1.25609 88.839 1.23412C88.798 1.27111 88.757 1.30712 88.717 1.34411C88.364 1.37902 88.178 1.26403 87.842 1.29711C87.6541 1.31603 87.406 1.46105 87.209 1.47106C87.031 1.44103 86.853 1.41112 86.675 1.38207C86.567 1.39904 86.4141 1.54808 86.286 1.55602C86.059 1.51207 85.832 1.46703 85.605 1.42211C85.532 1.47411 85.459 1.52501 85.386 1.57604C85.313 1.55309 85.24 1.53112 85.168 1.50902C84.936 1.53112 84.548 1.60106 84.317 1.61608C83.978 1.63805 83.778 1.48009 83.3929 1.48204C83.163 1.48302 82.76 1.57409 82.542 1.5891L81.765 1.49901C81.634 1.50707 81.433 1.65209 81.303 1.65209C81.238 1.60704 81.173 1.5631 81.109 1.51903C80.726 1.49706 80.245 1.56908 79.869 1.58202C79.691 1.55211 79.5131 1.52208 79.334 1.49205C79.015 1.51305 78.459 1.73803 78.094 1.77404C77.9969 1.74413 77.9 1.71508 77.803 1.68505C77.7321 1.69005 77.566 1.81005 77.511 1.81603C77.413 1.7871 77.316 1.75707 77.219 1.72802C77.178 1.76403 77.1381 1.80101 77.097 1.83702C76.887 1.87609 76.77 1.7921 76.538 1.8131C76.467 1.82006 76.302 1.9381 76.246 1.94408C76.149 1.91503 76.052 1.88512 75.955 1.85607C75.604 1.89708 75.111 2.05504 74.739 2.07213L73.9611 1.98204C73.921 2.01806 73.88 2.05504 73.839 2.09105C73.7419 2.06102 73.645 2.03209 73.548 2.00206C73.119 2.05101 72.524 2.1931 72.089 2.21813C71.9919 2.1881 71.895 2.15905 71.798 2.12902C71.744 2.13512 71.575 2.25707 71.506 2.26012C71.384 2.22313 71.2631 2.18602 71.141 2.14904C71.0291 2.15807 70.735 2.27611 70.606 2.27904C70.485 2.24205 70.363 2.20507 70.2419 2.16808C69.425 2.18602 68.505 2.34813 67.665 2.33702C67.3411 2.26305 67.017 2.1881 66.694 2.11412C65.978 2.09105 64.97 2.03502 64.288 2.0421C64.142 1.99706 63.996 1.95311 63.851 1.90905C63.6689 1.91503 63.4091 2.0681 63.218 2.08312L62.684 1.99303C62.166 2.01207 61.4561 2.12902 60.933 2.12011C60.869 2.07604 60.804 2.03209 60.739 1.98803C60.519 1.97313 60.176 2.03905 59.986 2.05101C59.751 2.02904 59.516 2.00609 59.281 1.98302C57.213 2.1361 55.0291 2.37609 53.032 2.64611C52.646 2.69811 52.368 2.5891 51.9871 2.62108C51.351 2.67406 50.573 2.80101 49.9449 2.87804C49.791 2.85607 49.637 2.8341 49.483 2.81102C49.012 2.84411 48.402 2.91906 47.903 2.91613C47.782 2.88012 47.66 2.84313 47.5391 2.80602C47.203 2.82811 46.661 2.93712 46.347 2.95604C45.673 2.99608 44.791 2.82909 44.136 2.79613C43.6591 2.69909 43.181 2.60302 42.703 2.50609C42.569 2.42711 42.387 2.17601 42.097 2.17504C41.967 2.17504 41.764 2.32213 41.635 2.32811C41.5131 2.29113 41.392 2.25402 41.27 2.21703C41.196 2.21911 40.979 2.32409 40.905 2.32604C40.76 2.28112 40.614 2.23705 40.468 2.1931C39.715 2.24901 38.8101 2.47203 38.085 2.49303C37.964 2.45604 37.843 2.41906 37.7209 2.38207C37.575 2.3861 37.26 2.48607 37.113 2.4901C36.886 2.44603 36.66 2.40111 36.433 2.35704C35.906 2.35302 35.2371 2.49303 34.683 2.48302C34.537 2.43908 34.391 2.39513 34.246 2.35009C33.615 2.35411 32.8151 2.3911 32.131 2.36608C31.913 2.30004 31.694 2.23302 31.475 2.1671C31.365 2.16307 31.075 2.23412 30.965 2.23107C30.819 2.18712 30.674 2.14306 30.528 2.09813C27.8979 2.10509 24.887 1.78905 22.29 1.78905C22.014 1.73009 21.739 1.67113 21.464 1.61107C21.417 1.6151 21.235 1.74108 21.172 1.74205C20.8719 1.67601 20.573 1.60912 20.2729 1.5421C20.168 1.55101 19.9351 1.69103 19.811 1.69506C19.584 1.65001 19.3571 1.60509 19.131 1.56102C19.054 1.56408 18.842 1.66613 18.766 1.67003C18.335 1.68712 17.97 1.50109 17.527 1.51207C17.389 1.5161 17.129 1.64013 16.9919 1.64208C16.8459 1.59813 16.7 1.55407 16.5551 1.51012C16.353 1.50304 16.098 1.59911 15.947 1.61803C15.744 1.58007 15.542 1.54308 15.339 1.50609C15.123 1.51513 14.816 1.70006 14.609 1.72313C14.512 1.69408 14.415 1.66405 14.318 1.63512C14.1169 1.64708 13.814 1.77709 13.613 1.78612C13.235 1.80309 12.9661 1.67809 12.592 1.69603C11.973 1.72509 11.187 1.85912 10.574 1.88707C10.251 1.90306 10.12 1.78209 9.797 1.79711C9.37305 1.81713 8.72095 1.90807 8.28906 1.92504C7.95703 1.87304 7.625 1.82006 7.29297 1.76806C7.21606 1.77013 7.00696 1.87108 6.92798 1.87706C6.34399 1.92406 5.69897 1.91808 5.13 1.91613C4.97705 1.88207 4.82495 1.84813 4.672 1.81408C4.65002 1.73009 4.58801 1.65612 4.49097 1.62706C4.34302 1.58202 4.18103 1.65404 4.13098 1.78807L4.12195 1.81408L4.10901 1.82506C3.88306 1.78002 3.65601 1.73607 3.42896 1.69103C3.30701 1.69713 3.06897 1.83605 2.96704 1.84411C2.69202 1.78405 2.41602 1.72509 2.14099 1.66613C2.06799 1.67113 1.90796 1.78905 1.849 1.79711C1.55298 1.83605 1.31604 1.70604 1.047 1.77208C0.698975 1.85802 0.369995 2.11412 0 2.18602L0.0240479 2.34008C0.967041 3.07213 1.92102 2.69408 2.91504 2.63402C3.16699 2.68602 3.41699 2.73705 3.66797 2.78905C3.69702 2.78905 3.72998 2.78612 3.75903 2.78612L4.37195 2.74901C4.73596 2.71605 5.10498 2.67504 5.41895 2.66307C5.51599 2.69213 5.61304 2.72203 5.70996 2.75109C6.47803 2.71813 7.43799 2.58702 8.21399 2.56102C8.41699 2.59813 8.61902 2.63512 8.82104 2.67211C9.14099 2.6411 9.68201 2.52904 10.0131 2.52208C10.428 2.51305 10.653 2.66405 11.033 2.61303C11.0911 2.60509 11.2531 2.4851 11.326 2.48204C11.447 2.51903 11.568 2.55602 11.6901 2.59313C11.877 2.58507 12.192 2.45409 12.395 2.44103C12.76 2.47911 13.124 2.51708 13.489 2.55407C13.96 2.53502 14.563 2.37108 15.02 2.36107C15.166 2.40502 15.312 2.45006 15.457 2.49413C15.498 2.45812 15.5391 2.42113 15.579 2.38512C15.804 2.36107 16.0439 2.3861 16.236 2.3651C16.4141 2.39403 16.592 2.42406 16.77 2.45409C17.243 2.45104 17.873 2.4641 18.326 2.41503C18.632 2.38109 18.842 2.55504 19.176 2.52709C19.226 2.52208 19.401 2.39904 19.468 2.39611C19.776 2.44103 20.084 2.4851 20.391 2.53002L20.61 2.37706C20.886 2.43602 21.161 2.49608 21.436 2.55504C23.236 2.49706 25.5959 2.76708 27.196 2.76903C27.495 2.83605 27.795 2.90306 28.094 2.96911C28.694 2.93407 29.5341 2.86608 30.161 2.8651C30.484 2.93908 30.808 3.01403 31.132 3.08812C31.819 3.10912 32.728 3.32506 33.416 3.27013L33.538 3.16002C33.8621 3.2351 34.186 3.30907 34.509 3.38305C35.405 3.32702 36.427 3.16503 37.402 3.23705C37.58 3.25109 37.799 3.47411 38.131 3.4591L38.252 3.35009C38.3979 3.39403 38.5439 3.4381 38.689 3.48302C38.817 3.46813 39.042 3.29308 39.176 3.26403C39.549 3.18602 39.88 3.36412 40.2939 3.31212C40.4141 3.29613 40.594 3.15709 40.756 3.15905C41.2531 3.16613 41.689 3.55309 42.068 3.55809C42.317 3.56102 42.531 3.34703 42.725 3.3181C43.308 3.42308 43.891 3.52709 44.474 3.63109C44.962 3.65001 45.543 3.78112 46.053 3.74511C46.285 3.72911 46.647 3.63109 46.9041 3.63805L47.4141 3.79308C47.495 3.7921 47.756 3.70507 47.8521 3.70604C47.9969 3.75109 48.1429 3.79503 48.2891 3.8391C48.392 3.83104 48.627 3.69103 48.751 3.68712C48.8719 3.72411 48.994 3.7611 49.115 3.79808C49.374 3.78905 49.7321 3.64306 49.991 3.62511C50.506 3.58812 50.978 3.76305 51.4969 3.71703C52.186 3.65502 53.017 3.56102 53.686 3.50402C53.839 3.52611 53.993 3.54808 54.147 3.57103C54.188 3.53405 54.229 3.49804 54.269 3.46105C54.391 3.49804 54.512 3.53502 54.6331 3.57213C54.7061 3.52111 54.7791 3.47008 54.853 3.41906C54.9821 3.43407 55.1121 3.44909 55.241 3.4641C55.3781 3.44005 55.584 3.26806 55.728 3.24608C56.285 3.16112 56.796 3.32213 57.3571 3.22911C57.512 3.20311 57.916 3.03405 58.087 3.0111C58.3459 3.0421 58.605 3.07103 58.864 3.10106C59.1429 3.08507 59.5699 2.95812 59.813 2.95104C59.958 2.99511 60.104 3.03905 60.25 3.0841C60.324 3.08202 60.5391 2.97802 60.614 2.97509C60.8411 3.01903 61.068 3.06408 61.295 3.10802C61.83 3.10802 62.547 2.93212 63.069 2.91613C63.215 2.96007 63.361 3.00512 63.506 3.04906C63.8051 3.04308 64.27 2.93212 64.601 2.94213C64.795 3.00109 64.989 3.06005 65.183 3.12011C65.373 3.12401 65.675 3.03002 65.864 3.03405C66.1641 3.10106 66.463 3.1671 66.7631 3.23412C66.9709 3.24205 67.351 3.18004 67.516 3.17003C67.662 3.21508 67.808 3.25902 67.953 3.30309C68.6219 3.29406 69.457 3.18212 70.1169 3.15612C70.541 3.13903 70.799 3.28905 71.21 3.26903C71.668 3.24608 72.293 3.1101 72.7419 3.07506C72.896 3.09813 73.05 3.12011 73.204 3.14306L73.423 2.9901C73.855 2.92211 74.23 3.11303 74.687 3.08104C75.918 2.99511 77.2679 2.73302 78.504 2.63109C78.934 2.59606 79.428 2.62011 79.817 2.59105C79.938 2.62804 80.0601 2.66503 80.181 2.70202C80.335 2.68407 80.623 2.53502 80.813 2.52806C81.243 2.51305 81.578 2.6931 81.98 2.66307C83.504 2.54906 85.231 2.54113 86.72 2.34703C86.8979 2.37706 87.077 2.40709 87.255 2.43712C87.5229 2.42003 87.8929 2.23302 88.155 2.19811C88.438 2.2351 88.722 2.27306 89.005 2.31005C89.557 2.27806 90.267 2.01903 90.829 1.98607C91.493 1.94713 92.1281 2.08007 92.7729 1.99205C92.833 1.98412 92.9919 1.86705 93.066 1.86107C93.244 1.8911 93.422 1.92003 93.6 1.95006C93.674 1.94603 93.833 1.82811 93.892 1.81908C94.201 1.77611 94.381 1.86803 94.694 1.84411C95.229 1.80211 95.875 1.72203 96.444 1.71703C96.542 1.74706 96.639 1.77611 96.736 1.80602C96.811 1.80211 97.027 1.69811 97.101 1.69713C97.271 1.74901 97.441 1.80004 97.611 1.85204C98.3 1.87108 99.139 1.99205 99.8459 1.94603C104.009 1.67601 108.45 1.91503 112.704 1.83007C113.174 1.82006 113.47 1.98803 113.943 1.98705C114.366 1.9851 114.967 1.91307 115.353 1.90306C115.661 1.94811 115.969 1.99205 116.276 2.0371C118.243 1.9641 120.526 2.10411 122.523 2.03307C123.117 2.01207 123.641 2.24511 124.248 2.19213C125.332 2.09703 126.603 2.0111 127.724 2.00402L128.477 2.16002C128.662 2.15502 128.98 2.01305 129.182 2.00902C129.61 1.99901 129.932 2.1621 130.349 2.14306C133.797 1.99413 137.663 1.97802 140.922 1.84508C141.302 1.82909 141.794 2.03502 142.161 2.00206C144.268 1.8131 146.79 2.10411 148.967 2.02111C149.193 2.06603 149.42 2.11107 149.647 2.15502C149.846 2.15001 150.153 2.01305 150.352 2.00402C150.449 2.03307 150.546 2.0631 150.643 2.09203C150.932 2.08007 151.388 1.97106 151.665 1.96312C151.786 2.00011 151.907 2.0371 152.029 2.07409C152.094 2.07103 152.272 1.94713 152.321 1.9431C152.467 1.98803 152.612 2.03209 152.758 2.07604C152.971 2.07311 153.33 1.95507 153.536 1.94713C153.763 1.99108 153.99 2.03612 154.216 2.08007C154.592 2.08312 155.114 1.97203 155.481 1.95202C155.578 1.98204 155.675 2.0111 155.772 2.04113C155.827 2.03502 155.994 1.91613 156.064 1.91002C156.416 1.88207 156.673 2.00609 157.012 1.97911C157.211 1.96202 157.519 1.83007 157.717 1.82702C157.887 1.87902 158.057 1.93102 158.227 1.98204C158.638 1.97606 159.162 1.78502 159.54 1.72313C159.686 1.76708 159.832 1.81102 159.977 1.85509C160.185 1.85106 160.49 1.72106 160.683 1.70409C160.837 1.72606 160.99 1.74901 161.144 1.77111C161.619 1.71202 162.164 1.53307 162.628 1.4901L163.405 1.58007C163.685 1.54113 164.078 1.37902 164.378 1.36303C164.475 1.39306 164.573 1.42211 164.67 1.45202C164.739 1.44811 164.908 1.32702 164.962 1.32103C165.197 1.34411 165.431 1.36608 165.666 1.38903C166.779 1.29711 168.07 1.19909 169.192 1.07006C169.396 1.04613 169.48 1.18712 169.556 1.18102C169.73 1.1671 169.879 0.971058 170.043 0.963124C170.107 1.00707 170.172 1.05101 170.237 1.09508C170.441 1.09105 170.802 0.97704 171.015 0.965077C171.112 0.995106 171.209 1.02501 171.306 1.05407C171.379 1.00304 171.453 0.952015 171.526 0.901112C171.761 0.924061 171.995 0.946034 172.23 0.969105C173.228 0.901112 174.204 1.03405 175.292 1.02208C176.03 1.01305 176.988 1.02013 177.747 0.963124C178.141 0.933094 178.394 1.13305 178.816 1.1411C179.091 1.14708 179.473 1.05504 179.74 1.05602C179.862 1.09313 179.983 1.13012 180.104 1.1671C180.495 1.15905 181.045 1.06408 181.441 1.06102C181.936 1.11412 182.43 1.1671 182.923 1.21911C183.314 1.21605 183.88 1.14403 184.261 1.11303C184.722 1.18004 185.184 1.24804 185.645 1.31505C185.8 1.31102 186.079 1.20507 186.253 1.20702C186.456 1.24413 186.658 1.28112 186.86 1.3181C187.003 1.29906 187.278 1.13512 187.42 1.12206C187.647 1.1671 187.874 1.21105 188.1 1.25609C188.283 1.24804 188.571 1.09703 188.733 1.08202C188.854 1.11913 188.976 1.15612 189.097 1.1931C189.254 1.18908 189.621 1.11412 189.778 1.10704C189.875 1.13707 189.972 1.16613 190.069 1.19603C190.824 1.12804 191.705 1.05004 192.428 0.961048C192.815 0.913075 193.231 1.07811 193.618 1.03002C193.889 0.997059 194.353 0.912098 194.64 0.902088C194.818 0.931019 194.996 0.961048 195.174 0.991078C195.972 0.933094 196.969 0.778065 197.776 0.757069C197.897 0.794056 198.018 0.831043 198.14 0.868031C198.332 0.868031 198.628 0.78307 198.821 0.782093C199.023 0.819081 199.225 0.856068 199.428 0.893055C200.358 0.885121 201.556 0.877064 202.515 0.880116C202.741 0.925038 202.968 0.969105 203.195 1.01403C203.417 1.01305 203.783 0.96703 204.021 0.972035C204.143 1.00902 204.264 1.04613 204.385 1.08312C204.566 1.07409 204.785 0.847035 204.799 0.843128C204.872 0.826039 205.965 1.10802 206.16 1.1101C206.68 1.11608 207.396 1.06713 207.886 1.04906C208.29 1.12401 208.695 1.19811 209.1 1.27208C210.462 1.23302 212.01 1.34411 213.377 1.32909C213.782 1.40306 214.187 1.47704 214.592 1.55101C214.815 1.54711 215.22 1.45104 215.443 1.44408C215.67 1.48912 215.896 1.53307 216.123 1.57811C216.295 1.57909 216.579 1.47106 216.731 1.47008C216.925 1.52904 217.119 1.58812 217.314 1.64708C217.744 1.64708 218.38 1.57811 218.797 1.58507C218.942 1.63012 219.088 1.67406 219.234 1.71813C219.711 1.72802 220.472 1.72802 220.935 1.72313C221.081 1.76806 221.226 1.81212 221.372 1.85607C222.311 1.84508 223.48 1.85204 224.386 1.82103C224.898 1.80407 225.231 1.95812 225.722 1.93407C225.798 1.93102 226.011 1.82811 226.087 1.82604C226.209 1.86303 226.33 1.90001 226.451 1.93712C226.761 1.94005 227.304 1.92308 227.594 1.91808C227.715 1.95507 227.837 1.99205 227.958 2.02904C228.03 2.02611 228.193 1.90502 228.25 1.89806C228.561 1.85802 228.757 2.02306 229.1 2.01012C229.257 2.00402 229.512 1.90209 229.708 1.90209C229.805 1.93212 229.902 1.96105 230 1.99108C231.965 1.90807 234.086 1.80809 236.028 1.70104C236.46 1.67711 236.756 1.85204 237.194 1.83605C237.624 1.82006 238.251 1.73412 238.702 1.70812C238.848 1.75304 238.993 1.79711 239.139 1.84105C239.326 1.84008 239.765 1.79711 239.965 1.80004C240.087 1.83702 240.208 1.87401 240.33 1.91112C241.104 1.90001 242.161 2.05309 242.954 2.05004L243.391 2.18309C243.627 2.18102 244.153 2.11803 244.388 2.12011L245.116 2.34105C245.334 2.34813 245.708 2.29113 245.943 2.30004C246.088 2.34411 246.234 2.38805 246.38 2.43309C247.213 2.42809 248.256 2.53612 249.101 2.52806L249.854 2.68407C250.623 2.66613 251.61 2.64708 252.382 2.64708C252.658 2.70702 252.933 2.7661 253.208 2.82604C253.531 2.8131 254.089 2.69811 254.4 2.67504C254.545 2.71911 254.691 2.76403 254.837 2.80809C255.053 2.81505 255.407 2.74804 255.59 2.74413C255.712 2.78112 255.833 2.8181 255.954 2.85509C256.688 2.86107 257.519 2.74205 258.264 2.75206C258.49 2.79711 258.717 2.84105 258.944 2.8861C259.272 2.88903 259.756 2.86107 260.086 2.86705C260.361 2.92711 260.637 2.98607 260.912 3.04503C260.985 3.04406 261.204 2.9381 261.277 2.93602C261.734 2.92907 262.203 3.14208 262.662 3.13805C263.224 3.13207 264.012 3.06713 264.558 3.05602C264.956 3.04711 265.142 3.22606 265.554 3.21202C265.685 3.20702 265.884 3.06408 266.016 3.06005C266.444 3.04613 266.669 3.23607 267.085 3.23803C267.833 3.24303 268.803 3.17211 269.54 3.18004C269.864 3.25402 270.187 3.32811 270.511 3.40209L270.56 3.27013C270.819 3.30004 271.079 3.33007 271.338 3.3601C272.021 3.27111 272.973 3.22411 273.672 3.19103C273.769 3.22106 273.866 3.25109 273.963 3.28002C274.039 3.27709 274.252 3.17308 274.328 3.17113C274.794 3.15905 275.205 3.30504 275.664 3.28502C278.809 3.14806 282.098 3.39403 285.386 3.53209C285.782 3.62804 286.179 3.72509 286.575 3.82103C287.44 3.82506 288.479 3.89306 289.37 3.93908C289.694 4.01305 290.018 4.08702 290.341 4.16112C290.644 4.17711 291.097 4.17504 291.386 4.18602C291.532 4.23009 291.678 4.27501 291.824 4.31908C294.469 4.16503 297.448 4.63512 300.159 4.5841C300.652 4.57506 301.081 4.73302 301.558 4.77111L302.23 4.76403Z" fill="currentColor"/>
</svg>
