<svg preserveAspectRatio="none" width="100%" height="100%" overflow="visible" style="display: block;" viewBox="0 0 197.946 203.953" fill="none" xmlns="http://www.w3.org/2000/svg">
<g id="&#227;&#130;&#176;&#227;&#131;&#171;&#227;&#131;&#188;&#227;&#131;&#151; 111">
<path id="&#227;&#131;&#145;&#227;&#130;&#185; 58" d="M194.987 99.6708C192.999 93.9749 190.03 88.6178 188.489 82.7888C186.414 74.9398 187.037 66.6798 186.052 58.6319C182.768 31.8178 158.755 8.31984 131.814 7.36684C126.96 7.19484 122.079 7.6808 117.262 7.02077C112.201 6.3268 107.394 4.39284 102.482 2.96083C80.9325 -3.32322 56.7636 0.537859 38.4357 13.1908C20.1076 25.8449 7.98158 47.0429 6.30067 69.3638C5.52968 79.6078 7.59169 89.3228 5.40468 99.5988C3.74159 107.416 1.18153 115.055 0.318739 123.007C-2.23229 146.505 10.8097 169.94 29.4005 184.762C42.5536 195.247 58.6347 202.192 75.3087 203.664C91.9835 205.135 109.182 200.979 122.758 191.353C128.5 187.281 133.656 182.238 140.102 179.394C146.118 176.739 152.85 176.184 159.139 174.248C174.208 169.608 186.119 156.466 192.515 142.403C198.545 129.144 199.823 113.529 194.987 99.6708Z" fill="var(--fill-0, #45B0A7)"/>
</g>
</svg>
