<svg viewBox="0 0 332.032 169.401" fill="none" xmlns="http://www.w3.org/2000/svg">
<g>
<path id="&#227;&#131;&#145;&#227;&#130;&#185; 97" d="M22.978 77.9409C23.29 78.0559 24.01 79.2607 24.056 79.6738C24.613 84.7759 22.672 92.5669 21.021 97.5469C18.547 105.006 12.8001 110.406 9.11902 117.431C-4.281 143.008 14.106 170.676 47.5861 167.098L54.837 165.442C55.129 166.924 54.364 167.288 52.99 167.879C43.571 171.923 24.344 167.066 15.2581 163.126C6.09302 159.153 0.00500832 146.598 3.43888e-06 137.946C-0.00597801 123.08 7.792 116.291 15.27 104.491C19.708 97.4868 19.775 89.2178 20.686 81.4888C20.854 80.0488 20.9399 77.1919 22.978 77.9409Z" fill="black"/><path id="&#227;&#131;&#145;&#227;&#130;&#185; 98" d="M69.3221 161.216C68.059 162.301 63.6761 166.075 61.8221 165.061C59.9041 164.013 63.95 162.129 64.5761 161.667C76.6591 152.732 80.241 142.367 78.6651 129.256C76.6181 112.226 59.9211 105.263 59.277 87.8909C59.2331 86.7019 57.8801 78.3028 60.495 78.1148C64.6771 77.8147 62.86 89.5418 63.3071 92.5779C64.367 99.7679 73.137 107.8 76.9061 114.531C85.4731 129.828 83.9051 148.686 69.3221 161.216Z" fill="black"/><path id="&#227;&#131;&#145;&#227;&#130;&#185; 99" d="M37.4289 21.7827L35.51 21.2697C36.135 12.2739 30.8659 6.34372 22.63 3.63791C18.384 2.24289 13.297 2.26975 9.06893 3.81076C6.77694 4.64475 5.74496 10.1777 5.47091 12.4738C4.17892 23.3178 11.4919 32.9009 22.91 32.0278C24.7299 31.8889 30.136 30.5449 31.7939 29.7458C33.18 29.0788 37.2259 24.3657 37.5489 27.5737C37.758 29.6477 35.505 30.1858 34.307 31.2029C25.2369 38.9048 11.9139 36.4917 5.07394 26.9697C0.999965 21.2978 1.47702 13.2749 2.84799 6.81174C3.22995 5.01291 4.00595 1.94382 6.00399 1.28073C8.238 0.53879 13.024 -0.0351842 15.378 0.00168103C27.3549 0.18674 38.982 8.81369 37.4289 21.7827Z" fill="black"/><path id="&#227;&#131;&#145;&#227;&#130;&#185; 100" d="M60.4489 8.13784C53.115 9.81582 47.561 15.7726 44.99 22.8007C44.73 23.5097 44.531 28.2338 42.4399 25.8136C39.74 22.6876 43.7939 16.1437 45.864 13.3246C50.901 6.46279 58.427 3.64175 66.853 4.21475C67.973 4.29067 75.4869 6.17471 75.961 6.7377C76.4189 7.28164 76.92 10.6698 76.889 11.4796C76.744 15.3236 75.733 21.7687 73.753 25.0956C69.6419 32.0028 62.317 35.0058 54.454 34.7438C50.8449 34.6227 43.927 33.5277 44.7369 28.6146C48.803 29.1977 49.537 31.6278 54.197 31.7377C61.37 31.9057 66.55 28.9667 70.364 23.1107C73.62 18.1117 74.453 14.5397 73.155 8.5397C72.821 8.11782 69.962 7.3688 69.259 7.32681C66.625 7.1708 62.985 7.55776 60.4489 8.13784C64.16 6.58169 61.383 13.6686 60.485 14.9757C61.0489 15.4367 68.086 13.0917 67.266 16.0038C67.144 16.4347 59.9659 18.1498 58.7049 18.6508C58.3039 18.8107 55.651 19.5507 56.331 20.2948C58.779 21.0436 62.8239 22.3368 62.88 25.3756C60.9239 25.3117 59.754 23.6098 57.8919 22.7497C56.727 22.2128 55.156 21.8407 53.909 21.4186C52.4489 21.4857 50.561 26.0697 48.579 25.4088C46.0649 24.5707 51.5909 19.7748 52.5899 19.0517C55.7099 16.7978 56.837 17.7516 58.631 13.5827C59.016 12.6886 60.1839 8.24868 60.4489 8.13784Z" fill="black"/><path id="&#227;&#131;&#145;&#227;&#130;&#185; 101" d="M29.051 18.7338L28.5909 12.5759L29.657 11.9137C31.045 11.9948 31.667 16.6557 31.636 17.8537C31.611 18.8146 30.91 19.6069 31.147 20.6847C31.337 21.5497 35.019 24.2687 33.398 25.1957C32.259 25.8976 31.281 24.4968 30.385 24.5617C29.465 24.6298 28.252 25.5807 27.0551 25.7917C25.79 26.0158 17.791 26.5837 18.4709 24.3337C18.9189 22.8517 21.4041 23.8908 22.083 23.8488C23.407 23.7658 26.535 23.5617 27.6429 23.2778C28.0909 23.1618 28.489 22.8456 28.416 22.3407C28.256 21.2948 20.74 16.2997 19.358 15.4496C18.373 14.8437 14.09 13.4916 14.467 12.1347C15.061 10.0048 21.62 14.3437 22.052 14.0568C21.5 12.9496 21.896 11.7416 21.624 10.5988C21.379 9.5678 18.398 5.40886 22.1639 6.88469C24.567 7.82585 23.851 14.3068 24.73 15.9186C24.854 16.1437 28.871 18.9186 29.051 18.7338Z" fill="black"/><path id="&#227;&#131;&#145;&#227;&#130;&#185; 102" d="M41.438 45.38C39.442 44.8309 40.38 41.6429 40.238 39.964C39.833 35.173 38.401 30.8028 35.9869 26.6429C36.906 24.8959 39.666 24.9908 40.645 26.608C41.174 27.484 40.834 28.5199 41.103 29.4388C42.3781 33.798 44.5341 38.1478 43.573 42.975C43.374 43.973 42.8 45.755 41.438 45.38Z" fill="black"/><path id="&#227;&#131;&#145;&#227;&#130;&#185; 103" d="M63.098 64.6687C63.0241 64.7759 62.4721 64.7759 62.421 65.0359C62.24 65.9519 63.255 67.9439 63.296 69.1577C63.395 72.1248 60.728 76.2339 57.1119 76.9209C55.026 77.3179 47.559 77.7368 45.129 77.7307C41.874 77.7229 37.8941 76.982 34.6851 76.9798C33.166 76.9788 30.462 77.732 29.2369 77.5689C28.781 77.5078 28.478 76.8709 27.926 76.732C26.292 76.3189 24.372 77.1028 22.572 75.9749C19.2531 73.8938 19.328 64.8799 24.8211 69.9048L23.822 72.8137L27.6591 75.5589C28.432 75.5747 28.7369 74.6338 30.089 74.5359C32.627 74.3528 37.6021 75.2268 40.51 75.284C44.6441 75.3648 54.766 75.3899 58.068 73.5388C59.0551 72.9849 60.271 69.7449 60.3101 68.7788C60.3731 67.1787 58.5291 65.1448 58.75 64.0008C58.947 62.9949 60.719 61.9949 60.796 60.43C60.8781 58.7979 59.202 57.7717 59.0711 56.2468C58.867 53.8618 61.813 52.0437 60.296 49.6638C59.7321 48.7798 58.385 48.6199 58.658 47.1897L59.364 46.3347C62.335 46.2529 64.726 48.7298 64.9251 51.0579C65.135 53.5078 62.427 54.9387 62.21 56.388C62.021 57.6309 64.24 58.2239 64.511 59.3989C64.993 61.4839 64.281 62.9487 63.098 64.6687Z" fill="black"/><path id="&#227;&#131;&#145;&#227;&#130;&#185; 104" d="M57.802 45.6409C58.1889 46.1079 57.758 47.4649 56.807 47.3657L44.6939 46.6258C39.8969 47.2459 34.276 46.3977 29.661 46.6438C25.598 46.8609 23.0129 48.3259 23.65 52.0388C23.838 53.138 25.963 55.1338 23.823 55.3977C20.7869 55.7727 18.891 50.1599 19.76 48.4929C20.823 46.4519 23.628 45.1128 26.13 44.7459C32.0629 43.8767 41.055 44.6909 47.187 44.9248C48.791 44.9859 57.078 44.7708 57.802 45.6409Z" fill="black"/><path id="&#227;&#131;&#145;&#227;&#130;&#185; 105" d="M54.0899 66.1968C54.2199 67.2827 53.676 68.7449 52.202 68.9797C49.1999 69.4587 43.843 68.8748 40.508 68.9707C38.31 69.0339 30.443 70.0479 29.052 69.5068C27.782 69.0129 28.55 67.7529 28.8349 66.8857L29.671 66.5398L54.0899 66.1968Z" fill="black"/><path id="&#227;&#131;&#145;&#227;&#130;&#185; 106" d="M53.253 59.2187C52.635 62.9347 43.865 60.9418 40.546 60.9486C37.453 60.9547 35.0529 62.4286 32.185 62.3857C30.8709 62.3656 26.836 61.7817 28.071 60.2629C36.258 58.7387 44.9119 58.9457 53.253 59.2187Z" fill="black"/><path id="&#227;&#131;&#145;&#227;&#130;&#185; 107" d="M53.623 52.6247L53.616 53.9367C52.5909 54.1809 51.541 54.5437 50.472 54.6508C45.772 55.1279 36.262 54.9687 31.326 54.6948C30.825 54.6677 29.1639 54.5769 29.033 54.1118L29.049 52.9367C32.434 52.7697 35.816 52.4868 39.205 52.3698C41.316 52.2968 43.793 52.2438 45.9301 52.2238C46.959 52.2128 53.262 52.2468 53.623 52.6247Z" fill="black"/><path id="&#227;&#131;&#145;&#227;&#130;&#185; 108" d="M22.2431 57.1757C25.164 56.4706 23.0921 60.2997 23.6651 62.1417C24.13 63.6408 26.155 64.5668 24.491 65.6937C21.674 67.6027 18.733 62.4267 19.7791 60.0106C19.983 59.5397 21.687 57.3097 22.2431 57.1757Z" fill="black"/><path id="&#227;&#131;&#145;&#227;&#130;&#185; 109" d="M20.882 18.3327L21.262 19.7429C21.026 20.5058 13.7061 21.9997 13.203 20.1147C12.448 17.2868 18.9771 18.4748 20.882 18.3327Z" fill="black"/><path id="&#227;&#131;&#145;&#227;&#130;&#185; 110" d="M46.962 120.894C48.2029 119.765 51.7359 121.973 52.8329 122.701C63.8979 130.04 64.124 149.008 52.946 155.331C46.317 159.081 37.404 159.137 30.7029 155.444C20.3589 149.742 20.0849 132.794 27.8799 125.072C28.3489 124.607 31.452 122.071 31.7189 121.91C32.067 121.7 33.7499 121.053 34.2029 120.781C35.8969 119.765 40.0639 119.115 40.2669 118.52C40.192 113.657 39.7079 108.76 39.628 103.918C39.5279 97.8528 39.134 88.4529 39.624 82.5527C39.952 78.6128 42.306 79.7358 42.3069 82.8809C42.3149 92.6968 42.3669 103.862 42.8969 113.668C43.0209 115.962 43.598 117.88 42.374 120.302C41.5679 121.897 38.353 121.785 36.697 122.293C19.218 127.657 21.6899 155.389 40.4659 155.063C51.0259 154.88 54.1219 151.508 56.2199 147.089C59.3539 140.489 58.253 128.798 50.2359 124.281C49.3979 123.809 47.6469 123.476 47.1879 122.701C46.9339 122.272 46.634 121.192 46.962 120.894Z" fill="black"/><path id="&#227;&#131;&#145;&#227;&#130;&#185; 111" d="M29.571 103.581C30.343 103.561 31.958 103.621 32.299 104.412L35.448 116.765C35.827 117.958 33.374 118.323 32.802 117.852C30.709 113.497 29.6541 108.407 29.571 103.581Z" fill="black"/><path id="&#227;&#131;&#145;&#227;&#130;&#185; 112" d="M56.104 103.659C56.374 103.925 56.511 104.51 56.428 104.892C54.996 108.195 53.897 111.858 52.925 115.329C52.399 117.209 52.978 119.569 50.13 117.498L54.0699 103.792C54.3101 102.992 55.66 103.221 56.104 103.659Z" fill="black"/><path id="&#227;&#131;&#145;&#227;&#130;&#185; 113" d="M21.729 112.041C22.7581 113.036 24.394 115.884 25.553 117.257C26.28 118.12 28.25 119.375 28.205 120.446C28.123 122.38 26.064 121.181 25.141 120.541C22.646 118.81 21.29 114.772 19.348 112.387L19.4969 111.608C19.9919 110.903 21.219 111.548 21.729 112.041Z" fill="black"/><path id="&#227;&#131;&#145;&#227;&#130;&#185; 114" d="M23.3089 125.619C23.536 125.842 23.828 126.845 23.67 127.065C22.6479 127.251 22.185 128.143 21.092 128.026C20.701 127.984 16.285 125.887 15.8809 125.551C13.8 123.822 15.707 122.778 17.895 123.148C18.2669 123.211 23.097 125.41 23.3089 125.619Z" fill="black"/><path id="&#227;&#131;&#145;&#227;&#130;&#185; 115" d="M67.732 128.232C67.9959 128.586 68.769 128.461 68.5279 129.367C68.1429 130.814 65.661 130.354 64.6949 130.5C63.5279 130.675 61.15 131.402 60.2099 130.957C59.1419 130.452 60.201 128.565 60.718 128.38C61.347 128.154 62.8 128.143 63.671 127.929C64.6089 127.699 66.5799 126.683 67.343 127.234C67.592 127.414 67.5389 127.973 67.732 128.232Z" fill="black"/><path id="&#227;&#131;&#145;&#227;&#130;&#185; 116" d="M63.5179 116.013C64.833 115.615 65.425 116.284 65.087 117.581C64.9019 118.29 61.326 122.05 60.63 122.412C59.332 123.088 57.5429 122.887 57.556 121.219L63.5179 116.013Z" fill="black"/><path id="&#227;&#131;&#145;&#227;&#130;&#185; 117" d="M36.149 130.883C39.881 129.323 39.969 134.353 37.16 134.223C35.358 133.724 35.389 131.527 36.149 130.883Z" fill="black"/><path id="&#227;&#131;&#145;&#227;&#130;&#185; 118" d="M48.677 131.507C49.4631 132.073 48.807 134.325 47.6591 134.517C43.9101 135.145 45.208 129.01 48.677 131.507Z" fill="black"/><path id="&#227;&#131;&#145;&#227;&#130;&#185; 119" d="M56.479 164.415C58.749 163.647 60.602 164.11 60.858 166.862C60.287 168.904 55.667 166.577 56.479 164.415Z" fill="black"/><path id="&#227;&#131;&#145;&#227;&#130;&#185; 120" d="M31.611 136.006C31.611 136.006 33.07 143.419 41.971 143.685C50.137 143.928 52.4531 137.469 52.4531 137.469C52.4531 137.469 52.6971 136.25 53.6721 136.615C54.647 136.981 54.1591 138.078 54.1591 138.078C54.1591 138.078 51.965 146 41.971 145.757C31.71 145.506 30.2701 137.469 30.2701 137.469C30.2701 137.469 29.6611 135.64 31.611 136.006Z" fill="black"/><path id="&#227;&#131;&#145;&#227;&#130;&#185; 121" d="M180.057 133.891C179.843 134.546 179.537 135.088 179.141 135.52C178.746 135.95 178.27 136.272 177.712 136.483C177.152 136.695 176.533 136.801 175.855 136.801C175.193 136.801 174.582 136.688 174.022 136.466C173.464 136.242 172.984 135.932 172.58 135.537C172.177 135.142 171.861 134.671 171.635 134.124C171.406 133.578 171.293 132.977 171.293 132.322C171.293 131.667 171.408 131.063 171.64 130.508C171.871 129.954 172.195 129.473 172.61 129.066C173.026 128.659 173.512 128.341 174.072 128.114C174.63 127.886 175.24 127.772 175.902 127.772C176.334 127.772 176.721 127.808 177.064 127.88C177.407 127.952 177.718 128.051 177.991 128.179C178.267 128.308 178.511 128.455 178.723 128.623C178.934 128.79 179.127 128.97 179.303 129.161L177.554 130.909C177.307 130.67 177.057 130.485 176.802 130.353C176.545 130.22 176.226 130.155 175.843 130.155C175.604 130.155 175.38 130.205 175.172 130.305C174.964 130.405 174.786 130.546 174.634 130.729C174.481 130.914 174.365 131.135 174.281 131.395C174.197 131.653 174.155 131.939 174.155 132.25C174.155 133.049 174.318 133.644 174.646 134.035C174.973 134.425 175.423 134.621 175.999 134.621C176.429 134.621 176.775 134.532 177.035 134.352C177.293 134.173 177.49 133.938 177.626 133.651H175.698V131.58H180.381C180.381 132.466 180.273 133.236 180.057 133.891Z" fill="var(--fill-0, #231815)"/><path id="&#227;&#131;&#145;&#227;&#130;&#185; 122" d="M185.003 136.657V136.166C184.787 136.35 184.548 136.491 184.284 136.591C184.021 136.691 183.689 136.741 183.29 136.741C183.051 136.741 182.823 136.707 182.608 136.639C182.393 136.571 182.203 136.471 182.039 136.339C181.876 136.207 181.746 136.048 181.65 135.861C181.555 135.673 181.506 135.455 181.506 135.208C181.506 134.561 181.802 134.074 182.393 133.747C182.983 133.42 183.853 133.236 185.003 133.196V133.125C185.003 132.965 184.945 132.845 184.829 132.765C184.713 132.685 184.508 132.646 184.212 132.646C183.957 132.646 183.68 132.68 183.381 132.747C183.081 132.815 182.803 132.917 182.548 133.053L181.962 131.687C182.153 131.592 182.352 131.508 182.56 131.436C182.768 131.365 182.989 131.304 183.224 131.257C183.46 131.208 183.719 131.171 184.003 131.143C184.286 131.114 184.604 131.1 184.955 131.1C185.841 131.1 186.513 131.266 186.972 131.598C187.432 131.929 187.661 132.482 187.661 133.256V136.657H185.003ZM185.039 134.262C184.64 134.278 184.356 134.342 184.189 134.453C184.021 134.566 183.937 134.717 183.937 134.909C183.937 135.045 183.987 135.152 184.087 135.232C184.187 135.311 184.305 135.352 184.44 135.352C184.56 135.352 184.671 135.33 184.776 135.286C184.879 135.242 184.967 135.184 185.039 135.112V134.262Z" fill="var(--fill-0, #231815)"/><path id="&#227;&#131;&#145;&#227;&#130;&#185; 123" d="M194.188 133.352L195.768 136.657H192.943L192.308 135.255L191.889 135.77V136.657H189.206V127.916H191.889V132.933L193.122 131.136H195.817L194.188 133.352Z" fill="var(--fill-0, #231815)"/><path id="&#227;&#131;&#145;&#227;&#130;&#185; 124" d="M201.97 133.352L203.55 136.657H200.725L200.09 135.255L199.671 135.77V136.657H196.988V127.916H199.671V132.933L200.904 131.136H203.599L201.97 133.352Z" fill="var(--fill-0, #231815)"/><path id="&#227;&#131;&#145;&#227;&#130;&#185; 125" d="M206.471 134.37C206.567 134.673 206.723 134.887 206.938 135.01C207.154 135.134 207.389 135.196 207.644 135.196C208.236 135.196 208.786 135.012 209.298 134.645L210.159 135.891C209.816 136.17 209.417 136.392 208.961 136.555C208.507 136.718 207.996 136.8 207.429 136.8C206.919 136.8 206.462 136.732 206.058 136.597C205.655 136.461 205.312 136.268 205.029 136.016C204.745 135.764 204.528 135.461 204.376 135.106C204.224 134.751 204.148 134.354 204.148 133.914C204.148 133.484 204.22 133.09 204.364 132.735C204.507 132.38 204.709 132.073 204.969 131.813C205.228 131.554 205.535 131.352 205.89 131.208C206.246 131.064 206.635 130.993 207.058 130.993C207.521 130.993 207.94 131.063 208.316 131.202C208.69 131.342 209.011 131.554 209.279 131.837C209.547 132.121 209.752 132.474 209.896 132.897C210.04 133.32 210.111 133.811 210.111 134.37H206.471ZM207.597 132.621C207.469 132.462 207.301 132.382 207.094 132.382C206.934 132.382 206.783 132.453 206.639 132.597C206.495 132.741 206.424 132.968 206.424 133.28H207.788C207.788 133.001 207.724 132.782 207.597 132.621Z" fill="var(--fill-0, #231815)"/><path id="&#227;&#131;&#145;&#227;&#130;&#185; 126" d="M215.152 136.656V133.795C215.152 133.579 215.121 133.411 215.057 133.292C214.992 133.172 214.87 133.112 214.685 133.112C214.518 133.112 214.388 133.17 214.297 133.286C214.204 133.401 214.159 133.56 214.159 133.76V136.656H211.476V131.136H214.159V131.724C214.35 131.5 214.583 131.323 214.859 131.19C215.135 131.06 215.44 130.993 215.776 130.993C216.135 130.993 216.444 131.049 216.703 131.161C216.963 131.273 217.177 131.424 217.344 131.615C217.512 131.807 217.635 132.034 217.714 132.299C217.794 132.562 217.834 132.844 217.834 133.148V136.656H215.152Z" fill="var(--fill-0, #231815)"/><path id="&#227;&#131;&#145;&#227;&#130;&#185; 127" d="M230.223 136.058C229.995 136.21 229.748 136.341 229.481 136.453C229.213 136.565 228.922 136.65 228.607 136.71C228.291 136.771 227.942 136.8 227.559 136.8C226.896 136.8 226.286 136.688 225.727 136.465C225.167 136.241 224.687 135.932 224.284 135.537C223.88 135.142 223.565 134.671 223.338 134.124C223.109 133.577 222.997 132.976 222.997 132.322C222.997 131.667 223.112 131.063 223.343 130.508C223.575 129.953 223.899 129.472 224.313 129.065C224.729 128.658 225.216 128.341 225.775 128.113C226.333 127.886 226.943 127.772 227.606 127.772C227.957 127.772 228.281 127.806 228.577 127.874C228.872 127.941 229.145 128.033 229.396 128.149C229.648 128.265 229.88 128.398 230.091 128.55C230.302 128.702 230.505 128.857 230.696 129.017L229.259 130.969C229.01 130.729 228.76 130.534 228.505 130.382C228.249 130.231 227.93 130.154 227.547 130.154C227.307 130.154 227.083 130.204 226.875 130.304C226.667 130.404 226.489 130.546 226.337 130.729C226.186 130.913 226.068 131.134 225.984 131.394C225.9 131.653 225.858 131.939 225.858 132.25C225.858 132.561 225.9 132.851 225.984 133.118C226.068 133.386 226.188 133.615 226.349 133.806C226.509 133.999 226.703 134.148 226.936 134.256C227.167 134.364 227.427 134.417 227.714 134.417C228.041 134.417 228.353 134.35 228.648 134.214C228.943 134.078 229.219 133.891 229.474 133.651L230.875 135.555C230.667 135.739 230.45 135.906 230.223 136.058Z" fill="var(--fill-0, #231815)"/><path id="&#227;&#131;&#145;&#227;&#130;&#185; 128" d="M236.586 133.831C236.426 133.711 236.289 133.627 236.173 133.579C236.057 133.531 235.919 133.507 235.76 133.507C235.457 133.507 235.239 133.609 235.107 133.813C234.976 134.016 234.91 134.257 234.91 134.537V136.657H232.227V131.136H234.91V131.819C235.053 131.604 235.253 131.412 235.508 131.244C235.764 131.077 236.06 130.993 236.395 130.993C236.65 130.993 236.89 131.029 237.113 131.1C237.336 131.172 237.552 131.3 237.759 131.484L236.586 133.831Z" fill="var(--fill-0, #231815)"/><path id="&#227;&#131;&#145;&#227;&#130;&#185; 129" d="M240.777 134.37C240.873 134.673 241.029 134.887 241.244 135.01C241.46 135.134 241.695 135.196 241.95 135.196C242.542 135.196 243.092 135.012 243.604 134.645L244.465 135.891C244.122 136.17 243.723 136.392 243.268 136.555C242.813 136.718 242.302 136.8 241.735 136.8C241.225 136.8 240.768 136.732 240.364 136.597C239.961 136.461 239.618 136.268 239.335 136.016C239.051 135.764 238.834 135.461 238.682 135.106C238.53 134.751 238.455 134.354 238.455 133.914C238.455 133.484 238.526 133.09 238.67 132.735C238.813 132.38 239.015 132.073 239.275 131.813C239.534 131.554 239.841 131.352 240.196 131.208C240.552 131.064 240.941 130.993 241.364 130.993C241.827 130.993 242.246 131.063 242.622 131.202C242.996 131.342 243.318 131.554 243.585 131.837C243.853 132.121 244.058 132.474 244.202 132.897C244.346 133.32 244.417 133.811 244.417 134.37H240.777ZM241.903 132.621C241.775 132.462 241.607 132.382 241.4 132.382C241.241 132.382 241.089 132.453 240.945 132.597C240.801 132.741 240.73 132.968 240.73 133.28H242.094C242.094 133.001 242.03 132.782 241.903 132.621Z" fill="var(--fill-0, #231815)"/><path id="&#227;&#131;&#145;&#227;&#130;&#185; 130" d="M249.003 136.657V136.166C248.787 136.35 248.548 136.491 248.284 136.591C248.021 136.691 247.689 136.741 247.29 136.741C247.051 136.741 246.823 136.707 246.608 136.639C246.393 136.571 246.203 136.471 246.039 136.339C245.876 136.207 245.746 136.048 245.65 135.861C245.555 135.673 245.506 135.455 245.506 135.208C245.506 134.561 245.802 134.074 246.393 133.747C246.983 133.42 247.854 133.236 249.003 133.196V133.125C249.003 132.965 248.945 132.845 248.829 132.765C248.713 132.685 248.508 132.646 248.212 132.646C247.957 132.646 247.68 132.68 247.381 132.747C247.081 132.815 246.803 132.917 246.548 133.053L245.962 131.687C246.153 131.592 246.352 131.508 246.56 131.436C246.768 131.365 246.989 131.304 247.224 131.257C247.46 131.208 247.719 131.171 248.003 131.143C248.286 131.114 248.604 131.1 248.955 131.1C249.841 131.1 250.513 131.266 250.972 131.598C251.432 131.929 251.661 132.482 251.661 133.256V136.657H249.003ZM249.039 134.262C248.64 134.278 248.356 134.342 248.189 134.453C248.021 134.566 247.937 134.717 247.937 134.909C247.937 135.045 247.987 135.152 248.087 135.232C248.187 135.311 248.305 135.352 248.44 135.352C248.56 135.352 248.671 135.33 248.776 135.286C248.879 135.242 248.967 135.184 249.039 135.112V134.262Z" fill="var(--fill-0, #231815)"/><path id="&#227;&#131;&#145;&#227;&#130;&#185; 131" d="M255.325 136.656C254.727 136.656 254.274 136.479 253.967 136.123C253.659 135.768 253.505 135.303 253.505 134.729V132.922H252.858V131.136H253.505V128.993H256.152V131.136H257.026V132.922H256.152V134.146C256.152 134.336 256.183 134.49 256.247 134.604C256.311 134.719 256.435 134.776 256.618 134.776H257.181V136.656H255.325Z" fill="var(--fill-0, #231815)"/><path id="&#227;&#131;&#145;&#227;&#130;&#185; 132" d="M258.593 128.334H261.323V130.37H258.593V128.334ZM258.617 131.136H261.299V136.656H258.617V131.136Z" fill="var(--fill-0, #231815)"/><path id="&#227;&#131;&#145;&#227;&#130;&#185; 133" d="M267.467 136.656H264.617L262.45 131.136H265.372L266.102 133.95L266.833 131.136H269.634L267.467 136.656Z" fill="var(--fill-0, #231815)"/><path id="&#227;&#131;&#145;&#227;&#130;&#185; 134" d="M272.579 134.37C272.675 134.673 272.831 134.887 273.046 135.01C273.262 135.134 273.497 135.196 273.752 135.196C274.344 135.196 274.894 135.012 275.406 134.645L276.267 135.891C275.924 136.17 275.525 136.392 275.07 136.555C274.615 136.718 274.104 136.8 273.537 136.8C273.027 136.8 272.57 136.732 272.167 136.597C271.763 136.461 271.42 136.268 271.137 136.016C270.853 135.764 270.636 135.461 270.484 135.106C270.332 134.751 270.257 134.354 270.257 133.914C270.257 133.484 270.328 133.09 270.472 132.735C270.615 132.38 270.818 132.073 271.077 131.813C271.336 131.554 271.643 131.352 271.998 131.208C272.354 131.064 272.743 130.993 273.167 130.993C273.629 130.993 274.048 131.063 274.424 131.202C274.798 131.342 275.12 131.554 275.387 131.837C275.655 132.121 275.86 132.474 276.004 132.897C276.148 133.32 276.219 133.811 276.219 134.37H272.579ZM273.705 132.621C273.577 132.462 273.409 132.382 273.202 132.382C273.043 132.382 272.891 132.453 272.747 132.597C272.603 132.741 272.532 132.968 272.532 133.28H273.896C273.896 133.001 273.832 132.782 273.705 132.621Z" fill="var(--fill-0, #231815)"/><path id="&#227;&#131;&#145;&#227;&#130;&#185; 135" d="M205.269 146.514C205.054 147.169 204.749 147.711 204.353 148.143C203.958 148.573 203.481 148.895 202.923 149.106C202.364 149.318 201.745 149.424 201.067 149.424C200.404 149.424 199.793 149.311 199.234 149.089C198.675 148.865 198.195 148.555 197.792 148.16C197.388 147.765 197.073 147.294 196.846 146.747C196.618 146.201 196.505 145.6 196.505 144.945C196.505 144.29 196.62 143.686 196.851 143.131C197.083 142.577 197.406 142.096 197.822 141.689C198.237 141.282 198.724 140.964 199.283 140.737C199.841 140.509 200.451 140.395 201.114 140.395C201.546 140.395 201.932 140.431 202.276 140.503C202.619 140.575 202.929 140.674 203.203 140.802C203.479 140.931 203.723 141.078 203.934 141.246C204.146 141.413 204.339 141.593 204.515 141.784L202.766 143.532C202.519 143.293 202.268 143.108 202.013 142.976C201.756 142.843 201.438 142.778 201.054 142.778C200.815 142.778 200.591 142.828 200.384 142.928C200.176 143.028 199.997 143.169 199.845 143.352C199.693 143.537 199.576 143.758 199.492 144.018C199.408 144.276 199.366 144.562 199.366 144.873C199.366 145.672 199.529 146.267 199.857 146.658C200.184 147.048 200.635 147.244 201.21 147.244C201.641 147.244 201.986 147.155 202.246 146.975C202.505 146.796 202.702 146.561 202.838 146.274H200.91V144.203H205.593C205.593 145.089 205.484 145.859 205.269 146.514Z" fill="var(--fill-0, #231815)"/><path id="&#227;&#131;&#145;&#227;&#130;&#185; 136" d="M210.214 149.28V148.789C209.998 148.973 209.759 149.114 209.495 149.214C209.232 149.314 208.9 149.364 208.501 149.364C208.262 149.364 208.034 149.33 207.819 149.262C207.604 149.194 207.414 149.094 207.25 148.962C207.087 148.83 206.957 148.671 206.861 148.484C206.766 148.296 206.717 148.078 206.717 147.831C206.717 147.184 207.013 146.697 207.604 146.37C208.194 146.043 209.065 145.859 210.214 145.819V145.748C210.214 145.588 210.156 145.468 210.04 145.388C209.924 145.308 209.719 145.269 209.423 145.269C209.168 145.269 208.891 145.303 208.592 145.37C208.292 145.438 208.014 145.54 207.759 145.676L207.173 144.31C207.364 144.215 207.563 144.131 207.771 144.059C207.979 143.988 208.2 143.927 208.435 143.88C208.671 143.831 208.93 143.794 209.214 143.766C209.497 143.737 209.815 143.723 210.166 143.723C211.052 143.723 211.724 143.889 212.183 144.221C212.643 144.552 212.872 145.105 212.872 145.879V149.28H210.214ZM210.25 146.885C209.851 146.901 209.567 146.965 209.4 147.076C209.232 147.189 209.148 147.34 209.148 147.532C209.148 147.668 209.198 147.775 209.298 147.855C209.398 147.934 209.516 147.975 209.651 147.975C209.771 147.975 209.882 147.953 209.987 147.909C210.09 147.865 210.178 147.807 210.25 147.735V146.885Z" fill="var(--fill-0, #231815)"/><path id="&#227;&#131;&#145;&#227;&#130;&#185; 137" d="M216.536 149.28C215.937 149.28 215.485 149.103 215.178 148.747C214.87 148.392 214.716 147.927 214.716 147.352V145.545H214.069V143.76H214.716V141.617H217.363V143.76H218.237V145.545H217.363V146.77C217.363 146.96 217.394 147.113 217.458 147.228C217.522 147.343 217.646 147.4 217.829 147.4H218.392V149.28H216.536Z" fill="var(--fill-0, #231815)"/><path id="&#227;&#131;&#145;&#227;&#130;&#185; 138" d="M221.864 146.994C221.96 147.297 222.116 147.51 222.331 147.633C222.547 147.758 222.782 147.82 223.037 147.82C223.629 147.82 224.179 147.635 224.691 147.268L225.552 148.513C225.209 148.794 224.81 149.016 224.355 149.179C223.9 149.341 223.389 149.424 222.822 149.424C222.312 149.424 221.855 149.356 221.451 149.221C221.048 149.085 220.705 148.891 220.422 148.64C220.138 148.388 219.921 148.085 219.769 147.729C219.617 147.375 219.542 146.977 219.542 146.538C219.542 146.107 219.613 145.713 219.757 145.359C219.9 145.003 220.102 144.697 220.362 144.437C220.621 144.177 220.928 143.976 221.283 143.831C221.639 143.687 222.028 143.617 222.451 143.617C222.914 143.617 223.333 143.687 223.709 143.825C224.083 143.966 224.405 144.177 224.672 144.461C224.94 144.745 225.145 145.098 225.289 145.521C225.433 145.943 225.504 146.435 225.504 146.994H221.864ZM222.99 145.245C222.862 145.086 222.694 145.005 222.487 145.005C222.328 145.005 222.176 145.076 222.032 145.221C221.888 145.365 221.817 145.591 221.817 145.904H223.181C223.181 145.625 223.117 145.406 222.99 145.245Z" fill="var(--fill-0, #231815)"/><path id="&#227;&#131;&#145;&#227;&#130;&#185; 139" d="M234.449 149.28H231.875L231.133 147.675L230.391 149.28H227.816L225.996 143.76H228.858L229.588 146.43L231.193 143.413L232.797 146.43L233.528 143.76H236.27L234.449 149.28Z" fill="var(--fill-0, #231815)"/><path id="&#227;&#131;&#145;&#227;&#130;&#185; 140" d="M240.52 149.28V148.789C240.304 148.973 240.065 149.114 239.801 149.214C239.538 149.314 239.206 149.364 238.807 149.364C238.568 149.364 238.34 149.33 238.125 149.262C237.91 149.194 237.72 149.094 237.556 148.962C237.393 148.83 237.263 148.671 237.167 148.484C237.072 148.296 237.023 148.078 237.023 147.831C237.023 147.184 237.319 146.697 237.91 146.37C238.5 146.043 239.37 145.859 240.52 145.819V145.748C240.52 145.588 240.462 145.468 240.346 145.388C240.23 145.308 240.025 145.269 239.729 145.269C239.474 145.269 239.197 145.303 238.898 145.37C238.598 145.438 238.32 145.54 238.065 145.676L237.479 144.31C237.67 144.215 237.869 144.131 238.077 144.059C238.285 143.988 238.506 143.927 238.741 143.88C238.977 143.831 239.236 143.794 239.52 143.766C239.803 143.737 240.121 143.723 240.472 143.723C241.358 143.723 242.03 143.889 242.489 144.221C242.949 144.552 243.178 145.105 243.178 145.879V149.28H240.52ZM240.556 146.885C240.157 146.901 239.873 146.965 239.706 147.076C239.538 147.189 239.454 147.34 239.454 147.532C239.454 147.668 239.504 147.775 239.604 147.855C239.704 147.934 239.822 147.975 239.957 147.975C240.077 147.975 240.188 147.953 240.293 147.909C240.396 147.865 240.484 147.807 240.556 147.735V146.885Z" fill="var(--fill-0, #231815)"/><path id="&#227;&#131;&#145;&#227;&#130;&#185; 141" d="M244.065 143.76H246.987L247.717 146.574L248.448 143.76H251.25L248.879 149.807C248.655 150.366 248.348 150.775 247.957 151.034C247.565 151.294 247.042 151.424 246.389 151.424H245.107V149.544H245.538C245.769 149.544 245.949 149.522 246.077 149.478C246.204 149.434 246.296 149.376 246.353 149.305L244.065 143.76Z" fill="var(--fill-0, #231815)"/>
</g>
<g transform="translate(91.10, 19.48)">
<path id="&#227;&#131;&#145;&#227;&#130;&#185; 93" d="M78.7521 63.7029C77.3671 63.7029 76.364 64.363 75.714 64.885C75.603 64.9661 73.5601 66.4629 70.8621 68.7261C70.125 65.0391 69.4401 62.2119 68.774 59.459L68.557 58.5601C67.7211 55.0979 66.999 52.1079 66.8671 50.4031C66.5431 47.5979 65.6471 44.3779 61.5601 44.3779C58.395 44.3779 56.5811 47.4819 54.864 50.917C47.323 65.4961 30.967 88.625 19.1801 88.625C11.5171 88.625 10.3721 81.52 10.3721 77.2849C10.3721 50.5359 44.12 12.2371 67.691 12.2371C70.2991 12.2371 76.365 12.9131 76.365 19.178C76.365 26.7571 72.4391 30.679 70.6841 32.4331C69.337 33.7791 68.5021 35.042 68.5021 37.1699C68.5021 39.8369 70.816 42.0889 73.5551 42.0889C76.0131 42.0889 77.5 40.551 78.8041 38.9871C81.437 35.876 86.337 30.083 86.337 19.0449C86.337 9.09399 79.0181 2.66406 67.691 2.66406C38.5901 2.66406 0 45.2051 0 77.2849C0 89.908 7.42407 98.064 18.9131 98.064C26.631 98.064 35.17 92.9441 44.2931 82.8489C50.708 75.75 56.0291 67.6929 59.333 62.24C60.0171 65.655 60.9651 70.5769 61.9541 76.3059C49.738 87.9451 35.584 104.835 35.584 120.598C35.584 129.861 42.511 136.846 51.698 136.846C66.6521 136.846 74.4761 120.292 74.4761 103.939C74.4761 96.448 73.7521 87.3169 72.4821 78.7209C76.92 74.812 80.3191 72.321 80.7881 72.0081C80.8461 71.97 80.9041 71.926 80.958 71.8821C82.192 70.853 82.8721 69.5061 82.8721 68.0889C82.8721 65.7119 80.9861 63.7029 78.7521 63.7029ZM65.037 103.273C65.037 119.292 58.4611 127.673 51.9651 127.673C47.563 127.673 45.4231 125.359 45.4231 120.598C45.4231 111.45 51.7051 100.03 63.64 87.4209C64.373 92.6851 65.037 98.5439 65.037 103.273Z" fill="#231815"/><path id="&#227;&#131;&#145;&#227;&#130;&#185; 94" d="M159.649 67.302C157.707 67.302 156.794 68.134 154.891 70.0371C152.65 72.343 147.989 77.1409 141.768 81.3921C134.226 86.5459 126.925 89.1589 120.066 89.1589C108.134 89.1589 94.201 82.175 94.201 62.4929C94.201 37.1421 115.342 9.30493 134.594 9.30493C141.045 9.30493 143.934 14.3979 143.934 19.446C143.934 24.8831 142.222 29.5259 140.638 31.531C139.524 32.9219 138.738 34.064 138.738 36.105C138.738 38.6101 141.145 40.8909 143.789 40.8909C145.379 40.8909 147.622 40.2471 149.284 37.155C151.389 33.1079 153.64 26.47 153.64 19.979C153.64 7.28198 146.552 0 134.193 0C110.441 0 84.3621 32.636 84.3621 62.3589C84.3621 87.3921 102.227 98.5979 119.935 98.5979C140.347 98.5979 158.744 80.2239 162.554 75.304C162.582 75.2671 162.609 75.228 162.635 75.1899C163.498 73.894 163.901 72.8669 163.901 71.9551C163.901 69.3459 162.034 67.302 159.649 67.302Z" fill="#231815"/><path id="&#227;&#131;&#145;&#227;&#130;&#185; 95" d="M233.347 63.7029C231.962 63.7029 230.959 64.363 230.309 64.885C230.198 64.9661 228.155 66.4629 225.457 68.7261C224.72 65.0391 224.035 62.2119 223.369 59.459L223.151 58.5601C222.316 55.0979 221.594 52.1079 221.462 50.4031C221.138 47.5979 220.242 44.3779 216.155 44.3779C212.99 44.3779 211.176 47.4819 209.459 50.917C201.918 65.4961 185.562 88.625 173.775 88.625C166.112 88.625 164.967 81.52 164.967 77.2849C164.967 50.5359 198.715 12.2371 222.286 12.2371C224.894 12.2371 230.96 12.9131 230.96 19.178C230.96 26.7571 227.034 30.679 225.279 32.4331C223.932 33.7791 223.097 35.042 223.097 37.1699C223.097 39.8369 225.411 42.0889 228.15 42.0889C230.608 42.0889 232.095 40.551 233.398 38.9871C236.032 35.876 240.932 30.083 240.932 19.0449C240.932 9.09399 233.613 2.66406 222.286 2.66406C193.185 2.66406 154.595 45.2051 154.595 77.2849C154.595 89.908 162.019 98.064 173.508 98.064C181.226 98.064 189.765 92.9441 198.888 82.8489C205.303 75.75 210.624 67.6929 213.928 62.24C214.612 65.655 215.56 70.5769 216.549 76.3059C204.333 87.9451 190.179 104.835 190.179 120.598C190.179 129.861 197.106 136.846 206.293 136.846C221.247 136.846 229.071 120.292 229.071 103.939C229.071 96.448 228.347 87.3169 227.077 78.7209C231.515 74.812 234.914 72.321 235.383 72.0081C235.441 71.97 235.498 71.926 235.553 71.8821C236.787 70.853 237.467 69.5061 237.467 68.0889C237.467 65.7119 235.581 63.7029 233.347 63.7029ZM219.632 103.273C219.632 119.292 213.056 127.673 206.56 127.673C202.158 127.673 200.018 125.359 200.018 120.598C200.018 111.45 206.3 100.03 218.235 87.4209C218.968 92.6851 219.632 98.5439 219.632 103.273Z" fill="#231815"/>
</g>
</svg>