<svg preserveAspectRatio="none" width="100%" height="100%" overflow="visible" style="display: block;" viewBox="0 0 201.82 42.49" fill="none" xmlns="http://www.w3.org/2000/svg">
<g id="logo" clip-path="url(#clip0_17_136)">
<path id="Vector" d="M19.35 18.32H43.15C43.35 18.63 43.35 21.34 43.35 21.53C42.53 37.28 28.47 42.74 21.17 42.05C10.92 41.82 1.18 34.44 0 22.15C-0.32 10.11 8.52 0.27 21.16 0C33.37 0.04 39.99 8.36 41.73 13.83C41.16 13.88 31.22 13.83 31.22 13.83C31.22 13.83 28.19 8.45 21.42 8.64C15.62 8.77 9.94 13.21 9.81 21.03C9.94 26.35 12.78 33.29 21.42 33.86C30.25 33.8 32.51 26.41 32.51 26.41H19.35V18.32Z" fill="var(--fill-0, white)"/>
<path id="Vector_2" d="M60.68 17.86C65.71 17.8 68.85 21.49 68.53 26C68.85 31.19 66.09 34.39 61.45 34.64C57.84 34.7 53.65 32.32 53.52 26.5C53.45 20.56 57.07 18.12 60.68 17.86ZM60.68 10.42C51.95 10.48 44.95 17.5 44.5 26C44.75 37.41 54.18 42.14 59.72 42.21C65.23 42.28 68.54 39.83 68.54 39.83V41.28H77.85V10.95H68.54V12.49C68.54 12.49 64.75 10.36 60.69 10.43L60.68 10.42Z" fill="var(--fill-0, white)"/>
<path id="Vector_3" d="M80.96 41.28H90.66V29.41L98.48 41.28H109.66L99.58 26.37L111.17 10.95H100.61L90.63 23.6V1.47H80.96V41.28Z" fill="var(--fill-0, white)"/>
<path id="Vector_4" d="M111.67 41.28H121.37V29.41L129.19 41.28H140.37L130.29 26.37L141.88 10.95H131.32L121.34 23.6V1.47H111.67V41.28Z" fill="var(--fill-0, white)"/>
<path id="Vector_5" d="M148.18 22.58C148.18 22.58 149.9 17.77 154.6 17.84C159.94 17.84 161.3 22.58 161.3 22.58H148.17H148.18ZM154.98 34.85C148.36 34.26 148.17 29.15 148.17 29.15H171.17C172.9 21.83 167.44 10 154.34 9.88C146 9.82 137.9 17.18 138.25 26.59C138.12 31.66 142.7 42.48 155.17 42.48C167.44 42.29 170.5 31.48 170.5 31.48H161.03C161.03 31.48 158.8 34.85 154.98 34.85Z" fill="var(--fill-0, white)"/>
<path id="Vector_6" d="M173.26 41.28H182.84V23.59C182.87 22.93 183.19 18.83 187.67 18.83C190.77 18.8 192.31 21.87 192.31 23.96C192.31 23.99 192.31 41.27 192.31 41.27H201.82V22.02C201.75 17.39 198.34 10.57 189.83 10.25C185.57 10.44 182.83 12.47 182.83 12.47V10.93H173.25V41.27L173.26 41.28Z" fill="var(--fill-0, white)"/>
</g>
<defs>
<clipPath id="clip0_17_136">
<rect width="201.82" height="42.49" fill="white"/>
</clipPath>
</defs>
</svg>
