<svg display="block" fill="none" preserveAspectRatio="none" viewBox="0 0 45.2393 43.6204" xmlns="http://www.w3.org/2000/svg"><path clip-rule="evenodd" d="m22.6725 43.5671c-2.5579.004-4.65.1581-7.068-.8319-2.918-1.193-5.026-2.795-7.62593-4.645-2.77301-1.974-5.43006-2.813-6.65406-6.8101-.726987-2.3769-1.672971-5.792-1.195004-8.2939 1.140014-5.9771 4.200014-10.7641 6.894044-15.89797 2.98405-5.68811 8.32395-6.839113 13.70195-6.845095 2.3391-.001953 5.298-.507934 7.598-.053955 2.976.587036 5.287 3.17603 7.6371 5.18701 1.6489 1.41101 4.0789 2.146 5.4189 3.99195.777 1.07006 1.192 2.47496 1.802 3.67006 1.849 3.628 1.986 5.005 1.987 9.3399.001 2.886.4461 5.8271-.908 8.3981-1.302 2.4719-4.015 6.1129-6.022 7.6699-3.904 3.0281-8.99 5.578-15.566 5.121z" fill="#298932" fill-rule="evenodd"/></svg>