<svg preserveAspectRatio="none" width="100%" height="100%" overflow="visible" style="display: block;" viewBox="0 0 311.016 5.01708" fill="none" xmlns="http://www.w3.org/2000/svg">
<path id="&#227;&#131;&#145;&#227;&#130;&#185; 161" fill-rule="evenodd" clip-rule="evenodd" d="M307.486 4.76403C307.706 4.75109 307.939 4.73912 308.123 4.74608L308.568 4.87902L308.766 4.79113C308.89 4.82811 309.013 4.8651 309.137 4.90209C309.686 4.88903 310.274 4.80407 310.991 5.01708C310.999 4.99511 311.007 4.97313 311.016 4.95104C310.589 4.58104 310.322 4.16002 309.783 3.85009C309.204 4.06408 308.133 3.80101 307.41 3.80004C307.397 3.80004 307.382 3.80004 307.369 3.79906L307.334 3.78905C307.294 3.77709 307.252 3.78209 307.217 3.79808C306.219 3.7921 305.074 3.75512 304.121 3.76903C303.418 3.77904 302.814 3.47203 302.095 3.45604C301.503 3.44213 300.636 3.61913 300.041 3.64806C299.855 3.65612 299.862 3.50011 299.77 3.49303C298.812 3.42504 297.547 3.44103 296.58 3.41808C296.276 3.35204 295.971 3.28502 295.666 3.21813C294.569 3.18309 293.293 3.01708 292.205 2.98912C291.689 2.97509 291.204 2.68004 290.673 2.67711C290.592 2.67711 290.325 2.76513 290.228 2.76403L289.783 2.63109L289.659 2.7401C289.263 2.76305 289.042 2.56713 288.646 2.5841C288.526 2.5891 288.344 2.75206 288.249 2.75805C288.11 2.69213 287.97 2.62609 287.83 2.56005C287.627 2.54613 286.999 2.67907 286.791 2.6881C286.568 2.62206 286.346 2.55504 286.124 2.48912C286.049 2.54003 285.975 2.59105 285.901 2.64208C285.555 2.61205 285.209 2.58104 284.863 2.55101C284.329 2.55602 283.499 2.57909 282.958 2.5681L282.514 2.43505C282.413 2.42907 282.246 2.50402 282.068 2.52111C281.887 2.49205 281.706 2.46202 281.525 2.43212C281.432 2.44506 281.22 2.60009 281.128 2.60607C280.931 2.54711 280.733 2.48803 280.536 2.42907C280.461 2.48009 280.387 2.53112 280.313 2.58202C279.947 2.61608 279.377 2.40111 278.978 2.40306C278.716 2.40404 278.212 2.45812 277.964 2.46605C277.733 2.42113 277.502 2.37706 277.272 2.33202C276.703 2.34313 275.97 2.48803 275.392 2.50206L275.021 2.39208C274.923 2.3911 274.66 2.47802 274.576 2.47802C274.161 2.48107 273.948 2.30407 273.563 2.32213C273.301 2.3341 272.948 2.48803 272.672 2.49511C272.34 2.50206 271.977 2.30809 271.659 2.33812C271.543 2.35009 271.348 2.49205 271.188 2.49108C270.68 2.48705 270.196 2.23412 269.705 2.26708C269.581 2.27501 269.482 2.44909 269.383 2.4641C268.922 2.37401 268.461 2.28502 267.999 2.19603C267.442 2.20507 266.778 2.32006 266.219 2.32311C265.712 2.32506 265.442 2.09508 264.909 2.07811C264.603 2.0681 264.12 2.12304 263.821 2.11913C263.565 2.06713 263.31 2.01513 263.055 1.96312C261.506 1.94213 259.785 1.99706 258.257 1.99303C258.06 1.93407 257.862 1.87511 257.665 1.81603C257.495 1.82006 257.187 1.97802 257.021 1.9901C256.54 2.02611 256.034 1.76305 255.538 1.7661C254.973 1.76903 254.292 1.89708 253.757 1.89306C253.502 1.84105 253.247 1.78905 252.991 1.73705C252.961 1.73912 252.64 1.83007 252.546 1.82409C252.381 1.75011 252.217 1.67601 252.052 1.60302C251.889 1.60302 251.732 1.81408 251.557 1.82103C251.359 1.76207 251.162 1.70311 250.964 1.64403L250.766 1.73107C250.626 1.66503 250.486 1.59813 250.346 1.53209L250.148 1.61913C249.951 1.56005 249.753 1.50109 249.555 1.44213C248.229 1.49511 246.713 1.16906 245.377 1.14513C244.951 1.13707 244.716 0.972035 244.29 0.966053C244.086 0.9641 243.727 1.03405 243.523 1.03002C243.375 0.986073 243.227 0.941029 243.079 0.897083C242.923 0.910023 242.679 1.0841 242.509 1.09313C242.172 1.04113 241.834 0.989124 241.496 0.936024C241.455 0.973133 241.413 1.00902 241.372 1.04613C241.174 0.987049 240.977 0.928089 240.779 0.869129C240.595 0.873036 240.329 1.03209 240.136 1.0421C240.037 1.01305 239.938 0.983021 239.839 0.95409C239.69 0.960072 239.369 1.06005 239.22 1.06212C239.072 1.01708 238.924 0.973133 238.776 0.929066L238.652 1.03807C238.487 1.03807 238.322 1.0371 238.157 1.0371C238.108 1.09508 238.058 1.15404 238.008 1.21202C237.811 1.15306 237.613 1.09411 237.415 1.03502C237.111 1.04113 236.576 1.19909 236.277 1.20702C236.129 1.16307 235.981 1.11803 235.833 1.07409C235.597 1.07006 235.193 1.05101 234.918 1.09313C234.843 1.14403 234.769 1.19603 234.695 1.24608C234.665 1.24901 234.204 1.09703 234.003 1.11303C233.824 1.12706 233.475 1.26012 233.285 1.26403C232.822 1.27709 232.388 0.995106 231.901 0.997059C231.69 0.998036 231.263 1.09813 231.035 1.10411C230.595 1.11803 230.279 0.927113 229.849 0.970082C228.387 1.11303 226.71 0.95702 225.2 1.04406C225.076 1.00707 224.953 0.970082 224.829 0.933094C224.601 0.928089 224.187 0.975086 223.988 0.975086C223.815 0.923084 223.643 0.871082 223.47 0.820057C223.302 0.831043 222.948 0.971058 222.752 0.971058C222.447 0.905018 222.143 0.838124 221.838 0.771107C220.975 0.848133 219.773 0.7141 218.623 0.762074C218.426 0.703114 218.228 0.644032 218.031 0.585072C217.777 0.57909 217.483 0.719105 217.239 0.7141L216.424 0.471058C216.198 0.472035 215.813 0.581043 215.558 0.578114C215.152 0.573109 214.948 0.40807 214.544 0.421131C214.478 0.424061 214.297 0.549061 214.247 0.552113L213.803 0.420033C213.736 0.421131 213.555 0.546131 213.505 0.550038C213.382 0.51305 213.258 0.476063 213.135 0.439076C212.474 0.419056 211.804 0.211048 211.083 0.192127C210.913 0.188099 210.602 0.289051 210.465 0.300038C210.341 0.26305 210.218 0.226063 210.094 0.190052C210.005 0.202015 209.916 0.392079 209.846 0.40807C209.673 0.357044 209.5 0.305042 209.328 0.253041C209.071 0.249012 208.641 0.3391 208.387 0.338124C208.058 0.264027 207.729 0.190052 207.399 0.116078L207.275 0.225086C207.027 0.265125 206.648 0.269032 206.434 0.267079C206.204 0.222035 205.973 0.178089 205.742 0.133045C205.621 0.14806 205.437 0.288075 205.272 0.286122L204.605 0.0860483C204.409 0.0850718 203.991 0.133045 203.764 0.128041C203.641 0.0910532 203.517 0.0540659 203.394 0.0170786C203.319 0.068104 203.245 0.119129 203.171 0.170033L202.726 0.0370981C202.61 0.125111 202.495 0.212025 202.379 0.299061C202.132 0.305042 202.376 0.0380747 202.058 0.0571177C202.042 0.101063 202.025 0.14513 202.008 0.189076C201.677 0.221058 201.255 -0.0199087 200.921 0.0101206C200.364 0.0590708 199.601 0.156117 199.041 0.180042C198.86 0.150013 198.679 0.121083 198.497 0.0910532C198.303 0.105091 198.039 0.259022 197.854 0.265125C197.623 0.220082 197.393 0.175038 197.162 0.131092C197.01 0.150013 196.677 0.296131 196.518 0.305042C196.321 0.246083 196.123 0.187123 195.926 0.127064C195.826 0.137074 195.652 0.294056 195.529 0.302113C195.431 0.272083 195.332 0.243031 195.233 0.213124C195.029 0.22411 194.719 0.356068 194.515 0.365101C194.12 0.382069 193.797 0.231068 193.403 0.252064C193.329 0.256092 193.165 0.375111 193.106 0.383045C192.949 0.360096 192.793 0.338124 192.636 0.316029C192.578 0.324085 192.412 0.445057 192.339 0.446034C192.166 0.39513 191.993 0.343128 191.82 0.291126C191.603 0.286122 191.086 0.239125 190.831 0.289051C190.757 0.340077 190.682 0.391102 190.608 0.442127C190.46 0.397083 190.312 0.353016 190.163 0.309071C189.908 0.311024 189.482 0.39513 189.223 0.394032L188.853 0.28307C186.161 0.34911 183.275 0.101063 180.718 0.194081C180.355 0.135121 179.993 0.075062 179.63 0.016102C178.844 0.0201304 177.836 0.0931284 177.033 0.118031C176.703 0.129017 176.494 -0.0329702 176.168 0.00609228C176.094 0.0571177 176.02 0.108021 175.945 0.159046C175.427 0.223133 175.004 0.042103 174.487 0.0891001C174.26 0.110096 173.915 0.267079 173.67 0.284046C173.546 0.247059 173.423 0.210072 173.299 0.173084C173.214 0.174061 172.985 0.278065 172.928 0.282093C172.805 0.245106 172.681 0.208119 172.558 0.171131C172.413 0.176014 172.158 0.290028 172.013 0.301014L171.791 0.235096C171.565 0.255116 171.309 0.45409 171.122 0.475086C170.95 0.423084 170.777 0.371083 170.604 0.320057C170.52 0.320057 170.257 0.405018 170.158 0.406117C170.059 0.376087 169.961 0.347035 169.862 0.317127C168.949 0.350086 167.867 0.478016 166.968 0.550038C166.646 0.576039 166.399 0.453114 166.078 0.504017C166.004 0.555042 165.929 0.606068 165.855 0.657093C165.522 0.731068 165.226 0.597035 164.866 0.654041C164.791 0.705067 164.717 0.756092 164.643 0.807118L164.247 0.762074C164.206 0.799061 164.164 0.835072 164.123 0.872059C163.999 0.835072 163.876 0.798084 163.752 0.761097C163.649 0.77306 163.483 0.931019 163.356 0.935047C163.208 0.891102 163.06 0.847035 162.912 0.802113C162.64 0.806019 162.261 0.943104 162.021 0.976063C161.575 1.03502 161.196 0.897083 160.784 0.972035C160.743 1.00902 160.702 1.04503 160.66 1.08104C160.562 1.05211 160.463 1.02208 160.364 0.993031C160.184 0.997059 159.907 1.09203 159.745 1.10106C159.647 1.07103 159.548 1.0421 159.449 1.01207C159.319 1.02306 159.182 1.17308 159.053 1.18712C158.871 1.15709 158.69 1.12706 158.509 1.09703L158.311 1.18505C158.072 1.1621 157.833 1.13903 157.594 1.11705L157.47 1.22606L156.852 1.1151C156.566 1.11107 156.101 1.17003 155.838 1.17711C155.608 1.13305 155.377 1.08812 155.146 1.04406C155.005 1.04808 154.743 1.16906 154.602 1.17406C153.266 1.22008 151.937 1.19713 150.62 1.22911C150.216 1.23803 150.012 1.06713 149.607 1.07213C149.053 1.07909 148.336 1.11803 147.777 1.11107C147.286 1.10509 146.997 0.949085 146.517 0.95409C146.35 0.955067 146.101 1.07103 145.972 1.0841C145.407 1.1411 144.878 0.924061 144.291 0.948109C143.502 0.978016 142.475 1.12511 141.669 1.11608L141.225 0.983021C140.67 0.972035 139.976 1.07409 139.444 1.10912C139.098 1.13207 138.687 0.980091 138.332 0.997059C138.188 1.00304 137.931 1.12011 137.787 1.12706C137.385 1.14403 137.082 0.995106 136.675 1.01403C136.55 1.02013 136.38 1.17809 136.278 1.1881L135.834 1.05504C135.626 1.06005 135.258 1.17907 135.042 1.18505C134.659 1.19506 134.485 1.08007 134.152 1.13805L134.028 1.24804C133.655 1.29503 132.968 1.0841 132.767 1.09105C131.978 1.11608 130.971 1.16906 130.171 1.1931C129.728 1.20604 129.311 1.05004 128.885 1.10106C128.811 1.15306 128.736 1.20409 128.662 1.25512C128.432 1.21007 128.201 1.16503 127.97 1.12108C127.842 1.12609 127.68 1.28112 127.574 1.29503C127.24 1.3391 127.064 1.17406 126.709 1.18309C124.809 1.2351 122.602 1.11705 120.7 1.14403C120.148 1.15209 119.797 0.9641 119.266 1.00902C117.293 1.17308 114.928 0.979115 112.911 1.01305L112.467 0.880116C112.157 0.885121 111.617 1.04613 111.329 1.05211C111.238 1.00011 111.148 0.949085 111.057 0.89806C110.978 0.896107 110.707 0.985096 110.612 0.98412C110.488 0.947132 110.365 0.910023 110.241 0.873036C109.279 0.88805 108.108 0.911122 107.15 0.97411C106.779 0.937123 106.408 0.899037 106.038 0.861073C105.961 0.864124 105.612 0.893055 105.518 0.926014C105.502 0.970082 105.485 1.01403 105.468 1.05712C105.29 1.09313 105.187 0.882069 105.123 0.881092C105.057 0.880116 104.875 1.00805 104.825 1.01207C104.449 1.0421 104.266 0.869129 103.886 0.877064C103.157 0.894032 102.242 1.0421 101.512 1.04613C101.257 0.994129 101.001 0.942127 100.746 0.890125C100.487 0.892079 100.015 0.953114 99.7319 0.953114C99.501 0.909046 99.27 0.864124 99.0399 0.820057C98.9979 0.856068 98.957 0.893055 98.916 0.929066C98.7429 0.877064 98.5699 0.826039 98.397 0.774037C97.442 0.751087 96.387 0.887074 95.5029 1.00707C95.2639 0.985096 95.025 0.962025 94.786 0.940052C94.489 0.951039 94.0439 1.06212 93.7469 1.0681C93.541 1.03112 93.335 0.994129 93.129 0.95702C93.002 0.968128 92.839 1.11705 92.733 1.13109C92.385 1.17711 92.178 1.05602 91.843 1.08507C91.709 1.09606 91.489 1.22106 91.3729 1.23705C91.2159 1.21508 91.0599 1.19213 90.903 1.17003C90.8259 1.17711 90.6689 1.29113 90.606 1.30101C90.532 1.27904 90.458 1.25609 90.384 1.23412C90.3419 1.27111 90.301 1.30712 90.26 1.34411C89.9 1.37902 89.7109 1.26403 89.37 1.29711C89.179 1.31603 88.926 1.46105 88.726 1.47106C88.5449 1.44103 88.364 1.41112 88.182 1.38207C88.072 1.39904 87.917 1.54808 87.786 1.55602C87.5549 1.51207 87.325 1.46703 87.094 1.42211C87.02 1.47411 86.9449 1.52501 86.871 1.57604L86.6489 1.50902C86.413 1.53112 86.0179 1.60106 85.783 1.61608C85.438 1.63805 85.235 1.48009 84.844 1.48204C84.609 1.48302 84.199 1.57409 83.978 1.5891L83.187 1.49901C83.054 1.50707 82.849 1.65209 82.7169 1.65209C82.651 1.60704 82.585 1.5631 82.5189 1.51903C82.13 1.49706 81.64 1.56908 81.2579 1.58202C81.077 1.55211 80.895 1.52208 80.714 1.49205C80.3889 1.51305 79.823 1.73803 79.452 1.77404C79.353 1.74413 79.254 1.71508 79.156 1.68505C79.084 1.69005 78.9149 1.81005 78.858 1.81603C78.76 1.7871 78.661 1.75707 78.562 1.72802L78.438 1.83702C78.224 1.87609 78.105 1.7921 77.869 1.8131C77.797 1.82006 77.629 1.9381 77.572 1.94408C77.473 1.91503 77.375 1.88512 77.276 1.85607C76.918 1.89708 76.417 2.05504 76.0389 2.07213L75.2479 1.98204C75.2059 2.01806 75.1649 2.05504 75.124 2.09105C75.025 2.06102 74.926 2.03209 74.827 2.00206C74.391 2.05101 73.785 2.1931 73.343 2.21813C73.244 2.1881 73.145 2.15905 73.046 2.12902C72.9919 2.13512 72.8199 2.25707 72.749 2.26012C72.626 2.22313 72.502 2.18602 72.379 2.14904C72.265 2.15807 71.965 2.27611 71.834 2.27904C71.7109 2.24205 71.5869 2.20507 71.464 2.16808C70.632 2.18602 69.6959 2.34813 68.8419 2.33702C68.512 2.26305 68.183 2.1881 67.854 2.11412C67.126 2.09105 66.1 2.03502 65.406 2.0421L64.9609 1.90905C64.776 1.91503 64.512 2.0681 64.318 2.08312C64.136 2.05309 63.955 2.02306 63.7739 1.99303C63.2469 2.01207 62.525 2.12902 61.9929 2.12011C61.927 2.07604 61.861 2.03209 61.796 1.98803C61.5709 1.97313 61.2219 2.03905 61.0289 2.05101C60.7899 2.02904 60.551 2.00609 60.312 1.98302C58.208 2.1361 55.986 2.37609 53.955 2.64611C53.561 2.69811 53.2789 2.5891 52.891 2.62108C52.244 2.67406 51.452 2.80101 50.813 2.87804C50.657 2.85607 50.5 2.8341 50.344 2.81102C49.864 2.84411 49.2429 2.91906 48.736 2.91613C48.613 2.88012 48.489 2.84313 48.366 2.80602C48.024 2.82811 47.473 2.93712 47.153 2.95604C46.467 2.99608 45.5699 2.82909 44.904 2.79613C44.418 2.69909 43.9319 2.60302 43.446 2.50609C43.309 2.42711 43.124 2.17601 42.829 2.17504C42.697 2.17504 42.491 2.32213 42.358 2.32811C42.235 2.29113 42.111 2.25402 41.988 2.21703C41.912 2.21911 41.692 2.32409 41.617 2.32604L41.172 2.1931C40.4059 2.24901 39.485 2.47203 38.748 2.49303C38.624 2.45604 38.501 2.41906 38.377 2.38207C38.228 2.3861 37.908 2.48607 37.759 2.4901C37.528 2.44603 37.297 2.40111 37.067 2.35704C36.5309 2.35302 35.85 2.49303 35.2859 2.48302C35.138 2.43908 34.989 2.39513 34.841 2.35009C34.2 2.35411 33.386 2.3911 32.69 2.36608C32.468 2.30004 32.245 2.23302 32.0229 2.1671C31.9109 2.16307 31.616 2.23412 31.503 2.23107L31.059 2.09813C28.383 2.10509 25.3199 1.78905 22.677 1.78905C22.397 1.73009 22.117 1.67113 21.837 1.61107C21.79 1.6151 21.605 1.74108 21.54 1.74205C21.235 1.67601 20.93 1.60912 20.626 1.5421C20.519 1.55101 20.282 1.69103 20.155 1.69506C19.925 1.65001 19.694 1.60509 19.463 1.56102C19.3849 1.56408 19.17 1.66613 19.092 1.67003C18.654 1.68712 18.282 1.50109 17.831 1.51207C17.692 1.5161 17.427 1.64013 17.287 1.64208C17.139 1.59813 16.991 1.55407 16.842 1.51012C16.637 1.50304 16.378 1.59911 16.224 1.61803C16.0179 1.58007 15.812 1.54308 15.606 1.50609C15.386 1.51513 15.074 1.70006 14.863 1.72313C14.765 1.69408 14.666 1.66405 14.567 1.63512C14.362 1.64708 14.054 1.77709 13.849 1.78612C13.465 1.80309 13.191 1.67809 12.811 1.69603C12.181 1.72509 11.382 1.85912 10.758 1.88707C10.43 1.90306 10.295 1.78209 9.96698 1.79711C9.53595 1.81713 8.87299 1.90807 8.43298 1.92504C8.09595 1.87304 7.758 1.82006 7.41998 1.76806C7.341 1.77013 7.12897 1.87108 7.04895 1.87706C6.45398 1.92406 5.79797 1.91808 5.21899 1.91613C5.06396 1.88207 4.90796 1.84813 4.75299 1.81408C4.73096 1.73009 4.66699 1.65612 4.56897 1.62706C4.41797 1.58202 4.25397 1.65404 4.203 1.78807L4.19299 1.81408L4.18097 1.82506C3.94995 1.78002 3.71899 1.73607 3.48895 1.69103C3.36395 1.69713 3.12299 1.83605 3.01794 1.84411C2.73798 1.78405 2.45795 1.72509 2.17798 1.66613C2.104 1.67113 1.94098 1.78905 1.88098 1.79711C1.57996 1.83605 1.33899 1.70604 1.065 1.77208C0.711975 1.85802 0.375977 2.11412 0 2.18602C0.00799561 2.23705 0.0159912 2.28905 0.0249634 2.34008C0.982971 3.07213 1.95398 2.69408 2.966 2.63402C3.22095 2.68602 3.47699 2.73705 3.73199 2.78905C3.76099 2.78905 3.79395 2.78612 3.82397 2.78612L4.448 2.74901C4.81799 2.71605 5.19397 2.67504 5.513 2.66307C5.612 2.69213 5.711 2.72203 5.80896 2.75109C6.591 2.71813 7.56696 2.58702 8.35699 2.56102C8.56299 2.59813 8.76898 2.63512 8.97498 2.67211C9.29999 2.6411 9.84998 2.52904 10.187 2.52208C10.6089 2.51305 10.838 2.66405 11.225 2.61303C11.284 2.60509 11.449 2.4851 11.522 2.48204C11.646 2.51903 11.769 2.55602 11.8929 2.59313C12.084 2.58507 12.403 2.45409 12.611 2.44103C12.981 2.47911 13.352 2.51708 13.723 2.55407C14.203 2.53502 14.816 2.37108 15.2809 2.36107C15.43 2.40502 15.578 2.45006 15.726 2.49413L15.85 2.38512C16.079 2.36107 16.323 2.3861 16.5179 2.3651C16.699 2.39403 16.88 2.42406 17.062 2.45409C17.543 2.45104 18.184 2.4641 18.644 2.41503C18.956 2.38109 19.17 2.55504 19.509 2.52709C19.561 2.52208 19.739 2.39904 19.8069 2.39611C20.12 2.44103 20.433 2.4851 20.746 2.53002C20.8199 2.47911 20.894 2.42809 20.969 2.37706C21.249 2.43602 21.529 2.49608 21.809 2.55504C23.64 2.49706 26.041 2.76708 27.6689 2.76903C27.973 2.83605 28.278 2.90306 28.5829 2.96911C29.193 2.93407 30.048 2.86608 30.685 2.8651C31.014 2.93908 31.344 3.01403 31.673 3.08812C32.3719 3.10912 33.297 3.32506 33.9969 3.27013C34.038 3.23302 34.08 3.19713 34.121 3.16002C34.45 3.2351 34.78 3.30907 35.1089 3.38305C36.021 3.32702 37.061 3.16503 38.053 3.23705C38.2339 3.25109 38.457 3.47411 38.7939 3.4591C38.835 3.42308 38.876 3.3861 38.918 3.35009C39.066 3.39403 39.214 3.4381 39.362 3.48302C39.492 3.46813 39.7209 3.29308 39.858 3.26403C40.237 3.18602 40.573 3.36412 40.995 3.31212C41.117 3.29613 41.3 3.15709 41.465 3.15905C41.97 3.16613 42.414 3.55309 42.799 3.55809C43.053 3.56102 43.271 3.34703 43.468 3.3181C44.061 3.42308 44.654 3.52709 45.2469 3.63109C45.744 3.65001 46.335 3.78112 46.854 3.74511C47.09 3.72911 47.4579 3.63109 47.72 3.63805C47.8929 3.68908 48.066 3.74108 48.238 3.79308C48.321 3.7921 48.586 3.70507 48.684 3.70604L49.1279 3.8391C49.234 3.83104 49.473 3.69103 49.599 3.68712C49.7219 3.72411 49.8459 3.7611 49.969 3.79808C50.2319 3.78905 50.5969 3.64306 50.86 3.62511C51.384 3.58812 51.865 3.76305 52.3929 3.71703C53.093 3.65502 53.939 3.56102 54.619 3.50402C54.776 3.52611 54.932 3.54808 55.089 3.57103C55.13 3.53405 55.172 3.49804 55.213 3.46105C55.3359 3.49804 55.46 3.53502 55.583 3.57213C55.658 3.52111 55.7319 3.47008 55.806 3.41906L56.202 3.4641C56.3409 3.44005 56.551 3.26806 56.697 3.24608C57.2639 3.16112 57.7839 3.32213 58.354 3.22911C58.512 3.20311 58.923 3.03405 59.0969 3.0111C59.36 3.0421 59.624 3.07103 59.8879 3.10106C60.172 3.08507 60.606 2.95812 60.853 2.95104C61.001 2.99511 61.1489 3.03905 61.297 3.0841C61.3729 3.08202 61.5919 2.97802 61.668 2.97509C61.8989 3.01903 62.13 3.06408 62.361 3.10802C62.906 3.10802 63.635 2.93212 64.166 2.91613C64.314 2.96007 64.463 3.00512 64.611 3.04906C64.9149 3.04308 65.3879 2.93212 65.724 2.94213C65.922 3.00109 66.119 3.06005 66.317 3.12011C66.509 3.12401 66.817 3.03002 67.01 3.03405C67.314 3.10106 67.619 3.1671 67.924 3.23412C68.136 3.24205 68.522 3.18004 68.6909 3.17003C68.839 3.21508 68.9869 3.25902 69.135 3.30309C69.8159 3.29406 70.6649 3.18212 71.3359 3.15612C71.7679 3.13903 72.03 3.28905 72.449 3.26903C72.9139 3.24608 73.5499 3.1101 74.007 3.07506C74.1639 3.09813 74.3199 3.12011 74.4769 3.14306C74.551 3.09203 74.626 3.04113 74.7 2.9901C75.1389 2.92211 75.521 3.11303 75.986 3.08104C77.2379 2.99511 78.6119 2.73302 79.869 2.63109C80.307 2.59606 80.809 2.62011 81.205 2.59105L81.575 2.70202C81.7319 2.68407 82.026 2.53502 82.219 2.52806C82.655 2.51305 82.9969 2.6931 83.405 2.66307C84.9559 2.54906 86.713 2.54113 88.228 2.34703C88.41 2.37706 88.5909 2.40709 88.772 2.43712C89.0449 2.42003 89.422 2.23302 89.688 2.19811C89.976 2.2351 90.2639 2.27306 90.553 2.31005C91.114 2.27806 91.8369 2.01903 92.4089 1.98607C93.085 1.94713 93.73 2.08007 94.387 1.99205C94.447 1.98412 94.609 1.86705 94.684 1.86107C94.865 1.8911 95.046 1.92003 95.228 1.95006C95.303 1.94603 95.465 1.82811 95.525 1.81908C95.839 1.77611 96.022 1.86803 96.3409 1.84411C96.885 1.80211 97.542 1.72203 98.1219 1.71703C98.22 1.74706 98.319 1.77611 98.418 1.80602C98.494 1.80211 98.714 1.69811 98.7889 1.69713C98.9619 1.74901 99.135 1.80004 99.308 1.85204C100.009 1.87108 100.863 1.99205 101.583 1.94603C105.818 1.67601 110.336 1.91503 114.664 1.83007C115.142 1.82006 115.443 1.98803 115.925 1.98705C116.355 1.9851 116.966 1.91307 117.359 1.90306C117.672 1.94811 117.985 1.99205 118.298 2.0371C120.299 1.9641 122.622 2.10411 124.653 2.03307C125.258 2.01207 125.791 2.24511 126.408 2.19213C127.512 2.09703 128.804 2.0111 129.945 2.00402C130.201 2.05602 130.456 2.10802 130.711 2.16002C130.899 2.15502 131.223 2.01305 131.429 2.00902C131.864 1.99901 132.192 2.1621 132.615 2.14306C136.124 1.99413 140.057 1.97802 143.373 1.84508C143.759 1.82909 144.26 2.03502 144.633 2.00206C146.777 1.8131 149.343 2.10411 151.557 2.02111C151.788 2.06603 152.018 2.11107 152.249 2.15502C152.452 2.15001 152.764 2.01305 152.967 2.00402C153.066 2.03307 153.164 2.0631 153.263 2.09203C153.557 2.08007 154.02 1.97106 154.302 1.96312L154.673 2.07409C154.739 2.07103 154.921 1.94713 154.97 1.9431C155.118 1.98803 155.266 2.03209 155.415 2.07604C155.632 2.07311 155.997 1.95507 156.206 1.94713C156.437 1.99108 156.668 2.03612 156.898 2.08007C157.28 2.08312 157.812 1.97203 158.185 1.95202C158.283 1.98204 158.382 2.0111 158.481 2.04113C158.536 2.03502 158.707 1.91613 158.778 1.91002C159.136 1.88207 159.398 2.00609 159.742 1.97911C159.945 1.96202 160.258 1.83007 160.46 1.82702C160.633 1.87902 160.806 1.93102 160.979 1.98204C161.397 1.97606 161.93 1.78502 162.315 1.72313L162.759 1.85509C162.971 1.85106 163.281 1.72106 163.477 1.70409C163.634 1.72606 163.79 1.74901 163.947 1.77111C164.43 1.71202 164.985 1.53307 165.456 1.4901L166.247 1.58007C166.532 1.54113 166.931 1.37902 167.237 1.36303C167.336 1.39306 167.434 1.42211 167.533 1.45202C167.604 1.44811 167.776 1.32702 167.83 1.32103C168.07 1.34411 168.309 1.36608 168.548 1.38903C169.68 1.29711 170.993 1.19909 172.134 1.07006C172.342 1.04613 172.428 1.18712 172.505 1.18102C172.681 1.1671 172.833 0.971058 173 0.963124C173.066 1.00707 173.132 1.05101 173.197 1.09508C173.406 1.09105 173.772 0.97704 173.989 0.965077C174.088 0.995106 174.187 1.02501 174.285 1.05407C174.36 1.00304 174.434 0.952015 174.508 0.901112C174.748 0.924061 174.986 0.946034 175.226 0.969105C176.241 0.901112 177.233 1.03405 178.341 1.02208C179.091 1.01305 180.066 1.02013 180.839 0.963124C181.239 0.933094 181.496 1.13305 181.926 1.1411C182.205 1.14708 182.594 1.05504 182.866 1.05602C182.99 1.09313 183.113 1.13012 183.237 1.1671C183.634 1.15905 184.193 1.06408 184.597 1.06102C185.1 1.11412 185.602 1.1671 186.105 1.21911C186.502 1.21605 187.078 1.14403 187.465 1.11303C187.935 1.18004 188.404 1.24804 188.874 1.31505C189.031 1.31102 189.315 1.20507 189.492 1.20702L190.11 1.3181C190.256 1.29906 190.535 1.13512 190.68 1.12206C190.91 1.1671 191.141 1.21105 191.372 1.25609C191.557 1.24804 191.851 1.09703 192.015 1.08202C192.139 1.11913 192.262 1.15612 192.386 1.1931C192.545 1.18908 192.919 1.11412 193.078 1.10704C193.177 1.13707 193.276 1.16613 193.375 1.19603C194.143 1.12804 195.039 1.05004 195.774 0.961048C196.168 0.913075 196.592 1.07811 196.986 1.03002C197.261 0.997059 197.733 0.912098 198.025 0.902088C198.206 0.931019 198.387 0.961048 198.568 0.991078C199.38 0.933094 200.395 0.778065 201.215 0.757069C201.339 0.794056 201.462 0.831043 201.586 0.868031C201.781 0.868031 202.083 0.78307 202.278 0.782093C202.484 0.819081 202.69 0.856068 202.896 0.893055C203.843 0.885121 205.061 0.877064 206.037 0.880116C206.267 0.925038 206.498 0.969105 206.728 1.01403C206.955 1.01305 207.327 0.96703 207.569 0.972035C207.693 1.00902 207.816 1.04613 207.94 1.08312C208.123 1.07409 208.346 0.847035 208.361 0.843128C208.435 0.826039 209.547 1.10802 209.745 1.1101C210.274 1.11608 211.003 1.06713 211.501 1.04906C211.913 1.12401 212.325 1.19811 212.736 1.27208C214.122 1.23302 215.697 1.34411 217.088 1.32909C217.5 1.40306 217.912 1.47704 218.324 1.55101C218.551 1.54711 218.963 1.45104 219.19 1.44408C219.42 1.48912 219.651 1.53307 219.882 1.57811C220.057 1.57909 220.345 1.47106 220.5 1.47008C220.698 1.52904 220.895 1.58812 221.093 1.64708C221.531 1.64708 222.178 1.57811 222.602 1.58507L223.046 1.71813C223.532 1.72802 224.306 1.72802 224.777 1.72313L225.222 1.85607C226.177 1.84508 227.367 1.85204 228.288 1.82103C228.809 1.80407 229.148 1.95812 229.648 1.93407C229.725 1.93102 229.942 1.82811 230.019 1.82604L230.39 1.93712C230.705 1.94005 231.257 1.92308 231.552 1.91808C231.675 1.95507 231.799 1.99205 231.922 2.02904C231.996 2.02611 232.161 1.90502 232.22 1.89806C232.536 1.85802 232.735 2.02306 233.085 2.01012C233.244 2.00402 233.504 1.90209 233.703 1.90209C233.802 1.93212 233.901 1.96105 234 1.99108C235.999 1.90807 238.157 1.80809 240.133 1.70104C240.572 1.67711 240.874 1.85204 241.319 1.83605C241.757 1.82006 242.395 1.73412 242.853 1.70812L243.298 1.84105C243.488 1.84008 243.935 1.79711 244.139 1.80004L244.509 1.91112C245.297 1.90001 246.372 2.05309 247.179 2.05004C247.327 2.09411 247.476 2.13805 247.624 2.18309C247.864 2.18102 248.399 2.11803 248.638 2.12011C248.885 2.19408 249.132 2.26708 249.379 2.34105C249.601 2.34813 249.981 2.29113 250.22 2.30004C250.368 2.34411 250.516 2.38805 250.665 2.43309C251.512 2.42809 252.574 2.53612 253.434 2.52806C253.689 2.58007 253.944 2.63207 254.2 2.68407C254.981 2.66613 255.986 2.64708 256.772 2.64708C257.052 2.70702 257.331 2.7661 257.612 2.82604C257.94 2.8131 258.508 2.69811 258.824 2.67504L259.268 2.80809C259.489 2.81505 259.848 2.74804 260.035 2.74413C260.159 2.78112 260.282 2.8181 260.406 2.85509C261.152 2.86107 261.997 2.74205 262.755 2.75206C262.986 2.79711 263.216 2.84105 263.447 2.8861C263.781 2.88903 264.273 2.86107 264.609 2.86705C264.889 2.92711 265.169 2.98607 265.45 3.04503C265.524 3.04406 265.746 2.9381 265.821 2.93602C266.286 2.92907 266.763 3.14208 267.23 3.13805C267.801 3.13207 268.604 3.06713 269.159 3.05602C269.564 3.04711 269.753 3.22606 270.172 3.21202C270.306 3.20702 270.508 3.06408 270.642 3.06005C271.078 3.04613 271.306 3.23607 271.73 3.23803C272.491 3.24303 273.478 3.17211 274.227 3.18004C274.557 3.25402 274.886 3.32811 275.216 3.40209C275.232 3.35802 275.249 3.31408 275.266 3.27013C275.529 3.30004 275.793 3.33007 276.057 3.3601C276.751 3.27111 277.721 3.22411 278.431 3.19103C278.53 3.22106 278.629 3.25109 278.727 3.28002C278.805 3.27709 279.021 3.17308 279.099 3.17113C279.573 3.15905 279.991 3.30504 280.458 3.28502C283.658 3.14806 287.004 3.39403 290.349 3.53209C290.752 3.62804 291.156 3.72509 291.559 3.82103C292.439 3.82506 293.495 3.89306 294.403 3.93908C294.732 4.01305 295.061 4.08702 295.391 4.16112C295.699 4.17711 296.16 4.17504 296.454 4.18602L296.899 4.31908C299.59 4.16503 302.621 4.63512 305.379 4.5841C305.881 4.57506 306.317 4.73302 306.803 4.77111L307.486 4.76403Z" fill="currentColor"/>
</svg>
