<svg display="block" fill="none" preserveAspectRatio="none" viewBox="0 0 385.446 486.85" xmlns="http://www.w3.org/2000/svg"><g clip-rule="evenodd" fill="#fff" fill-rule="evenodd"><path d="m318.865 242.661c.141-1.8.122-2.935.125-4.574.006-4.221-.197-5.391-.302-7.996l-.053-3.781c.024-1.503.259-3.014.062-4.515-.029-.224-.077-.458-.135-.699l-.649-46.273c.382-2.201.345-5.374.507-6.619.616-4.716.566-6.042.57-8.637 0-.456-.002-.866-.006-1.257h.006l-.125-8.883c.141-1.801.122-2.935.125-4.574.006-4.221-.197-5.391-.302-7.997l-.053-3.78c.024-1.503.259-3.014.062-4.515-.029-.224-.077-.458-.135-.699l-.649-46.2732c.382-2.2011.345-5.374.507-6.62.616-4.715.566-6.041.57-8.636.008-5.736-.37-5.827-.362-11.563.002-1.574.275-3.157.069-4.729-.221-1.687-1.402-3.928-1.307-5.6431.169-3.0189-1.419-5.3009-1.414-8.3209l-2.557-16.146-5.093-4.717c-.089-1.162-.685-1.553-1.988-2.487-.739-.529-2.202-1.34-2.548-1.741-.999-1.15996-1.064-2.02898-3.088-3.14702-3.076-1.70203-6.79-2.11499-12.902-3.27295-5.84-1.10608-14.026-2.69605-21.436-3.00598-2.713-.11304-5.724.16394-8.462.04089-2.102-.09595-3.66-.39294-5.585-.50293-5.065-.290038-10.32-.539061-15.372-.781005-3.414-.162964-6.517.057984-9.633.282959-4.967-.063965-9.278-.5050047-14.251-.5780027-4.644-.0679932-9.6.0440673-14.271.0550537-10.373.023926-20.752.069946-31.125.072998-2.8 0-5.499.061035-8.17.142944-2.672-.081909-5.371-.142944-8.171-.142944-10.373-.003052-20.752-.049072-31.125-.072998-4.671-.0109864-9.627-.1230469-14.271-.0550537-4.972.072998-9.2829.5140377-14.2508.5780027-3.1161-.224975-6.219-.445923-9.633-.282959-5.052.241944-10.307.490967-15.372.781005-1.925.10999-3.482.40698-5.5851.50293-2.7379.12305-5.7489-.15393-8.4619-.04089-7.4101.30993-15.596 1.8999-21.4361 3.00598-6.112 1.15796-9.826 1.57092-12.9019 3.27295-2.024 1.11804-2.089 1.98706-3.0881 3.14702-.3449.401-1.8089 1.212-2.547 1.741-1.304.934-1.8989 1.325-1.9879 2.487l-5.09402 4.717-2.55701 16.146c.005 3.02-1.58301 5.302-1.414 8.3209.09601 1.7151-1.086002 3.9561-1.30701 5.6431-.2059937 1.572.067017 3.155.06897 4.729.009033 5.736-.36999544 5.827-.36096224 11.563.00299072 2.257-.03399656 3.556.36096224 6.957v54.9042c-.023987.123-.053955.249-.06897.367-.2059937 1.572.067017 3.155.06897 4.728.009033 5.736-.36999544 5.827-.36096224 11.564.00299072 2.151-.03002926 3.436.30896024 6.498-.100952 2.765-.31597928 3.878-.30896024 8.216.00299072 2.257-.03399656 3.556.36096224 6.958v54.903c-.023987.123-.053955.249-.06897.367-.2059937 1.572.067017 3.155.06897 4.728.009033 5.736-.36999544 5.828-.36096224 11.564.00299072 2.151-.03002926 3.436.30896024 6.498-.100952 2.765-.31597928 3.878-.30896024 8.217.00299072 2.256-.03399656 3.555.36096224 6.957v54.903c-.023987.123-.053955.249-.06897.367-.2059937 1.572.067017 3.155.06897 4.728.009033 5.737-.36999544 5.828-.36096224 11.564.00299072 2.257-.03399656 3.556.36096224 6.957v2.452l.275024.003c.013977.227.026978.479.039002.746-.171021.557-.319031 1.095-.382996 1.584-.2059937 1.572.067017 3.155.06897 4.728.009033 5.737-.36999544 5.828-.36096224 11.564.00299072 2.257-.03399656 3.556.36096224 6.957v54.904c-.023987.123-.053955.249-.06897.367-.2059937 1.572.067017 3.155.06897 4.728.009033 5.736-.36999544 5.827-.36096224 11.563.00299072 2.257-.03399656 3.556.36096224 6.958v2.451l.275024.004c.140015 2.255.127991 6.751 1.172976 7.87 1.07403 1.153-1.06.667-.482 1.894 1.21003 2.569 1.41901 2.591 1.74005 5.185.16297 1.318 2.04297 5.877 3.26996 7.11 1.22199 1.229 1.46302 2.315 2.00299 3.568 1.05402 2.443 7.74407 5.67 13.51797 7.72 5.9551 2.114 16.8351 3.153 26.9651 4.037.752.066 1.4929.13 2.229.191 1.091.187 2.2229.323 3.4229.373.4881.02.9941.017 1.498.017 7.4901.557 14.5641.889 22.9621.96 2.1679.104 4.33.206 6.456.306 1.262.059 2.4769.062 3.672.041 2.226.12 4.465.235 6.851.269 4.8808.069 10.0888-.046 14.9968-.058 10.901-.024 21.809-.073 32.709-.075 5.496-.002 10.64-.209 15.875-.393 5.234.184 10.379.391 15.874.393 10.901.002 21.808.051 32.709.075 4.908.012 10.117.127 14.997.058 2.386-.034 4.625-.149 6.851-.269 1.195.021 2.411.018 3.672-.041 2.126-.1 4.289-.202 6.457-.306 8.397-.071 15.471-.403 22.961-.96.504 0 1.01.003 1.498-.017 1.2-.05 2.332-.186 3.423-.373.736-.061 1.477-.125 2.229-.191 10.131-.884 21.01-1.923 26.965-4.037 5.774-2.05 12.464-5.277 13.518-7.72.54-1.253.781-2.339 2.003-3.568 1.227-1.233 3.107-5.792 3.27-7.11.321-2.594.531-2.616 1.74-5.185.578-1.227-1.556-.741-.481-1.894.558-.598.813-2.165.952-3.836l.857.011-.125-8.883c.141-1.801.122-2.936.125-4.575.006-4.22-.197-5.39-.302-7.996l-.053-3.78c.024-1.503.259-3.014.062-4.515-.029-.224-.077-.458-.135-.699l-.649-46.273c.382-2.201.345-5.374.507-6.62.616-4.715.566-6.041.57-8.636.008-5.736-.37-5.827-.362-11.564.002-1.003.104-2.01.131-3.015l.231.003-.125-8.884c.141-1.8.122-2.935.125-4.574.006-4.221-.197-5.391-.302-7.996l-.053-3.78c.024-1.503.259-3.015.062-4.516-.029-.223-.077-.458-.135-.698l-.649-46.273c.382-2.201.345-5.375.507-6.62.616-4.716.566-6.042.57-8.636 0-.457-.002-.867-.006-1.258h.006z"/><path d="m385.321 242.661c.141-1.8.122-2.935.125-4.574.006-4.221-.197-5.391-.302-7.996l-.053-3.781c.024-1.503.259-3.014.062-4.515-.029-.224-.077-.458-.135-.699l-.649-46.273c.382-2.201.345-5.374.507-6.619.616-4.716.566-6.042.57-8.637 0-.456-.002-.866-.006-1.257h.006l-.125-8.883c.141-1.801.122-2.935.125-4.574.006-4.221-.197-5.391-.302-7.997l-.053-3.78c.024-1.503.259-3.014.062-4.515-.029-.224-.077-.458-.135-.699l-.649-46.2732c.382-2.2011.345-5.374.507-6.62.616-4.715.566-6.041.57-8.636.008-5.736-.37-5.827-.362-11.563.002-1.574.275-3.157.069-4.729-.221-1.687-1.402-3.928-1.307-5.6431.169-3.0189-1.419-5.3009-1.414-8.3209l-2.557-16.146-5.093-4.717c-.089-1.162-.685-1.553-1.988-2.487-.739-.529-2.202-1.34-2.548-1.741-.999-1.15996-1.064-2.02898-3.088-3.14702-3.076-1.70203-6.79-2.11499-12.902-3.27295-5.84-1.10608-14.026-2.69605-21.436-3.00598-2.713-.11304-5.724.16394-8.462.04089-2.102-.09595-3.66-.39294-5.585-.50293-5.065-.290038-10.32-.539061-15.372-.781005-3.414-.162964-6.517.057984-9.633.282959-4.967-.063965-9.278-.5050047-14.251-.5780027-4.644-.0679932-9.6.0440673-14.271.0550537-10.373.023926-20.752.069946-31.125.072998-2.8 0-5.499.061035-8.17.142944-2.672-.081909-5.371-.142944-8.171-.142944-10.373-.003052-20.752-.049072-31.125-.072998-4.671-.0109864-9.627-.1230469-14.271-.0550537-4.972.072998-9.283.5140377-14.251.5780027-3.116-.224975-6.219-.445923-9.633-.282959-5.052.241944-10.307.490967-15.372.781005-1.925.10999-3.482.40698-5.585.50293-2.738.12305-5.749-.15393-8.462-.04089-7.41.30993-15.596 1.8999-21.4359 3.00598-6.112 1.15796-9.826 1.57092-12.902 3.27295-2.0239 1.11804-2.0889 1.98706-3.088 3.14702-.3449.401-1.8089 1.212-2.547 1.741-1.3039.934-1.8989 1.325-1.9879 2.487l-5.094 4.717-2.557 16.146c.005 3.02-1.583 5.302-1.414 8.3209.096 1.7151-1.086 3.9561-1.307 5.6431-.206 1.572.067 3.155.069 4.729.009 5.736-.3701 5.827-.361 11.563.003 2.257-.034 3.556.361 6.957v54.9042c-.0241.123-.054.249-.069.367-.206 1.572.067 3.155.069 4.728.009 5.736-.3701 5.827-.361 11.564.003 2.151-.0301 3.436.309 6.498-.101 2.765-.3161 3.878-.309 8.216.003 2.257-.034 3.556.361 6.958v54.903c-.0241.123-.054.249-.069.367-.206 1.572.067 3.155.069 4.728.009 5.736-.3701 5.828-.361 11.564.003 2.151-.0301 3.436.309 6.498-.101 2.765-.3161 3.878-.309 8.217.003 2.256-.034 3.555.361 6.957v54.903c-.0241.123-.054.249-.069.367-.206 1.572.067 3.155.069 4.728.009 5.737-.3701 5.828-.361 11.564.003 2.257-.034 3.556.361 6.957v2.452l.2749.003c.014.227.027.479.039.746-.171.557-.3189 1.095-.3829 1.584-.206 1.572.067 3.155.069 4.728.009 5.737-.3701 5.828-.361 11.564.003 2.257-.034 3.556.361 6.957v54.904c-.0241.123-.054.249-.069.367-.206 1.572.067 3.155.069 4.728.009 5.736-.3701 5.827-.361 11.563.003 2.257-.034 3.556.361 6.958v2.451l.2749.004c.1401 2.255.128 6.751 1.1731 7.87 1.074 1.153-1.06.667-.4821 1.894 1.21 2.569 1.419 2.591 1.7401 5.185.1629 1.318 2.0429 5.877 3.2699 7.11 1.2221 1.229 1.463 2.315 2.003 3.568 1.054 2.443 7.744 5.67 13.518 7.72 5.955 2.114 16.8349 3.153 26.9649 4.037.752.066 1.493.13 2.229.191 1.091.187 2.223.323 3.423.373.488.02.994.017 1.498.017 7.49.557 14.564.889 22.962.96 2.168.104 4.33.206 6.456.306 1.262.059 2.477.062 3.672.041 2.226.12 4.465.235 6.851.269 4.881.069 10.089-.046 14.997-.058 10.901-.024 21.809-.073 32.709-.075 5.496-.002 10.64-.209 15.875-.393 5.234.184 10.379.391 15.874.393 10.901.002 21.808.051 32.709.075 4.908.012 10.117.127 14.997.058 2.386-.034 4.625-.149 6.851-.269 1.195.021 2.411.018 3.672-.041 2.126-.1 4.289-.202 6.457-.306 8.397-.071 15.471-.403 22.961-.96.504 0 1.01.003 1.498-.017 1.2-.05 2.332-.186 3.423-.373.736-.061 1.477-.125 2.229-.191 10.131-.884 21.01-1.923 26.965-4.037 5.774-2.05 12.464-5.277 13.518-7.72.54-1.253.781-2.339 2.003-3.568 1.227-1.233 3.107-5.792 3.27-7.11.321-2.594.531-2.616 1.74-5.185.578-1.227-1.556-.741-.481-1.894.558-.598.813-2.165.952-3.836l.857.011-.125-8.883c.141-1.801.122-2.936.125-4.575.006-4.22-.197-5.39-.302-7.996l-.053-3.78c.024-1.503.259-3.014.062-4.515-.029-.224-.077-.458-.135-.699l-.649-46.273c.382-2.201.345-5.374.507-6.62.616-4.715.566-6.041.57-8.636.008-5.736-.37-5.827-.362-11.564.002-1.003.104-2.01.131-3.015l.231.003-.125-8.884c.141-1.8.122-2.935.125-4.574.006-4.221-.197-5.391-.302-7.996l-.053-3.78c.024-1.503.259-3.015.062-4.516-.029-.223-.077-.458-.135-.698l-.649-46.273c.382-2.201.345-5.375.507-6.62.616-4.716.566-6.042.57-8.636 0-.457-.002-.867-.006-1.258h.006z"/></g></svg>