<svg display="block" fill="none" preserveAspectRatio="none" viewBox="0 0 240.932 136.846" xmlns="http://www.w3.org/2000/svg"><g fill="#231815"><path d="m78.7521 63.7029c-1.385 0-2.3881.6601-3.0381 1.1821-.111.0811-2.1539 1.5779-4.8519 3.8411-.7371-3.687-1.422-6.5142-2.0881-9.2671l-.217-.8989c-.8359-3.4622-1.558-6.4522-1.6899-8.157-.324-2.8052-1.22-6.0252-5.307-6.0252-3.1651 0-4.979 3.104-6.6961 6.5391-7.541 14.5791-23.897 37.708-35.6839 37.708-7.663 0-8.808-7.105-8.808-11.3401 0-26.749 33.7479-65.0478 57.3189-65.0478 2.6081 0 8.674.676 8.674 6.9409 0 7.5791-3.9259 11.501-5.6809 13.2551-1.3471 1.346-2.182 2.6089-2.182 4.7368 0 2.667 2.3139 4.919 5.053 4.919 2.458 0 3.9449-1.5379 5.249-3.1018 2.6329-3.1111 7.5329-8.9041 7.5329-19.9422 0-9.95091-7.3189-16.38084-18.646-16.38084-29.1009 0-67.691 42.54104-67.691 74.62084 0 12.6231 7.42407 20.7791 18.9131 20.7791 7.7179 0 16.2569-5.1199 25.38-15.2151 6.4149-7.0989 11.736-15.156 15.0399-20.6089.6841 3.415 1.6321 8.3369 2.6211 14.0659-12.2161 11.6392-26.3701 28.5291-26.3701 44.2921 0 9.263 6.927 16.248 16.114 16.248 14.9541 0 22.7781-16.554 22.7781-32.907 0-7.491-.724-16.6221-1.994-25.2181 4.4379-3.9089 7.837-6.3999 8.306-6.7128.058-.0381.116-.0821.1699-.126 1.234-1.0291 1.9141-2.376 1.9141-3.7932 0-2.377-1.886-4.386-4.12-4.386zm-13.7151 39.5701c0 16.019-6.5759 24.4-13.0719 24.4-4.4021 0-6.542-2.314-6.542-7.075 0-9.148 6.282-20.568 18.2169-33.1771.733 5.2642 1.397 11.123 1.397 15.8521z"/><path d="m159.649 67.302c-1.942 0-2.855.832-4.758 2.7351-2.241 2.3059-6.902 7.1038-13.123 11.355-7.542 5.1538-14.843 7.7668-21.702 7.7668-11.932 0-25.865-6.9839-25.865-26.666 0-25.3508 21.141-53.18797 40.393-53.18797 6.451 0 9.34 5.09297 9.34 10.14107 0 5.4371-1.712 10.0799-3.296 12.085-1.114 1.3909-1.9 2.533-1.9 4.574 0 2.5051 2.407 4.7859 5.051 4.7859 1.59 0 3.833-.6438 5.495-3.7359 2.105-4.0471 4.356-10.685 4.356-17.176 0-12.69702-7.088-19.979-19.447-19.979-23.752 0-49.8309 32.636-49.8309 62.3589 0 25.0332 17.8649 36.239 35.5729 36.239 20.412 0 38.809-18.374 42.619-23.2939.028-.0369.055-.076.081-.1141.863-1.2959 1.266-2.323 1.266-3.2348 0-2.6092-1.867-4.6531-4.252-4.6531z"/><path d="m233.347 63.7029c-1.385 0-2.388.6601-3.038 1.1821-.111.0811-2.154 1.5779-4.852 3.8411-.737-3.687-1.422-6.5142-2.088-9.2671l-.218-.8989c-.835-3.4622-1.557-6.4522-1.689-8.157-.324-2.8052-1.22-6.0252-5.307-6.0252-3.165 0-4.979 3.104-6.696 6.5391-7.541 14.5791-23.897 37.708-35.684 37.708-7.663 0-8.808-7.105-8.808-11.3401 0-26.749 33.748-65.0478 57.319-65.0478 2.608 0 8.674.676 8.674 6.9409 0 7.5791-3.926 11.501-5.681 13.2551-1.347 1.346-2.182 2.6089-2.182 4.7368 0 2.667 2.314 4.919 5.053 4.919 2.458 0 3.945-1.5379 5.248-3.1018 2.634-3.1111 7.534-8.9041 7.534-19.9422 0-9.95091-7.319-16.38084-18.646-16.38084-29.101 0-67.691 42.54104-67.691 74.62084 0 12.6231 7.424 20.7791 18.913 20.7791 7.718 0 16.257-5.1199 25.38-15.2151 6.415-7.0989 11.736-15.156 15.04-20.6089.684 3.415 1.632 8.3369 2.621 14.0659-12.216 11.6392-26.37 28.5291-26.37 44.2921 0 9.263 6.927 16.248 16.114 16.248 14.954 0 22.778-16.554 22.778-32.907 0-7.491-.724-16.6221-1.994-25.2181 4.438-3.9089 7.837-6.3999 8.306-6.7128.058-.0381.115-.0821.17-.126 1.234-1.0291 1.914-2.376 1.914-3.7932 0-2.377-1.886-4.386-4.12-4.386zm-13.715 39.5701c0 16.019-6.576 24.4-13.072 24.4-4.402 0-6.542-2.314-6.542-7.075 0-9.148 6.282-20.568 18.217-33.1771.733 5.2642 1.397 11.123 1.397 15.8521z"/></g></svg>